solid joint5
facet normal -7.94564891530028e-015 -2.25215913027236e-015 1.0
outer loop
vertex 38.4144165225967 43.711617838799 33.4857114634489
vertex 38.4144165225967 54.1039226842123 33.4857114634489
vertex 35.4144165225967 48.9077702615057 33.4857114634489
endloop
endfacet
facet normal -7.94564891530028e-015 -2.25215913027236e-015 1.0
outer loop
vertex 38.4144165225967 54.1039226842123 33.4857114634489
vertex 38.4144165225967 43.711617838799 33.4857114634489
vertex 38.5144165225967 48.9077702615057 33.4857114634489
endloop
endfacet
facet normal -7.94564891530028e-015 -2.25215913027236e-015 1.0
outer loop
vertex 38.5144165225967 48.9077702615057 33.4857114634489
vertex 38.4144165225967 43.711617838799 33.4857114634489
vertex 38.6132316263584 48.1571950307084 33.4857114634489
endloop
endfacet
facet normal -7.94564891530028e-015 -2.25215913027236e-015 1.0
outer loop
vertex 38.6132316263584 48.1571950307084 33.4857114634489
vertex 38.4144165225967 43.711617838799 33.4857114634489
vertex 38.9029428516218 47.4577702615057 33.4857114634489
endloop
endfacet
facet normal -7.94564891530028e-015 -2.25215913027236e-015 1.0
outer loop
vertex 38.9029428516218 47.4577702615057 33.4857114634489
vertex 38.4144165225967 43.711617838799 33.4857114634489
vertex 39.3638068571557 46.8571605960647 33.4857114634489
endloop
endfacet
facet normal -7.94564891530028e-015 -2.25215913027236e-015 1.0
outer loop
vertex 39.3638068571557 46.8571605960647 33.4857114634489
vertex 38.4144165225967 43.711617838799 33.4857114634489
vertex 39.9644165225967 46.3962965905308 33.4857114634489
endloop
endfacet
facet normal -7.94564891530028e-015 -2.25215913027236e-015 1.0
outer loop
vertex 39.9644165225967 46.3962965905308 33.4857114634489
vertex 38.4144165225967 43.711617838799 33.4857114634489
vertex 44.4144165225967 43.711617838799 33.4857114634489
endloop
endfacet
facet normal -7.94564891530028e-015 -2.25215913027236e-015 1.0
outer loop
vertex 39.9644165225967 46.3962965905308 33.4857114634489
vertex 44.4144165225967 43.711617838799 33.4857114634489
vertex 40.6638412917994 46.1065853652674 33.4857114634489
endloop
endfacet
facet normal -7.94564891530028e-015 -2.25215913027236e-015 1.0
outer loop
vertex 40.6638412917994 46.1065853652674 33.4857114634489
vertex 44.4144165225967 43.711617838799 33.4857114634489
vertex 41.4144165225967 46.0077702615057 33.4857114634489
endloop
endfacet
facet normal -7.94564891530028e-015 -2.25215913027236e-015 1.0
outer loop
vertex 41.4144165225967 46.0077702615057 33.4857114634489
vertex 44.4144165225967 43.711617838799 33.4857114634489
vertex 42.164991753394 46.1065853652674 33.4857114634489
endloop
endfacet
facet normal -7.94564891530028e-015 -2.25215913027236e-015 1.0
outer loop
vertex 42.164991753394 46.1065853652674 33.4857114634489
vertex 44.4144165225967 43.711617838799 33.4857114634489
vertex 42.8644165225967 46.3962965905308 33.4857114634489
endloop
endfacet
facet normal -7.94564891530028e-015 -2.25215913027236e-015 1.0
outer loop
vertex 42.8644165225967 46.3962965905308 33.4857114634489
vertex 44.4144165225967 43.711617838799 33.4857114634489
vertex 43.4650261880377 46.8571605960647 33.4857114634489
endloop
endfacet
facet normal -7.94564891530028e-015 -2.25215913027236e-015 1.0
outer loop
vertex 43.4650261880377 46.8571605960647 33.4857114634489
vertex 44.4144165225967 43.711617838799 33.4857114634489
vertex 43.9258901935716 47.4577702615057 33.4857114634489
endloop
endfacet
facet normal -7.94564891530028e-015 -2.25215913027236e-015 1.0
outer loop
vertex 43.9258901935716 47.4577702615057 33.4857114634489
vertex 44.4144165225967 43.711617838799 33.4857114634489
vertex 44.215601418835 48.1571950307083 33.4857114634489
endloop
endfacet
facet normal -7.94564891530028e-015 -2.25215913027236e-015 1.0
outer loop
vertex 44.215601418835 48.1571950307083 33.4857114634489
vertex 44.4144165225967 43.711617838799 33.4857114634489
vertex 44.3144165225967 48.9077702615057 33.4857114634489
endloop
endfacet
facet normal -7.94564891530028e-015 -2.25215913027236e-015 1.0
outer loop
vertex 38.4144165225967 54.1039226842123 33.4857114634489
vertex 39.9644165225967 51.4192439324805 33.4857114634489
vertex 44.4144165225967 54.1039226842123 33.4857114634489
endloop
endfacet
facet normal -7.94564891530028e-015 -2.25215913027236e-015 1.0
outer loop
vertex 39.9644165225967 51.4192439324805 33.4857114634489
vertex 38.4144165225967 54.1039226842123 33.4857114634489
vertex 39.3638068571557 50.9583799269467 33.4857114634489
endloop
endfacet
facet normal -7.94564891530028e-015 -2.25215913027236e-015 1.0
outer loop
vertex 39.3638068571557 50.9583799269467 33.4857114634489
vertex 38.4144165225967 54.1039226842123 33.4857114634489
vertex 38.9029428516218 50.3577702615057 33.4857114634489
endloop
endfacet
facet normal -7.94564891530028e-015 -2.25215913027236e-015 1.0
outer loop
vertex 38.9029428516218 50.3577702615057 33.4857114634489
vertex 38.4144165225967 54.1039226842123 33.4857114634489
vertex 38.6132316263584 49.658345492303 33.4857114634489
endloop
endfacet
facet normal -7.94564891530028e-015 -2.25215913027236e-015 1.0
outer loop
vertex 38.6132316263584 49.658345492303 33.4857114634489
vertex 38.4144165225967 54.1039226842123 33.4857114634489
vertex 38.5144165225967 48.9077702615057 33.4857114634489
endloop
endfacet
facet normal -7.94564891530028e-015 -2.25215913027236e-015 1.0
outer loop
vertex 44.4144165225967 54.1039226842123 33.4857114634489
vertex 39.9644165225967 51.4192439324805 33.4857114634489
vertex 40.6638412917994 51.708955157744 33.4857114634489
endloop
endfacet
facet normal -7.94564891530028e-015 -2.25215913027236e-015 1.0
outer loop
vertex 44.4144165225967 54.1039226842123 33.4857114634489
vertex 40.6638412917994 51.708955157744 33.4857114634489
vertex 41.4144165225967 51.8077702615057 33.4857114634489
endloop
endfacet
facet normal -7.94564891530028e-015 -2.25215913027236e-015 1.0
outer loop
vertex 44.4144165225967 54.1039226842123 33.4857114634489
vertex 41.4144165225967 51.8077702615057 33.4857114634489
vertex 42.164991753394 51.708955157744 33.4857114634489
endloop
endfacet
facet normal -7.94564891530028e-015 -2.25215913027236e-015 1.0
outer loop
vertex 44.4144165225967 54.1039226842123 33.4857114634489
vertex 42.164991753394 51.708955157744 33.4857114634489
vertex 42.8644165225967 51.4192439324805 33.4857114634489
endloop
endfacet
facet normal -7.94564891530028e-015 -2.25215913027236e-015 1.0
outer loop
vertex 44.4144165225967 54.1039226842123 33.4857114634489
vertex 42.8644165225967 51.4192439324805 33.4857114634489
vertex 43.4650261880377 50.9583799269467 33.4857114634489
endloop
endfacet
facet normal -7.94564891530028e-015 -2.25215913027236e-015 1.0
outer loop
vertex 44.4144165225967 54.1039226842123 33.4857114634489
vertex 43.4650261880377 50.9583799269467 33.4857114634489
vertex 43.9258901935716 50.3577702615057 33.4857114634489
endloop
endfacet
facet normal -7.94564891530028e-015 -2.25215913027236e-015 1.0
outer loop
vertex 44.4144165225967 54.1039226842123 33.4857114634489
vertex 43.9258901935716 50.3577702615057 33.4857114634489
vertex 44.215601418835 49.658345492303 33.4857114634489
endloop
endfacet
facet normal -7.94564891530028e-015 -2.25215913027236e-015 1.0
outer loop
vertex 44.4144165225967 54.1039226842123 33.4857114634489
vertex 44.215601418835 49.658345492303 33.4857114634489
vertex 44.3144165225967 48.9077702615057 33.4857114634489
endloop
endfacet
facet normal -7.94564891530028e-015 -2.25215913027236e-015 1.0
outer loop
vertex 44.4144165225967 54.1039226842123 33.4857114634489
vertex 44.3144165225967 48.9077702615057 33.4857114634489
vertex 44.4144165225967 43.711617838799 33.4857114634489
endloop
endfacet
facet normal -7.94564891530028e-015 -2.25215913027236e-015 1.0
outer loop
vertex 44.4144165225967 54.1039226842123 33.4857114634489
vertex 44.4144165225967 43.711617838799 33.4857114634489
vertex 47.4144165225967 48.9077702615057 33.4857114634489
endloop
endfacet
facet normal 7.58599552651398e-015 2.35834122424068e-015 -1.0
outer loop
vertex 37.5483911188123 55.6039226842123 33.4857114634489
vertex 35.4144165225967 48.9077702615057 33.4857114634489
vertex 33.6823657150279 48.9077702615056 33.4857114634488
endloop
endfacet
facet normal 7.58599552651398e-015 2.35834122424068e-015 -1.0
outer loop
vertex 35.4144165225967 48.9077702615057 33.4857114634489
vertex 37.5483911188123 55.6039226842123 33.4857114634489
vertex 38.4144165225967 54.1039226842123 33.4857114634489
endloop
endfacet
facet normal 7.58599552651398e-015 2.35834122424068e-015 -1.0
outer loop
vertex 38.4144165225967 54.1039226842123 33.4857114634489
vertex 37.5483911188123 55.6039226842123 33.4857114634489
vertex 45.2804419263812 55.6039226842123 33.4857114634489
endloop
endfacet
facet normal 7.58599552651398e-015 2.35834122424068e-015 -1.0
outer loop
vertex 38.4144165225967 54.1039226842123 33.4857114634489
vertex 45.2804419263812 55.6039226842123 33.4857114634489
vertex 44.4144165225967 54.1039226842123 33.4857114634489
endloop
endfacet
facet normal 7.58599552651398e-015 2.35834122424068e-015 -1.0
outer loop
vertex 44.4144165225967 54.1039226842123 33.4857114634489
vertex 45.2804419263812 55.6039226842123 33.4857114634489
vertex 47.4144165225967 48.9077702615057 33.4857114634489
endloop
endfacet
facet normal 7.58599552651398e-015 2.35834122424068e-015 -1.0
outer loop
vertex 47.4144165225967 48.9077702615057 33.4857114634489
vertex 45.2804419263812 55.6039226842123 33.4857114634489
vertex 49.1464673301656 48.9077702615057 33.485711463449
endloop
endfacet
facet normal 7.58599552651398e-015 2.35834122424068e-015 -1.0
outer loop
vertex 35.4144165225967 48.9077702615057 33.4857114634489
vertex 37.5483911188123 42.211617838799 33.4857114634489
vertex 33.6823657150279 48.9077702615056 33.4857114634488
endloop
endfacet
facet normal 7.58599552651398e-015 2.35834122424068e-015 -1.0
outer loop
vertex 37.5483911188123 42.211617838799 33.4857114634489
vertex 35.4144165225967 48.9077702615057 33.4857114634489
vertex 38.4144165225967 43.711617838799 33.4857114634489
endloop
endfacet
facet normal 7.58599552651398e-015 2.35834122424068e-015 -1.0
outer loop
vertex 37.5483911188123 42.211617838799 33.4857114634489
vertex 38.4144165225967 43.711617838799 33.4857114634489
vertex 45.2804419263812 42.211617838799 33.4857114634489
endloop
endfacet
facet normal 7.58599552651398e-015 2.35834122424068e-015 -1.0
outer loop
vertex 45.2804419263812 42.211617838799 33.4857114634489
vertex 38.4144165225967 43.711617838799 33.4857114634489
vertex 44.4144165225967 43.711617838799 33.4857114634489
endloop
endfacet
facet normal 7.58599552651398e-015 2.35834122424068e-015 -1.0
outer loop
vertex 45.2804419263812 42.211617838799 33.4857114634489
vertex 44.4144165225967 43.711617838799 33.4857114634489
vertex 47.4144165225967 48.9077702615057 33.4857114634489
endloop
endfacet
facet normal 7.58599552651398e-015 2.35834122424068e-015 -1.0
outer loop
vertex 45.2804419263812 42.211617838799 33.4857114634489
vertex 47.4144165225967 48.9077702615057 33.4857114634489
vertex 49.1464673301656 48.9077702615057 33.485711463449
endloop
endfacet
facet normal -1.421849949407e-029 1.0 1.86037599227805e-015
outer loop
vertex 37.5483911188123 55.6039226842123 40.9857114634489
vertex 45.2804419263812 55.6039226842123 33.4857114634489
vertex 37.5483911188123 55.6039226842123 33.4857114634489
endloop
endfacet
facet normal -1.421849949407e-029 1.0 1.86037599227805e-015
outer loop
vertex 45.2804419263812 55.6039226842123 33.4857114634489
vertex 37.5483911188123 55.6039226842123 40.9857114634489
vertex 45.2804419263811 55.6039226842123 40.9857114634489
endloop
endfacet
facet normal 0.866025403784439 0.5 5.20764270431635e-015
outer loop
vertex 49.1464673301656 48.9077702615057 33.485711463449
vertex 45.2804419263811 55.6039226842123 40.9857114634489
vertex 49.1464673301656 48.9077702615056 40.985711463449
endloop
endfacet
facet normal 0.866025403784439 0.5 5.20764270431635e-015
outer loop
vertex 45.2804419263811 55.6039226842123 40.9857114634489
vertex 49.1464673301656 48.9077702615057 33.485711463449
vertex 45.2804419263812 55.6039226842123 33.4857114634489
endloop
endfacet
facet normal 0.866025403784438 -0.500000000000001 3.33682471605912e-015
outer loop
vertex 45.2804419263812 42.211617838799 33.4857114634489
vertex 49.1464673301656 48.9077702615056 40.985711463449
vertex 45.2804419263811 42.211617838799 40.9857114634489
endloop
endfacet
facet normal 0.866025403784438 -0.500000000000001 3.33682471605912e-015
outer loop
vertex 49.1464673301656 48.9077702615056 40.985711463449
vertex 45.2804419263812 42.211617838799 33.4857114634489
vertex 49.1464673301656 48.9077702615057 33.485711463449
endloop
endfacet
facet normal -5.83538117424138e-016 -1.0 -1.86037599227805e-015
outer loop
vertex 45.2804419263812 42.211617838799 33.4857114634489
vertex 37.5483911188122 42.211617838799 40.9857114634489
vertex 37.5483911188123 42.211617838799 33.4857114634489
endloop
endfacet
facet normal -5.83538117424138e-016 -1.0 -1.86037599227805e-015
outer loop
vertex 37.5483911188122 42.211617838799 40.9857114634489
vertex 45.2804419263812 42.211617838799 33.4857114634489
vertex 45.2804419263811 42.211617838799 40.9857114634489
endloop
endfacet
facet normal -0.866025403784439 -0.5 -5.65407844699107e-015
outer loop
vertex 33.6823657150278 48.9077702615056 40.9857114634488
vertex 37.5483911188123 42.211617838799 33.4857114634489
vertex 37.5483911188122 42.211617838799 40.9857114634489
endloop
endfacet
facet normal -0.866025403784439 -0.5 -5.65407844699107e-015
outer loop
vertex 37.5483911188123 42.211617838799 33.4857114634489
vertex 33.6823657150278 48.9077702615056 40.9857114634488
vertex 33.6823657150279 48.9077702615056 33.4857114634488
endloop
endfacet
facet normal -0.866025403784438 0.500000000000001 -3.76016376670273e-015
outer loop
vertex 37.5483911188123 55.6039226842123 40.9857114634489
vertex 33.6823657150279 48.9077702615056 33.4857114634488
vertex 33.6823657150278 48.9077702615056 40.9857114634488
endloop
endfacet
facet normal -0.866025403784438 0.500000000000001 -3.76016376670273e-015
outer loop
vertex 33.6823657150279 48.9077702615056 33.4857114634488
vertex 37.5483911188123 55.6039226842123 40.9857114634489
vertex 37.5483911188123 55.6039226842123 33.4857114634489
endloop
endfacet
facet normal -0.866025403784439 -0.5 -3.17911923380217e-015
outer loop
vertex 44.4144165225967 54.1039226842123 40.9857114634489
vertex 47.4144165225967 48.9077702615056 36.9857114634489
vertex 47.4144165225967 48.9077702615056 40.9857114634489
endloop
endfacet
facet normal -0.866025403784439 -0.5 -3.17911923380217e-015
outer loop
vertex 47.4144165225967 48.9077702615056 36.9857114634489
vertex 44.4144165225967 54.1039226842123 40.9857114634489
vertex 44.4144165225967 54.1039226842123 36.9857114634489
endloop
endfacet
facet normal 1.78860364237866e-029 -1.0 -2.37470861688244e-015
outer loop
vertex 44.4144165225967 54.1039226842123 36.9857114634489
vertex 38.4144165225967 54.1039226842123 40.9857114634489
vertex 38.4144165225967 54.1039226842123 36.9857114634489
endloop
endfacet
facet normal 1.78860364237866e-029 -1.0 -2.37470861688244e-015
outer loop
vertex 38.4144165225967 54.1039226842123 40.9857114634489
vertex 44.4144165225967 54.1039226842123 36.9857114634489
vertex 44.4144165225967 54.1039226842123 40.9857114634489
endloop
endfacet
facet normal 0.866025403784438 -0.500000000000001 1.71484796936972e-015
outer loop
vertex 35.4144165225967 48.9077702615056 36.9857114634489
vertex 38.4144165225967 54.1039226842123 40.9857114634489
vertex 35.4144165225967 48.9077702615056 40.9857114634489
endloop
endfacet
facet normal 0.866025403784438 -0.500000000000001 1.71484796936972e-015
outer loop
vertex 38.4144165225967 54.1039226842123 40.9857114634489
vertex 35.4144165225967 48.9077702615056 36.9857114634489
vertex 38.4144165225967 54.1039226842123 36.9857114634489
endloop
endfacet
facet normal 0.866025403784439 0.5 4.02796354368185e-015
outer loop
vertex 38.4144165225967 43.711617838799 36.9857114634489
vertex 35.4144165225967 48.9077702615056 40.9857114634489
vertex 38.4144165225967 43.711617838799 40.9857114634489
endloop
endfacet
facet normal 0.866025403784439 0.5 4.02796354368185e-015
outer loop
vertex 35.4144165225967 48.9077702615056 40.9857114634489
vertex 38.4144165225967 43.711617838799 36.9857114634489
vertex 35.4144165225967 48.9077702615056 36.9857114634489
endloop
endfacet
facet normal 7.51991062012755e-016 1.0 2.37470861688244e-015
outer loop
vertex 38.4144165225967 43.711617838799 40.9857114634489
vertex 44.4144165225967 43.711617838799 36.9857114634489
vertex 38.4144165225967 43.711617838799 36.9857114634489
endloop
endfacet
facet normal 7.51991062012755e-016 1.0 2.37470861688244e-015
outer loop
vertex 44.4144165225967 43.711617838799 36.9857114634489
vertex 38.4144165225967 43.711617838799 40.9857114634489
vertex 44.4144165225967 43.711617838799 40.9857114634489
endloop
endfacet
facet normal -0.866025403784438 0.5 -8.33355801417729e-016
outer loop
vertex 47.4144165225967 48.9077702615056 40.9857114634489
vertex 44.4144165225967 43.711617838799 36.9857114634489
vertex 44.4144165225967 43.711617838799 40.9857114634489
endloop
endfacet
facet normal -0.866025403784438 0.5 -8.33355801417729e-016
outer loop
vertex 44.4144165225967 43.711617838799 36.9857114634489
vertex 47.4144165225967 48.9077702615056 40.9857114634489
vertex 47.4144165225967 48.9077702615056 36.9857114634489
endloop
endfacet
facet normal -7.51991062012773e-015 -2.6049734524876e-015 1.0
outer loop
vertex 38.4144165225967 43.711617838799 36.9857114634489
vertex 38.4144165225967 54.1039226842123 36.9857114634489
vertex 35.4144165225967 48.9077702615056 36.9857114634489
endloop
endfacet
facet normal -7.51991062012773e-015 -2.6049734524876e-015 1.0
outer loop
vertex 38.4144165225967 54.1039226842123 36.9857114634489
vertex 38.4144165225967 43.711617838799 36.9857114634489
vertex 38.5144165225967 48.9077702615057 36.9857114634489
endloop
endfacet
facet normal -7.51991062012773e-015 -2.6049734524876e-015 1.0
outer loop
vertex 38.5144165225967 48.9077702615057 36.9857114634489
vertex 38.4144165225967 43.711617838799 36.9857114634489
vertex 38.6132316263584 48.1571950307083 36.9857114634489
endloop
endfacet
facet normal -7.51991062012773e-015 -2.6049734524876e-015 1.0
outer loop
vertex 38.6132316263584 48.1571950307083 36.9857114634489
vertex 38.4144165225967 43.711617838799 36.9857114634489
vertex 38.9029428516218 47.4577702615057 36.9857114634489
endloop
endfacet
facet normal -7.51991062012773e-015 -2.6049734524876e-015 1.0
outer loop
vertex 38.9029428516218 47.4577702615057 36.9857114634489
vertex 38.4144165225967 43.711617838799 36.9857114634489
vertex 39.3638068571557 46.8571605960647 36.9857114634489
endloop
endfacet
facet normal -7.51991062012773e-015 -2.6049734524876e-015 1.0
outer loop
vertex 39.3638068571557 46.8571605960647 36.9857114634489
vertex 38.4144165225967 43.711617838799 36.9857114634489
vertex 39.9644165225967 46.3962965905308 36.9857114634489
endloop
endfacet
facet normal -7.51991062012773e-015 -2.6049734524876e-015 1.0
outer loop
vertex 39.9644165225967 46.3962965905308 36.9857114634489
vertex 38.4144165225967 43.711617838799 36.9857114634489
vertex 44.4144165225967 43.711617838799 36.9857114634489
endloop
endfacet
facet normal -7.51991062012773e-015 -2.6049734524876e-015 1.0
outer loop
vertex 39.9644165225967 46.3962965905308 36.9857114634489
vertex 44.4144165225967 43.711617838799 36.9857114634489
vertex 40.6638412917994 46.1065853652674 36.9857114634489
endloop
endfacet
facet normal -7.51991062012773e-015 -2.6049734524876e-015 1.0
outer loop
vertex 40.6638412917994 46.1065853652674 36.9857114634489
vertex 44.4144165225967 43.711617838799 36.9857114634489
vertex 41.4144165225967 46.0077702615056 36.9857114634489
endloop
endfacet
facet normal -7.51991062012773e-015 -2.6049734524876e-015 1.0
outer loop
vertex 41.4144165225967 46.0077702615056 36.9857114634489
vertex 44.4144165225967 43.711617838799 36.9857114634489
vertex 42.164991753394 46.1065853652674 36.9857114634489
endloop
endfacet
facet normal -7.51991062012773e-015 -2.6049734524876e-015 1.0
outer loop
vertex 42.164991753394 46.1065853652674 36.9857114634489
vertex 44.4144165225967 43.711617838799 36.9857114634489
vertex 42.8644165225967 46.3962965905308 36.9857114634489
endloop
endfacet
facet normal -7.51991062012773e-015 -2.6049734524876e-015 1.0
outer loop
vertex 42.8644165225967 46.3962965905308 36.9857114634489
vertex 44.4144165225967 43.711617838799 36.9857114634489
vertex 43.4650261880377 46.8571605960647 36.9857114634489
endloop
endfacet
facet normal -7.51991062012773e-015 -2.6049734524876e-015 1.0
outer loop
vertex 43.4650261880377 46.8571605960647 36.9857114634489
vertex 44.4144165225967 43.711617838799 36.9857114634489
vertex 43.9258901935715 47.4577702615057 36.9857114634489
endloop
endfacet
facet normal -7.51991062012773e-015 -2.6049734524876e-015 1.0
outer loop
vertex 43.9258901935715 47.4577702615057 36.9857114634489
vertex 44.4144165225967 43.711617838799 36.9857114634489
vertex 44.215601418835 48.1571950307083 36.9857114634489
endloop
endfacet
facet normal -7.51991062012773e-015 -2.6049734524876e-015 1.0
outer loop
vertex 44.215601418835 48.1571950307083 36.9857114634489
vertex 44.4144165225967 43.711617838799 36.9857114634489
vertex 44.3144165225967 48.9077702615057 36.9857114634489
endloop
endfacet
facet normal -7.51991062012773e-015 -2.6049734524876e-015 1.0
outer loop
vertex 38.4144165225967 54.1039226842123 36.9857114634489
vertex 39.9644165225967 51.4192439324805 36.9857114634489
vertex 44.4144165225967 54.1039226842123 36.9857114634489
endloop
endfacet
facet normal -7.51991062012773e-015 -2.6049734524876e-015 1.0
outer loop
vertex 39.9644165225967 51.4192439324805 36.9857114634489
vertex 38.4144165225967 54.1039226842123 36.9857114634489
vertex 39.3638068571557 50.9583799269466 36.9857114634489
endloop
endfacet
facet normal -7.51991062012773e-015 -2.6049734524876e-015 1.0
outer loop
vertex 39.3638068571557 50.9583799269466 36.9857114634489
vertex 38.4144165225967 54.1039226842123 36.9857114634489
vertex 38.9029428516218 50.3577702615057 36.9857114634489
endloop
endfacet
facet normal -7.51991062012773e-015 -2.6049734524876e-015 1.0
outer loop
vertex 38.9029428516218 50.3577702615057 36.9857114634489
vertex 38.4144165225967 54.1039226842123 36.9857114634489
vertex 38.6132316263584 49.658345492303 36.9857114634489
endloop
endfacet
facet normal -7.51991062012773e-015 -2.6049734524876e-015 1.0
outer loop
vertex 38.6132316263584 49.658345492303 36.9857114634489
vertex 38.4144165225967 54.1039226842123 36.9857114634489
vertex 38.5144165225967 48.9077702615057 36.9857114634489
endloop
endfacet
facet normal -7.51991062012773e-015 -2.6049734524876e-015 1.0
outer loop
vertex 44.4144165225967 54.1039226842123 36.9857114634489
vertex 39.9644165225967 51.4192439324805 36.9857114634489
vertex 40.6638412917994 51.708955157744 36.9857114634489
endloop
endfacet
facet normal -7.51991062012773e-015 -2.6049734524876e-015 1.0
outer loop
vertex 44.4144165225967 54.1039226842123 36.9857114634489
vertex 40.6638412917994 51.708955157744 36.9857114634489
vertex 41.4144165225967 51.8077702615056 36.9857114634489
endloop
endfacet
facet normal -7.51991062012773e-015 -2.6049734524876e-015 1.0
outer loop
vertex 44.4144165225967 54.1039226842123 36.9857114634489
vertex 41.4144165225967 51.8077702615056 36.9857114634489
vertex 42.164991753394 51.708955157744 36.9857114634489
endloop
endfacet
facet normal -7.51991062012773e-015 -2.6049734524876e-015 1.0
outer loop
vertex 44.4144165225967 54.1039226842123 36.9857114634489
vertex 42.164991753394 51.708955157744 36.9857114634489
vertex 42.8644165225967 51.4192439324805 36.9857114634489
endloop
endfacet
facet normal -7.51991062012773e-015 -2.6049734524876e-015 1.0
outer loop
vertex 44.4144165225967 54.1039226842123 36.9857114634489
vertex 42.8644165225967 51.4192439324805 36.9857114634489
vertex 43.4650261880377 50.9583799269466 36.9857114634489
endloop
endfacet
facet normal -7.51991062012773e-015 -2.6049734524876e-015 1.0
outer loop
vertex 44.4144165225967 54.1039226842123 36.9857114634489
vertex 43.4650261880377 50.9583799269466 36.9857114634489
vertex 43.9258901935715 50.3577702615057 36.9857114634489
endloop
endfacet
facet normal -7.51991062012773e-015 -2.6049734524876e-015 1.0
outer loop
vertex 44.4144165225967 54.1039226842123 36.9857114634489
vertex 43.9258901935715 50.3577702615057 36.9857114634489
vertex 44.215601418835 49.658345492303 36.9857114634489
endloop
endfacet
facet normal -7.51991062012773e-015 -2.6049734524876e-015 1.0
outer loop
vertex 44.4144165225967 54.1039226842123 36.9857114634489
vertex 44.215601418835 49.658345492303 36.9857114634489
vertex 44.3144165225967 48.9077702615057 36.9857114634489
endloop
endfacet
facet normal -7.51991062012773e-015 -2.6049734524876e-015 1.0
outer loop
vertex 44.4144165225967 54.1039226842123 36.9857114634489
vertex 44.3144165225967 48.9077702615057 36.9857114634489
vertex 44.4144165225967 43.711617838799 36.9857114634489
endloop
endfacet
facet normal -7.51991062012773e-015 -2.6049734524876e-015 1.0
outer loop
vertex 44.4144165225967 54.1039226842123 36.9857114634489
vertex 44.4144165225967 43.711617838799 36.9857114634489
vertex 47.4144165225967 48.9077702615056 36.9857114634489
endloop
endfacet
facet normal -0.866025403784439 -0.5 -7.33265468784284e-015
outer loop
vertex 44.4144165225967 54.1039226842123 36.9857114634489
vertex 47.4144165225967 48.9077702615057 33.4857114634489
vertex 47.4144165225967 48.9077702615056 36.9857114634489
endloop
endfacet
facet normal -0.866025403784439 -0.5 -7.33265468784284e-015
outer loop
vertex 47.4144165225967 48.9077702615057 33.4857114634489
vertex 44.4144165225967 54.1039226842123 36.9857114634489
vertex 44.4144165225967 54.1039226842123 33.4857114634489
endloop
endfacet
facet normal -0.866025403784438 0.5 -6.0544246223642e-015
outer loop
vertex 47.4144165225967 48.9077702615056 36.9857114634489
vertex 44.4144165225967 43.711617838799 33.4857114634489
vertex 44.4144165225967 43.711617838799 36.9857114634489
endloop
endfacet
facet normal -0.866025403784438 0.5 -6.0544246223642e-015
outer loop
vertex 44.4144165225967 43.711617838799 33.4857114634489
vertex 47.4144165225967 48.9077702615056 36.9857114634489
vertex 47.4144165225967 48.9077702615057 33.4857114634489
endloop
endfacet
facet normal 7.51991062012763e-016 1.0 1.28912753487905e-015
outer loop
vertex 38.4144165225967 43.711617838799 36.9857114634489
vertex 44.4144165225967 43.711617838799 33.4857114634489
vertex 38.4144165225967 43.711617838799 33.4857114634489
endloop
endfacet
facet normal 7.51991062012763e-016 1.0 1.28912753487905e-015
outer loop
vertex 44.4144165225967 43.711617838799 33.4857114634489
vertex 38.4144165225967 43.711617838799 36.9857114634489
vertex 44.4144165225967 43.711617838799 36.9857114634489
endloop
endfacet
facet normal 0.866025403784439 0.5 7.33265468784284e-015
outer loop
vertex 38.4144165225967 43.711617838799 33.4857114634489
vertex 35.4144165225967 48.9077702615056 36.9857114634489
vertex 38.4144165225967 43.711617838799 36.9857114634489
endloop
endfacet
facet normal 0.866025403784439 0.5 7.33265468784284e-015
outer loop
vertex 35.4144165225967 48.9077702615056 36.9857114634489
vertex 38.4144165225967 43.711617838799 33.4857114634489
vertex 35.4144165225967 48.9077702615057 33.4857114634489
endloop
endfacet
facet normal 0.866025403784438 -0.500000000000001 6.05442462236421e-015
outer loop
vertex 35.4144165225967 48.9077702615057 33.4857114634489
vertex 38.4144165225967 54.1039226842123 36.9857114634489
vertex 35.4144165225967 48.9077702615056 36.9857114634489
endloop
endfacet
facet normal 0.866025403784438 -0.500000000000001 6.05442462236421e-015
outer loop
vertex 38.4144165225967 54.1039226842123 36.9857114634489
vertex 35.4144165225967 48.9077702615057 33.4857114634489
vertex 38.4144165225967 54.1039226842123 33.4857114634489
endloop
endfacet
facet normal 9.70260619859618e-030 -1.0 -1.28912753487904e-015
outer loop
vertex 44.4144165225967 54.1039226842123 33.4857114634489
vertex 38.4144165225967 54.1039226842123 36.9857114634489
vertex 38.4144165225967 54.1039226842123 33.4857114634489
endloop
endfacet
facet normal 9.70260619859618e-030 -1.0 -1.28912753487904e-015
outer loop
vertex 38.4144165225967 54.1039226842123 36.9857114634489
vertex 44.4144165225967 54.1039226842123 33.4857114634489
vertex 44.4144165225967 54.1039226842123 36.9857114634489
endloop
endfacet
facet normal -7.58599552651398e-015 -2.35834122424068e-015 1.0
outer loop
vertex 37.5483911188122 42.211617838799 40.9857114634489
vertex 35.4144165225967 48.9077702615056 40.9857114634489
vertex 33.6823657150278 48.9077702615056 40.9857114634488
endloop
endfacet
facet normal -7.58599552651398e-015 -2.35834122424068e-015 1.0
outer loop
vertex 35.4144165225967 48.9077702615056 40.9857114634489
vertex 37.5483911188122 42.211617838799 40.9857114634489
vertex 38.4144165225967 43.711617838799 40.9857114634489
endloop
endfacet
facet normal -7.58599552651398e-015 -2.35834122424068e-015 1.0
outer loop
vertex 38.4144165225967 43.711617838799 40.9857114634489
vertex 37.5483911188122 42.211617838799 40.9857114634489
vertex 45.2804419263811 42.211617838799 40.9857114634489
endloop
endfacet
facet normal -7.58599552651398e-015 -2.35834122424068e-015 1.0
outer loop
vertex 38.4144165225967 43.711617838799 40.9857114634489
vertex 45.2804419263811 42.211617838799 40.9857114634489
vertex 44.4144165225967 43.711617838799 40.9857114634489
endloop
endfacet
facet normal -7.58599552651398e-015 -2.35834122424068e-015 1.0
outer loop
vertex 44.4144165225967 43.711617838799 40.9857114634489
vertex 45.2804419263811 42.211617838799 40.9857114634489
vertex 47.4144165225967 48.9077702615056 40.9857114634489
endloop
endfacet
facet normal -7.58599552651398e-015 -2.35834122424068e-015 1.0
outer loop
vertex 47.4144165225967 48.9077702615056 40.9857114634489
vertex 45.2804419263811 42.211617838799 40.9857114634489
vertex 49.1464673301656 48.9077702615056 40.985711463449
endloop
endfacet
facet normal -7.58599552651398e-015 -2.35834122424068e-015 1.0
outer loop
vertex 35.4144165225967 48.9077702615056 40.9857114634489
vertex 37.5483911188123 55.6039226842123 40.9857114634489
vertex 33.6823657150278 48.9077702615056 40.9857114634488
endloop
endfacet
facet normal -7.58599552651398e-015 -2.35834122424068e-015 1.0
outer loop
vertex 37.5483911188123 55.6039226842123 40.9857114634489
vertex 35.4144165225967 48.9077702615056 40.9857114634489
vertex 38.4144165225967 54.1039226842123 40.9857114634489
endloop
endfacet
facet normal -7.58599552651398e-015 -2.35834122424068e-015 1.0
outer loop
vertex 37.5483911188123 55.6039226842123 40.9857114634489
vertex 38.4144165225967 54.1039226842123 40.9857114634489
vertex 45.2804419263811 55.6039226842123 40.9857114634489
endloop
endfacet
facet normal -7.58599552651398e-015 -2.35834122424068e-015 1.0
outer loop
vertex 45.2804419263811 55.6039226842123 40.9857114634489
vertex 38.4144165225967 54.1039226842123 40.9857114634489
vertex 44.4144165225967 54.1039226842123 40.9857114634489
endloop
endfacet
facet normal -7.58599552651398e-015 -2.35834122424068e-015 1.0
outer loop
vertex 45.2804419263811 55.6039226842123 40.9857114634489
vertex 44.4144165225967 54.1039226842123 40.9857114634489
vertex 47.4144165225967 48.9077702615056 40.9857114634489
endloop
endfacet
facet normal -7.58599552651398e-015 -2.35834122424068e-015 1.0
outer loop
vertex 45.2804419263811 55.6039226842123 40.9857114634489
vertex 47.4144165225967 48.9077702615056 40.9857114634489
vertex 49.1464673301656 48.9077702615056 40.985711463449
endloop
endfacet
facet normal 0.965925826289068 0.258819045102521 7.93789262085707e-015
outer loop
vertex 38.6132316263584 48.1571950307084 33.4857114634489
vertex 38.5144165225967 48.9077702615057 36.9857114634489
vertex 38.6132316263584 48.1571950307083 36.9857114634489
endloop
endfacet
facet normal 1.0 3.56444395825875e-016 7.51991062012773e-015
outer loop
vertex 38.5144165225967 48.9077702615057 36.9857114634489
vertex 38.6132316263584 48.1571950307084 33.4857114634489
vertex 38.5144165225967 48.9077702615057 33.4857114634489
endloop
endfacet
facet normal 0.866025403784438 0.500000000000001 7.8149203574628e-015
outer loop
vertex 38.9029428516218 47.4577702615057 33.4857114634489
vertex 38.6132316263584 48.1571950307083 36.9857114634489
vertex 38.9029428516218 47.4577702615057 36.9857114634489
endloop
endfacet
facet normal 0.965925826289068 0.258819045102521 7.93789262085707e-015
outer loop
vertex 38.6132316263584 48.1571950307083 36.9857114634489
vertex 38.9029428516218 47.4577702615057 33.4857114634489
vertex 38.6132316263584 48.1571950307084 33.4857114634489
endloop
endfacet
facet normal 0.707106781186549 0.707106781186546 7.15937418647397e-015
outer loop
vertex 39.3638068571557 46.8571605960647 33.4857114634489
vertex 38.9029428516218 47.4577702615057 36.9857114634489
vertex 39.3638068571557 46.8571605960647 36.9857114634489
endloop
endfacet
facet normal 0.866025403784438 0.500000000000001 7.8149203574628e-015
outer loop
vertex 38.9029428516218 47.4577702615057 36.9857114634489
vertex 39.3638068571557 46.8571605960647 33.4857114634489
vertex 38.9029428516218 47.4577702615057 33.4857114634489
endloop
endfacet
facet normal 0.707106781186549 0.707106781186546 7.15937418647397e-015
outer loop
vertex 39.3638068571557 46.8571605960647 36.9857114634489
vertex 39.9644165225967 46.3962965905308 33.4857114634489
vertex 39.3638068571557 46.8571605960647 33.4857114634489
endloop
endfacet
facet normal 0.5 0.866025403784439 6.01592849610218e-015
outer loop
vertex 39.9644165225967 46.3962965905308 33.4857114634489
vertex 39.3638068571557 46.8571605960647 36.9857114634489
vertex 39.9644165225967 46.3962965905308 36.9857114634489
endloop
endfacet
facet normal 0.5 0.866025403784439 6.01592849610218e-015
outer loop
vertex 39.9644165225967 46.3962965905308 36.9857114634489
vertex 40.6638412917994 46.1065853652674 33.4857114634489
vertex 39.9644165225967 46.3962965905308 33.4857114634489
endloop
endfacet
facet normal 0.25881904510252 0.965925826289068 4.46250722051293e-015
outer loop
vertex 40.6638412917994 46.1065853652674 33.4857114634489
vertex 39.9644165225967 46.3962965905308 36.9857114634489
vertex 40.6638412917994 46.1065853652674 36.9857114634489
endloop
endfacet
facet normal 0.258819045102521 0.965925826289069 4.46250722051293e-015
outer loop
vertex 40.6638412917994 46.1065853652674 36.9857114634489
vertex 41.4144165225967 46.0077702615057 33.4857114634489
vertex 40.6638412917994 46.1065853652674 33.4857114634489
endloop
endfacet
facet normal 9.80222088521161e-017 1.0 2.6049734524876e-015
outer loop
vertex 41.4144165225967 46.0077702615057 33.4857114634489
vertex 40.6638412917994 46.1065853652674 36.9857114634489
vertex 41.4144165225967 46.0077702615056 36.9857114634489
endloop
endfacet
facet normal -1.06933318747763e-016 1.0 2.6049734524876e-015
outer loop
vertex 41.4144165225967 46.0077702615056 36.9857114634489
vertex 42.164991753394 46.1065853652674 33.4857114634489
vertex 41.4144165225967 46.0077702615057 33.4857114634489
endloop
endfacet
facet normal -0.258819045102523 0.965925826289068 5.69915048597389e-016
outer loop
vertex 42.164991753394 46.1065853652674 33.4857114634489
vertex 41.4144165225967 46.0077702615056 36.9857114634489
vertex 42.164991753394 46.1065853652674 36.9857114634489
endloop
endfacet
facet normal -0.258819045102523 0.965925826289068 5.69915048597389e-016
outer loop
vertex 42.164991753394 46.1065853652674 36.9857114634489
vertex 42.8644165225967 46.3962965905308 33.4857114634489
vertex 42.164991753394 46.1065853652674 33.4857114634489
endloop
endfacet
facet normal -0.499999999999999 0.866025403784439 -1.50398212402554e-015
outer loop
vertex 42.8644165225967 46.3962965905308 33.4857114634489
vertex 42.164991753394 46.1065853652674 36.9857114634489
vertex 42.8644165225967 46.3962965905308 36.9857114634489
endloop
endfacet
facet normal -0.499999999999999 0.866025403784439 -1.50398212402554e-015
outer loop
vertex 42.8644165225967 46.3962965905308 36.9857114634489
vertex 43.4650261880377 46.8571605960647 33.4857114634489
vertex 42.8644165225967 46.3962965905308 33.4857114634489
endloop
endfacet
facet normal -0.707106781186546 0.707106781186549 -3.47538540034413e-015
outer loop
vertex 43.4650261880377 46.8571605960647 33.4857114634489
vertex 42.8644165225967 46.3962965905308 36.9857114634489
vertex 43.4650261880377 46.8571605960647 36.9857114634489
endloop
endfacet
facet normal -0.866025403784438 0.500000000000002 -5.2099469049752e-015
outer loop
vertex 43.9258901935715 47.4577702615057 36.9857114634489
vertex 43.4650261880377 46.8571605960647 33.4857114634489
vertex 43.4650261880377 46.8571605960647 36.9857114634489
endloop
endfacet
facet normal -0.707106781186546 0.707106781186549 -3.47538540034413e-015
outer loop
vertex 43.4650261880377 46.8571605960647 33.4857114634489
vertex 43.9258901935715 47.4577702615057 36.9857114634489
vertex 43.9258901935716 47.4577702615057 33.4857114634489
endloop
endfacet
facet normal -0.965925826289068 0.258819045102521 -6.58945913787656e-015
outer loop
vertex 44.215601418835 48.1571950307083 36.9857114634489
vertex 43.9258901935716 47.4577702615057 33.4857114634489
vertex 43.9258901935715 47.4577702615057 36.9857114634489
endloop
endfacet
facet normal -0.866025403784438 0.500000000000002 -5.2099469049752e-015
outer loop
vertex 43.9258901935716 47.4577702615057 33.4857114634489
vertex 44.215601418835 48.1571950307083 36.9857114634489
vertex 44.215601418835 48.1571950307083 33.4857114634489
endloop
endfacet
facet normal -1.0 -4.27733274991052e-016 -7.51991062012773e-015
outer loop
vertex 44.3144165225967 48.9077702615057 36.9857114634489
vertex 44.215601418835 48.1571950307083 33.4857114634489
vertex 44.215601418835 48.1571950307083 36.9857114634489
endloop
endfacet
facet normal -0.965925826289068 0.258819045102522 -6.58945913787656e-015
outer loop
vertex 44.215601418835 48.1571950307083 33.4857114634489
vertex 44.3144165225967 48.9077702615057 36.9857114634489
vertex 44.3144165225967 48.9077702615057 33.4857114634489
endloop
endfacet
facet normal -0.965925826289068 -0.258819045102521 -7.93789262085707e-015
outer loop
vertex 44.215601418835 49.658345492303 36.9857114634489
vertex 44.3144165225967 48.9077702615057 33.4857114634489
vertex 44.3144165225967 48.9077702615057 36.9857114634489
endloop
endfacet
facet normal -1.0 -3.56444395825875e-016 -7.51991062012773e-015
outer loop
vertex 44.3144165225967 48.9077702615057 33.4857114634489
vertex 44.215601418835 49.658345492303 36.9857114634489
vertex 44.215601418835 49.658345492303 33.4857114634489
endloop
endfacet
facet normal -0.866025403784438 -0.500000000000001 -7.8149203574628e-015
outer loop
vertex 43.9258901935715 50.3577702615057 36.9857114634489
vertex 44.215601418835 49.658345492303 33.4857114634489
vertex 44.215601418835 49.658345492303 36.9857114634489
endloop
endfacet
facet normal -0.965925826289068 -0.258819045102521 -7.93789262085707e-015
outer loop
vertex 44.215601418835 49.658345492303 33.4857114634489
vertex 43.9258901935715 50.3577702615057 36.9857114634489
vertex 43.9258901935716 50.3577702615057 33.4857114634489
endloop
endfacet
facet normal -0.707106781186549 -0.707106781186546 -7.15937418647397e-015
outer loop
vertex 43.4650261880377 50.9583799269466 36.9857114634489
vertex 43.9258901935716 50.3577702615057 33.4857114634489
vertex 43.9258901935715 50.3577702615057 36.9857114634489
endloop
endfacet
facet normal -0.866025403784438 -0.500000000000001 -7.8149203574628e-015
outer loop
vertex 43.9258901935716 50.3577702615057 33.4857114634489
vertex 43.4650261880377 50.9583799269466 36.9857114634489
vertex 43.4650261880377 50.9583799269467 33.4857114634489
endloop
endfacet
facet normal -0.707106781186549 -0.707106781186546 -7.15937418647397e-015
outer loop
vertex 43.4650261880377 50.9583799269467 33.4857114634489
vertex 42.8644165225967 51.4192439324805 36.9857114634489
vertex 42.8644165225967 51.4192439324805 33.4857114634489
endloop
endfacet
facet normal -0.5 -0.866025403784439 -6.01592849610218e-015
outer loop
vertex 42.8644165225967 51.4192439324805 36.9857114634489
vertex 43.4650261880377 50.9583799269467 33.4857114634489
vertex 43.4650261880377 50.9583799269466 36.9857114634489
endloop
endfacet
facet normal -0.5 -0.866025403784439 -6.01592849610218e-015
outer loop
vertex 42.8644165225967 51.4192439324805 33.4857114634489
vertex 42.164991753394 51.708955157744 36.9857114634489
vertex 42.164991753394 51.708955157744 33.4857114634489
endloop
endfacet
facet normal -0.25881904510252 -0.965925826289068 -4.46250722051293e-015
outer loop
vertex 42.164991753394 51.708955157744 36.9857114634489
vertex 42.8644165225967 51.4192439324805 33.4857114634489
vertex 42.8644165225967 51.4192439324805 36.9857114634489
endloop
endfacet
facet normal -0.258819045102521 -0.965925826289069 -4.46250722051293e-015
outer loop
vertex 42.164991753394 51.708955157744 33.4857114634489
vertex 41.4144165225967 51.8077702615056 36.9857114634489
vertex 41.4144165225967 51.8077702615057 33.4857114634489
endloop
endfacet
facet normal -9.80222088521161e-017 -1.0 -2.6049734524876e-015
outer loop
vertex 41.4144165225967 51.8077702615056 36.9857114634489
vertex 42.164991753394 51.708955157744 33.4857114634489
vertex 42.164991753394 51.708955157744 36.9857114634489
endloop
endfacet
facet normal 1.06933318747763e-016 -1.0 -2.6049734524876e-015
outer loop
vertex 41.4144165225967 51.8077702615057 33.4857114634489
vertex 40.6638412917994 51.708955157744 36.9857114634489
vertex 40.6638412917994 51.708955157744 33.4857114634489
endloop
endfacet
facet normal 0.258819045102523 -0.965925826289068 -5.69915048597389e-016
outer loop
vertex 40.6638412917994 51.708955157744 36.9857114634489
vertex 41.4144165225967 51.8077702615057 33.4857114634489
vertex 41.4144165225967 51.8077702615056 36.9857114634489
endloop
endfacet
facet normal 0.258819045102523 -0.965925826289068 -5.69915048597389e-016
outer loop
vertex 40.6638412917994 51.708955157744 33.4857114634489
vertex 39.9644165225967 51.4192439324805 36.9857114634489
vertex 39.9644165225967 51.4192439324805 33.4857114634489
endloop
endfacet
facet normal 0.499999999999999 -0.866025403784439 1.50398212402554e-015
outer loop
vertex 39.9644165225967 51.4192439324805 36.9857114634489
vertex 40.6638412917994 51.708955157744 33.4857114634489
vertex 40.6638412917994 51.708955157744 36.9857114634489
endloop
endfacet
facet normal 0.499999999999999 -0.866025403784439 1.50398212402554e-015
outer loop
vertex 39.9644165225967 51.4192439324805 33.4857114634489
vertex 39.3638068571557 50.9583799269466 36.9857114634489
vertex 39.3638068571557 50.9583799269467 33.4857114634489
endloop
endfacet
facet normal 0.707106781186546 -0.707106781186549 3.47538540034413e-015
outer loop
vertex 39.3638068571557 50.9583799269466 36.9857114634489
vertex 39.9644165225967 51.4192439324805 33.4857114634489
vertex 39.9644165225967 51.4192439324805 36.9857114634489
endloop
endfacet
facet normal 0.866025403784438 -0.500000000000002 5.2099469049752e-015
outer loop
vertex 38.9029428516218 50.3577702615057 33.4857114634489
vertex 39.3638068571557 50.9583799269466 36.9857114634489
vertex 38.9029428516218 50.3577702615057 36.9857114634489
endloop
endfacet
facet normal 0.707106781186546 -0.707106781186549 3.47538540034413e-015
outer loop
vertex 39.3638068571557 50.9583799269466 36.9857114634489
vertex 38.9029428516218 50.3577702615057 33.4857114634489
vertex 39.3638068571557 50.9583799269467 33.4857114634489
endloop
endfacet
facet normal 0.965925826289068 -0.258819045102521 6.58945913787656e-015
outer loop
vertex 38.6132316263584 49.658345492303 33.4857114634489
vertex 38.9029428516218 50.3577702615057 36.9857114634489
vertex 38.6132316263584 49.658345492303 36.9857114634489
endloop
endfacet
facet normal 0.866025403784438 -0.500000000000002 5.2099469049752e-015
outer loop
vertex 38.9029428516218 50.3577702615057 36.9857114634489
vertex 38.6132316263584 49.658345492303 33.4857114634489
vertex 38.9029428516218 50.3577702615057 33.4857114634489
endloop
endfacet
facet normal 1.0 4.27733274991052e-016 7.51991062012773e-015
outer loop
vertex 38.5144165225967 48.9077702615057 33.4857114634489
vertex 38.6132316263584 49.658345492303 36.9857114634489
vertex 38.5144165225967 48.9077702615057 36.9857114634489
endloop
endfacet
facet normal 0.965925826289068 -0.258819045102522 6.58945913787656e-015
outer loop
vertex 38.6132316263584 49.658345492303 36.9857114634489
vertex 38.5144165225967 48.9077702615057 33.4857114634489
vertex 38.6132316263584 49.658345492303 33.4857114634489
endloop
endfacet
endsolid joint5
