solid CLIPS
facet normal -9.68402296999398e-033 -1.59859502717732e-032 -1.0
outer loop
vertex -11.0228142967031 1.34585903453311 -2
vertex -11.0228142967031 -1.34585903453311 -2
vertex -11.2 -2.25597318603832e-015 -2
endloop
endfacet
facet normal -9.68402296999398e-033 -1.59859502717732e-032 -1.0
outer loop
vertex -11.0228142967031 -1.34585903453311 -2
vertex -11.0228142967031 1.34585903453311 -2
vertex -10.5033320996791 2.6 -2
endloop
endfacet
facet normal -9.68402296999398e-033 -1.59859502717732e-032 -1.0
outer loop
vertex -11.0228142967031 -1.34585903453311 -2
vertex -10.5033320996791 2.6 -2
vertex -10.5033320996791 -2.6 -2
endloop
endfacet
facet normal -9.68402296999398e-033 -1.59859502717732e-032 -1.0
outer loop
vertex -10.5033320996791 -2.6 -2
vertex -10.5033320996791 2.6 -2
vertex -9.67695526217005 3.67695526217004 -2
endloop
endfacet
facet normal -9.68402296999398e-033 -1.59859502717732e-032 -1.0
outer loop
vertex -10.5033320996791 -2.6 -2
vertex -9.67695526217005 3.67695526217004 -2
vertex -9.7 2.25597318603832e-015 -2
endloop
endfacet
facet normal -9.68402296999398e-033 -1.59859502717732e-032 -1.0
outer loop
vertex -9.7 2.25597318603832e-015 -2
vertex -9.67695526217005 3.67695526217004 -2
vertex -9.57392555726955 0.957630466879329 -2
endloop
endfacet
facet normal -9.68402296999398e-033 -1.59859502717732e-032 -1.0
outer loop
vertex -9.57392555726955 0.957630466879329 -2
vertex -9.67695526217005 3.67695526217004 -2
vertex -8.6 4.50333209967908 -2
endloop
endfacet
facet normal -9.68402296999398e-033 -1.59859502717732e-032 -1.0
outer loop
vertex -9.57392555726955 0.957630466879329 -2
vertex -8.6 4.50333209967908 -2
vertex -9.20429399400243 1.85 -2
endloop
endfacet
facet normal -9.68402296999398e-033 -1.59859502717732e-032 -1.0
outer loop
vertex -9.20429399400243 1.85 -2
vertex -8.6 4.50333209967908 -2
vertex -8.61629509039023 2.61629509039023 -2
endloop
endfacet
facet normal -9.68402296999398e-033 -1.59859502717732e-032 -1.0
outer loop
vertex -8.61629509039023 2.61629509039023 -2
vertex -8.6 4.50333209967908 -2
vertex -7.85 3.20429399400242 -2
endloop
endfacet
facet normal -9.68402296999398e-033 -1.59859502717732e-032 -1.0
outer loop
vertex -7.85 3.20429399400242 -2
vertex -8.6 4.50333209967908 -2
vertex -7.3458590345331 5.02281429670315 -2
endloop
endfacet
facet normal -9.68402296999398e-033 -1.59859502717732e-032 -1.0
outer loop
vertex -7.85 3.20429399400242 -2
vertex -7.3458590345331 5.02281429670315 -2
vertex -6.95763046687932 3.57392555726956 -2
endloop
endfacet
facet normal -9.68402296999398e-033 -1.59859502717732e-032 -1.0
outer loop
vertex -6.95763046687932 3.57392555726956 -2
vertex -7.3458590345331 5.02281429670315 -2
vertex -6 5.2 -2
endloop
endfacet
facet normal -9.68402296999398e-033 -1.59859502717732e-032 -1.0
outer loop
vertex -6.95763046687932 3.57392555726956 -2
vertex -6 5.2 -2
vertex -6 3.7 -2
endloop
endfacet
facet normal -9.68402296999398e-033 -1.59859502717732e-032 -1.0
outer loop
vertex -6 3.7 -2
vertex -6 5.2 -2
vertex 7.9 5.2 -2
endloop
endfacet
facet normal -9.68402296999398e-033 -1.59859502717732e-032 -1.0
outer loop
vertex -6 3.7 -2
vertex 7.9 5.2 -2
vertex 1.12798659301916e-015 3.7 -2
endloop
endfacet
facet normal -9.68402296999398e-033 -1.59859502717732e-032 -1.0
outer loop
vertex -6 3.7 -2
vertex 1.12798659301916e-015 3.7 -2
vertex -0.999999999999998 2.7 -2
endloop
endfacet
facet normal -9.68402296999398e-033 -1.59859502717732e-032 -1.0
outer loop
vertex 1.12798659301916e-015 3.7 -2
vertex 7.9 5.2 -2
vertex 7.9 3.7 -2
endloop
endfacet
facet normal -9.68402296999398e-033 -1.59859502717732e-032 -1.0
outer loop
vertex 7.9 3.7 -2
vertex 7.9 5.2 -2
vertex 8.9 4.7 -2
endloop
endfacet
facet normal -9.68402296999398e-033 -1.59859502717732e-032 -1.0
outer loop
vertex 7.9 3.7 -2
vertex 8.9 4.7 -2
vertex 7.9 2.2 -2
endloop
endfacet
facet normal -9.68402296999398e-033 -1.59859502717732e-032 -1.0
outer loop
vertex 7.9 2.2 -2
vertex 8.9 4.7 -2
vertex 8.9 3.2 -2
endloop
endfacet
facet normal -9.68402296999398e-033 -1.59859502717732e-032 -1.0
outer loop
vertex 1.12798659301916e-015 2.7 -2
vertex -0.999999999999998 2.7 -2
vertex 1.12798659301916e-015 3.7 -2
endloop
endfacet
facet normal -9.68402296999398e-033 -1.59859502717732e-032 -1.0
outer loop
vertex 8.9 -3.2 -2
vertex 7.9 -3.7 -2
vertex 7.9 -2.2 -2
endloop
endfacet
facet normal -9.68402296999398e-033 -1.59859502717732e-032 -1.0
outer loop
vertex 7.9 -3.7 -2
vertex 8.9 -3.2 -2
vertex 7.9 -5.2 -2
endloop
endfacet
facet normal -9.68402296999398e-033 -1.59859502717732e-032 -1.0
outer loop
vertex 7.9 -5.2 -2
vertex 8.9 -3.2 -2
vertex 8.9 -4.7 -2
endloop
endfacet
facet normal -9.68402296999398e-033 -1.59859502717732e-032 -1.0
outer loop
vertex -9.7 2.25597318603832e-015 -2
vertex -9.67695526217005 -3.67695526217005 -2
vertex -10.5033320996791 -2.6 -2
endloop
endfacet
facet normal -9.68402296999398e-033 -1.59859502717732e-032 -1.0
outer loop
vertex -9.67695526217005 -3.67695526217005 -2
vertex -9.7 2.25597318603832e-015 -2
vertex -9.57392555726955 -0.957630466879324 -2
endloop
endfacet
facet normal -9.68402296999398e-033 -1.59859502717732e-032 -1.0
outer loop
vertex -9.67695526217005 -3.67695526217005 -2
vertex -9.57392555726955 -0.957630466879324 -2
vertex -8.6 -4.50333209967908 -2
endloop
endfacet
facet normal -9.68402296999398e-033 -1.59859502717732e-032 -1.0
outer loop
vertex -8.6 -4.50333209967908 -2
vertex -9.57392555726955 -0.957630466879324 -2
vertex -9.20429399400243 -1.85 -2
endloop
endfacet
facet normal -9.68402296999398e-033 -1.59859502717732e-032 -1.0
outer loop
vertex -8.6 -4.50333209967908 -2
vertex -9.20429399400243 -1.85 -2
vertex -8.61629509039023 -2.61629509039022 -2
endloop
endfacet
facet normal -9.68402296999398e-033 -1.59859502717732e-032 -1.0
outer loop
vertex -8.6 -4.50333209967908 -2
vertex -8.61629509039023 -2.61629509039022 -2
vertex -7.85 -3.20429399400242 -2
endloop
endfacet
facet normal -9.68402296999398e-033 -1.59859502717732e-032 -1.0
outer loop
vertex -8.6 -4.50333209967908 -2
vertex -7.85 -3.20429399400242 -2
vertex -7.3458590345331 -5.02281429670315 -2
endloop
endfacet
facet normal -9.68402296999398e-033 -1.59859502717732e-032 -1.0
outer loop
vertex -7.3458590345331 -5.02281429670315 -2
vertex -7.85 -3.20429399400242 -2
vertex -6.95763046687932 -3.57392555726955 -2
endloop
endfacet
facet normal -9.68402296999398e-033 -1.59859502717732e-032 -1.0
outer loop
vertex -7.3458590345331 -5.02281429670315 -2
vertex -6.95763046687932 -3.57392555726955 -2
vertex -6 -5.2 -2
endloop
endfacet
facet normal -9.68402296999398e-033 -1.59859502717732e-032 -1.0
outer loop
vertex -6 -5.2 -2
vertex -6.95763046687932 -3.57392555726955 -2
vertex -6 -3.7 -2
endloop
endfacet
facet normal -9.68402296999398e-033 -1.59859502717732e-032 -1.0
outer loop
vertex -6 -5.2 -2
vertex -6 -3.7 -2
vertex -1 -2.7 -2
endloop
endfacet
facet normal -9.68402296999398e-033 -1.59859502717732e-032 -1.0
outer loop
vertex -6 -5.2 -2
vertex -1 -2.7 -2
vertex -1.12798659301916e-015 -3.7 -2
endloop
endfacet
facet normal -9.68402296999398e-033 -1.59859502717732e-032 -1.0
outer loop
vertex -6 -5.2 -2
vertex -1.12798659301916e-015 -3.7 -2
vertex 7.9 -5.2 -2
endloop
endfacet
facet normal -9.68402296999398e-033 -1.59859502717732e-032 -1.0
outer loop
vertex -1.12798659301916e-015 -3.7 -2
vertex -1 -2.7 -2
vertex -1.12798659301916e-015 -2.7 -2
endloop
endfacet
facet normal -9.68402296999398e-033 -1.59859502717732e-032 -1.0
outer loop
vertex 7.9 -5.2 -2
vertex -1.12798659301916e-015 -3.7 -2
vertex 7.9 -3.7 -2
endloop
endfacet
facet normal 9.68402296999398e-033 1.59859502717732e-032 1.0
outer loop
vertex -11.0228142967031 -1.34585903453311 2
vertex -11.0228142967031 1.34585903453311 2
vertex -11.2 -2.25597318603832e-015 2
endloop
endfacet
facet normal 9.68402296999398e-033 1.59859502717732e-032 1.0
outer loop
vertex -11.0228142967031 1.34585903453311 2
vertex -11.0228142967031 -1.34585903453311 2
vertex -10.5033320996791 -2.6 2
endloop
endfacet
facet normal 9.68402296999398e-033 1.59859502717732e-032 1.0
outer loop
vertex -11.0228142967031 1.34585903453311 2
vertex -10.5033320996791 -2.6 2
vertex -10.5033320996791 2.6 2
endloop
endfacet
facet normal 9.68402296999398e-033 1.59859502717732e-032 1.0
outer loop
vertex -10.5033320996791 2.6 2
vertex -10.5033320996791 -2.6 2
vertex -9.67695526217005 -3.67695526217005 2
endloop
endfacet
facet normal 9.68402296999398e-033 1.59859502717732e-032 1.0
outer loop
vertex -10.5033320996791 2.6 2
vertex -9.67695526217005 -3.67695526217005 2
vertex -9.7 2.25597318603832e-015 2
endloop
endfacet
facet normal 9.68402296999398e-033 1.59859502717732e-032 1.0
outer loop
vertex -9.7 2.25597318603832e-015 2
vertex -9.67695526217005 -3.67695526217005 2
vertex -9.57392555726955 -0.957630466879324 2
endloop
endfacet
facet normal 9.68402296999398e-033 1.59859502717732e-032 1.0
outer loop
vertex -9.57392555726955 -0.957630466879324 2
vertex -9.67695526217005 -3.67695526217005 2
vertex -8.6 -4.50333209967908 2
endloop
endfacet
facet normal 9.68402296999398e-033 1.59859502717732e-032 1.0
outer loop
vertex -9.57392555726955 -0.957630466879324 2
vertex -8.6 -4.50333209967908 2
vertex -9.20429399400243 -1.85 2
endloop
endfacet
facet normal 9.68402296999398e-033 1.59859502717732e-032 1.0
outer loop
vertex -9.20429399400243 -1.85 2
vertex -8.6 -4.50333209967908 2
vertex -8.61629509039023 -2.61629509039022 2
endloop
endfacet
facet normal 9.68402296999398e-033 1.59859502717732e-032 1.0
outer loop
vertex -8.61629509039023 -2.61629509039022 2
vertex -8.6 -4.50333209967908 2
vertex -7.85 -3.20429399400242 2
endloop
endfacet
facet normal 9.68402296999398e-033 1.59859502717732e-032 1.0
outer loop
vertex -7.85 -3.20429399400242 2
vertex -8.6 -4.50333209967908 2
vertex -7.3458590345331 -5.02281429670315 2
endloop
endfacet
facet normal 9.68402296999398e-033 1.59859502717732e-032 1.0
outer loop
vertex -7.85 -3.20429399400242 2
vertex -7.3458590345331 -5.02281429670315 2
vertex -6.95763046687932 -3.57392555726955 2
endloop
endfacet
facet normal 9.68402296999398e-033 1.59859502717732e-032 1.0
outer loop
vertex -6.95763046687932 -3.57392555726955 2
vertex -7.3458590345331 -5.02281429670315 2
vertex -6 -5.2 2
endloop
endfacet
facet normal 9.68402296999398e-033 1.59859502717732e-032 1.0
outer loop
vertex -6.95763046687932 -3.57392555726955 2
vertex -6 -5.2 2
vertex -6 -3.7 2
endloop
endfacet
facet normal 9.68402296999398e-033 1.59859502717732e-032 1.0
outer loop
vertex -6 -3.7 2
vertex -6 -5.2 2
vertex -1 -2.7 2
endloop
endfacet
facet normal 9.68402296999398e-033 1.59859502717732e-032 1.0
outer loop
vertex -1 -2.7 2
vertex -6 -5.2 2
vertex -1.12798659301916e-015 -3.7 2
endloop
endfacet
facet normal 9.68402296999398e-033 1.59859502717732e-032 1.0
outer loop
vertex -1.12798659301916e-015 -3.7 2
vertex -6 -5.2 2
vertex 7.9 -5.2 2
endloop
endfacet
facet normal 9.68402296999398e-033 1.59859502717732e-032 1.0
outer loop
vertex -1.12798659301916e-015 -3.7 2
vertex 7.9 -5.2 2
vertex 7.9 -3.7 2
endloop
endfacet
facet normal 9.68402296999398e-033 1.59859502717732e-032 1.0
outer loop
vertex 7.9 -3.7 2
vertex 7.9 -5.2 2
vertex 8.9 -4.7 2
endloop
endfacet
facet normal 9.68402296999398e-033 1.59859502717732e-032 1.0
outer loop
vertex 7.9 -3.7 2
vertex 8.9 -4.7 2
vertex 7.9 -2.2 2
endloop
endfacet
facet normal 9.68402296999398e-033 1.59859502717732e-032 1.0
outer loop
vertex 7.9 -2.2 2
vertex 8.9 -4.7 2
vertex 8.9 -3.2 2
endloop
endfacet
facet normal 9.68402296999398e-033 1.59859502717732e-032 1.0
outer loop
vertex -1.12798659301916e-015 -2.7 2
vertex -1 -2.7 2
vertex -1.12798659301916e-015 -3.7 2
endloop
endfacet
facet normal 9.68402296999398e-033 1.59859502717732e-032 1.0
outer loop
vertex 8.9 3.2 2
vertex 7.9 3.7 2
vertex 7.9 2.2 2
endloop
endfacet
facet normal 9.68402296999398e-033 1.59859502717732e-032 1.0
outer loop
vertex 7.9 3.7 2
vertex 8.9 3.2 2
vertex 7.9 5.2 2
endloop
endfacet
facet normal 9.68402296999398e-033 1.59859502717732e-032 1.0
outer loop
vertex 7.9 5.2 2
vertex 8.9 3.2 2
vertex 8.9 4.7 2
endloop
endfacet
facet normal 9.68402296999398e-033 1.59859502717732e-032 1.0
outer loop
vertex -9.7 2.25597318603832e-015 2
vertex -9.67695526217005 3.67695526217004 2
vertex -10.5033320996791 2.6 2
endloop
endfacet
facet normal 9.68402296999398e-033 1.59859502717732e-032 1.0
outer loop
vertex -9.67695526217005 3.67695526217004 2
vertex -9.7 2.25597318603832e-015 2
vertex -9.57392555726955 0.957630466879329 2
endloop
endfacet
facet normal 9.68402296999398e-033 1.59859502717732e-032 1.0
outer loop
vertex -9.67695526217005 3.67695526217004 2
vertex -9.57392555726955 0.957630466879329 2
vertex -8.6 4.50333209967908 2
endloop
endfacet
facet normal 9.68402296999398e-033 1.59859502717732e-032 1.0
outer loop
vertex -8.6 4.50333209967908 2
vertex -9.57392555726955 0.957630466879329 2
vertex -9.20429399400243 1.85 2
endloop
endfacet
facet normal 9.68402296999398e-033 1.59859502717732e-032 1.0
outer loop
vertex -8.6 4.50333209967908 2
vertex -9.20429399400243 1.85 2
vertex -8.61629509039023 2.61629509039023 2
endloop
endfacet
facet normal 9.68402296999398e-033 1.59859502717732e-032 1.0
outer loop
vertex -8.6 4.50333209967908 2
vertex -8.61629509039023 2.61629509039023 2
vertex -7.85 3.20429399400242 2
endloop
endfacet
facet normal 9.68402296999398e-033 1.59859502717732e-032 1.0
outer loop
vertex -8.6 4.50333209967908 2
vertex -7.85 3.20429399400242 2
vertex -7.3458590345331 5.02281429670315 2
endloop
endfacet
facet normal 9.68402296999398e-033 1.59859502717732e-032 1.0
outer loop
vertex -7.3458590345331 5.02281429670315 2
vertex -7.85 3.20429399400242 2
vertex -6.95763046687932 3.57392555726956 2
endloop
endfacet
facet normal 9.68402296999398e-033 1.59859502717732e-032 1.0
outer loop
vertex -7.3458590345331 5.02281429670315 2
vertex -6.95763046687932 3.57392555726956 2
vertex -6 5.2 2
endloop
endfacet
facet normal 9.68402296999398e-033 1.59859502717732e-032 1.0
outer loop
vertex -6 5.2 2
vertex -6.95763046687932 3.57392555726956 2
vertex -6 3.7 2
endloop
endfacet
facet normal 9.68402296999398e-033 1.59859502717732e-032 1.0
outer loop
vertex -6 5.2 2
vertex -6 3.7 2
vertex -0.999999999999998 2.7 2
endloop
endfacet
facet normal 9.68402296999398e-033 1.59859502717732e-032 1.0
outer loop
vertex -6 5.2 2
vertex -0.999999999999998 2.7 2
vertex 1.12798659301916e-015 3.7 2
endloop
endfacet
facet normal 9.68402296999398e-033 1.59859502717732e-032 1.0
outer loop
vertex -6 5.2 2
vertex 1.12798659301916e-015 3.7 2
vertex 7.9 5.2 2
endloop
endfacet
facet normal 9.68402296999398e-033 1.59859502717732e-032 1.0
outer loop
vertex 1.12798659301916e-015 3.7 2
vertex -0.999999999999998 2.7 2
vertex 1.12798659301916e-015 2.7 2
endloop
endfacet
facet normal 9.68402296999398e-033 1.59859502717732e-032 1.0
outer loop
vertex 7.9 5.2 2
vertex 1.12798659301916e-015 3.7 2
vertex 7.9 3.7 2
endloop
endfacet
facet normal -0.258819045102519 0.965925826289069 -1.29348326474338e-032
outer loop
vertex -7.3458590345331 5.02281429670315 2
vertex -6 5.2 -2
vertex -7.3458590345331 5.02281429670315 -2
endloop
endfacet
facet normal -0.130526192220049 0.991444861373811 -1.4585169607482e-032
outer loop
vertex -6 5.2 -2
vertex -7.3458590345331 5.02281429670315 2
vertex -6 5.2 2
endloop
endfacet
facet normal -1.6230022921139e-016 1.0 -1.59859502717732e-032
outer loop
vertex -6 5.2 2
vertex 7.9 5.2 -2
vertex -6 5.2 -2
endloop
endfacet
facet normal -1.6230022921139e-016 1.0 -1.59859502717732e-032
outer loop
vertex 7.9 5.2 -2
vertex -6 5.2 2
vertex 7.9 5.2 2
endloop
endfacet
facet normal 0.447213595499957 0.894427190999916 -1.86290953283616e-032
outer loop
vertex 7.9 5.2 2
vertex 8.9 4.7 -2
vertex 7.9 5.2 -2
endloop
endfacet
facet normal 0.447213595499957 0.894427190999916 -1.86290953283616e-032
outer loop
vertex 8.9 4.7 -2
vertex 7.9 5.2 2
vertex 8.9 4.7 2
endloop
endfacet
facet normal 1.0 0.0 -9.68402296999398e-033
outer loop
vertex 8.9 4.7 -2
vertex 8.9 3.2 2
vertex 8.9 3.2 -2
endloop
endfacet
facet normal 1.0 0.0 -9.68402296999398e-033
outer loop
vertex 8.9 3.2 2
vertex 8.9 4.7 -2
vertex 8.9 4.7 2
endloop
endfacet
facet normal 0.707106781186548 -0.707106781186547 4.45613552963269e-033
outer loop
vertex 8.9 3.2 -2
vertex 7.9 2.2 2
vertex 7.9 2.2 -2
endloop
endfacet
facet normal 0.707106781186548 -0.707106781186547 4.45613552963269e-033
outer loop
vertex 7.9 2.2 2
vertex 8.9 3.2 -2
vertex 8.9 3.2 2
endloop
endfacet
facet normal -1.0 0.0 9.68402296999398e-033
outer loop
vertex 7.9 3.7 2
vertex 7.9 2.2 -2
vertex 7.9 2.2 2
endloop
endfacet
facet normal -1.0 0.0 9.68402296999398e-033
outer loop
vertex 7.9 2.2 -2
vertex 7.9 3.7 2
vertex 7.9 3.7 -2
endloop
endfacet
facet normal 0.0 -1.0 1.59859502717732e-032
outer loop
vertex 7.9 3.7 2
vertex 1.12798659301916e-015 3.7 -2
vertex 7.9 3.7 -2
endloop
endfacet
facet normal 0.0 -1.0 1.59859502717732e-032
outer loop
vertex 1.12798659301916e-015 3.7 -2
vertex 7.9 3.7 2
vertex 1.12798659301916e-015 3.7 2
endloop
endfacet
facet normal 1.0 0.0 -9.68402296999398e-033
outer loop
vertex 1.12798659301916e-015 3.7 -2
vertex 1.12798659301916e-015 2.7 2
vertex 1.12798659301916e-015 2.7 -2
endloop
endfacet
facet normal 1.0 0.0 -9.68402296999398e-033
outer loop
vertex 1.12798659301916e-015 2.7 2
vertex 1.12798659301916e-015 3.7 -2
vertex 1.12798659301916e-015 3.7 2
endloop
endfacet
facet normal 0.0 -1.0 1.59859502717732e-032
outer loop
vertex 1.12798659301916e-015 2.7 2
vertex -0.999999999999998 2.7 -2
vertex 1.12798659301916e-015 2.7 -2
endloop
endfacet
facet normal 0.0 -1.0 1.59859502717732e-032
outer loop
vertex -0.999999999999998 2.7 -2
vertex 1.12798659301916e-015 2.7 2
vertex -0.999999999999998 2.7 2
endloop
endfacet
facet normal -0.196116135138184 -0.98058067569092 1.75747070765214e-032
outer loop
vertex -0.999999999999998 2.7 2
vertex -6 3.7 -2
vertex -0.999999999999998 2.7 -2
endloop
endfacet
facet normal -0.196116135138184 -0.98058067569092 1.75747070765214e-032
outer loop
vertex -6 3.7 -2
vertex -0.999999999999998 2.7 2
vertex -6 3.7 2
endloop
endfacet
facet normal 0.13052619222005 -0.991444861373811 1.4585169607482e-032
outer loop
vertex -6 3.7 2
vertex -6.95763046687932 3.57392555726956 -2
vertex -6 3.7 -2
endloop
endfacet
facet normal 0.258819045102522 -0.965925826289068 1.29348326474337e-032
outer loop
vertex -6.95763046687932 3.57392555726956 -2
vertex -6 3.7 2
vertex -6.95763046687932 3.57392555726956 2
endloop
endfacet
facet normal 0.258819045102522 -0.965925826289068 1.29348326474337e-032
outer loop
vertex -6.95763046687932 3.57392555726956 2
vertex -7.85 3.20429399400242 -2
vertex -6.95763046687932 3.57392555726956 -2
endloop
endfacet
facet normal 0.5 -0.866025403784439 9.00222755399333e-033
outer loop
vertex -7.85 3.20429399400242 -2
vertex -6.95763046687932 3.57392555726956 2
vertex -7.85 3.20429399400242 2
endloop
endfacet
facet normal 0.5 -0.866025403784439 9.00222755399333e-033
outer loop
vertex -7.85 3.20429399400242 2
vertex -8.61629509039023 2.61629509039023 -2
vertex -7.85 3.20429399400242 -2
endloop
endfacet
facet normal 0.707106781186544 -0.707106781186551 4.45613552963279e-033
outer loop
vertex -8.61629509039023 2.61629509039023 -2
vertex -7.85 3.20429399400242 2
vertex -8.61629509039023 2.61629509039023 2
endloop
endfacet
facet normal 0.707106781186544 -0.707106781186551 4.45613552963279e-033
outer loop
vertex -8.61629509039023 2.61629509039023 -2
vertex -9.20429399400243 1.85 2
vertex -9.20429399400243 1.85 -2
endloop
endfacet
facet normal 0.866025403784439 -0.5 -3.93634766960244e-034
outer loop
vertex -9.20429399400243 1.85 2
vertex -8.61629509039023 2.61629509039023 -2
vertex -8.61629509039023 2.61629509039023 2
endloop
endfacet
facet normal 0.866025403784439 -0.5 -3.93634766960244e-034
outer loop
vertex -9.20429399400243 1.85 -2
vertex -9.57392555726955 0.957630466879329 2
vertex -9.57392555726955 0.957630466879329 -2
endloop
endfacet
facet normal 0.965925826289068 -0.25881904510252 -5.21657950469705e-033
outer loop
vertex -9.57392555726955 0.957630466879329 2
vertex -9.20429399400243 1.85 -2
vertex -9.20429399400243 1.85 2
endloop
endfacet
facet normal 0.965925826289068 -0.25881904510252 -5.21657950469705e-033
outer loop
vertex -9.57392555726955 0.957630466879329 -2
vertex -9.7 2.25597318603832e-015 2
vertex -9.7 2.25597318603832e-015 -2
endloop
endfacet
facet normal 1.0 0.0 -9.68402296999398e-033
outer loop
vertex -9.7 2.25597318603832e-015 2
vertex -9.57392555726955 0.957630466879329 -2
vertex -9.57392555726955 0.957630466879329 2
endloop
endfacet
facet normal 1.0 0.0 -9.68402296999398e-033
outer loop
vertex -9.7 2.25597318603832e-015 -2
vertex -9.57392555726955 -0.957630466879324 2
vertex -9.57392555726955 -0.957630466879324 -2
endloop
endfacet
facet normal 0.965925826289068 0.258819045102521 -1.34915162734905e-032
outer loop
vertex -9.57392555726955 -0.957630466879324 2
vertex -9.7 2.25597318603832e-015 -2
vertex -9.7 2.25597318603832e-015 2
endloop
endfacet
facet normal 0.965925826289068 0.258819045102521 -1.34915162734905e-032
outer loop
vertex -9.57392555726955 -0.957630466879324 -2
vertex -9.20429399400243 -1.85 2
vertex -9.20429399400243 -1.85 -2
endloop
endfacet
facet normal 0.866025403784439 0.499999999999999 -1.63795850387334e-032
outer loop
vertex -9.20429399400243 -1.85 2
vertex -9.57392555726955 -0.957630466879324 -2
vertex -9.57392555726955 -0.957630466879324 2
endloop
endfacet
facet normal 0.866025403784439 0.499999999999999 -1.63795850387334e-032
outer loop
vertex -9.20429399400243 -1.85 -2
vertex -8.61629509039023 -2.61629509039022 2
vertex -8.61629509039023 -2.61629509039022 -2
endloop
endfacet
facet normal 0.707106781186545 0.70710678118655 -1.81514121521308e-032
outer loop
vertex -8.61629509039023 -2.61629509039022 2
vertex -9.20429399400243 -1.85 -2
vertex -9.20429399400243 -1.85 2
endloop
endfacet
facet normal 0.707106781186545 0.70710678118655 -1.81514121521308e-032
outer loop
vertex -8.61629509039023 -2.61629509039022 2
vertex -7.85 -3.20429399400242 -2
vertex -8.61629509039023 -2.61629509039022 -2
endloop
endfacet
facet normal 0.499999999999999 0.866025403784439 -1.86862505239873e-032
outer loop
vertex -7.85 -3.20429399400242 -2
vertex -8.61629509039023 -2.61629509039022 2
vertex -7.85 -3.20429399400242 2
endloop
endfacet
facet normal 0.499999999999999 0.866025403784439 -1.86862505239873e-032
outer loop
vertex -7.85 -3.20429399400242 2
vertex -6.95763046687932 -3.57392555726955 -2
vertex -7.85 -3.20429399400242 -2
endloop
endfacet
facet normal 0.258819045102522 0.965925826289068 -1.79476518031232e-032
outer loop
vertex -6.95763046687932 -3.57392555726955 -2
vertex -7.85 -3.20429399400242 2
vertex -6.95763046687932 -3.57392555726955 2
endloop
endfacet
facet normal 0.258819045102522 0.965925826289068 -1.79476518031232e-032
outer loop
vertex -6.95763046687932 -3.57392555726955 2
vertex -6 -3.7 -2
vertex -6.95763046687932 -3.57392555726955 -2
endloop
endfacet
facet normal 0.130526192220053 0.99144486137381 -1.71132068947716e-032
outer loop
vertex -6 -3.7 -2
vertex -6.95763046687932 -3.57392555726955 2
vertex -6 -3.7 2
endloop
endfacet
facet normal -0.196116135138183 0.98058067569092 -1.37763207615922e-032
outer loop
vertex -6 -3.7 2
vertex -1 -2.7 -2
vertex -6 -3.7 -2
endloop
endfacet
facet normal -0.196116135138183 0.98058067569092 -1.37763207615922e-032
outer loop
vertex -1 -2.7 -2
vertex -6 -3.7 2
vertex -1 -2.7 2
endloop
endfacet
facet normal 0.0 1.0 -1.59859502717732e-032
outer loop
vertex -1 -2.7 2
vertex -1.12798659301916e-015 -2.7 -2
vertex -1 -2.7 -2
endloop
endfacet
facet normal 0.0 1.0 -1.59859502717732e-032
outer loop
vertex -1.12798659301916e-015 -2.7 -2
vertex -1 -2.7 2
vertex -1.12798659301916e-015 -2.7 2
endloop
endfacet
facet normal 1.0 0.0 -9.68402296999398e-033
outer loop
vertex -1.12798659301916e-015 -2.7 -2
vertex -1.12798659301916e-015 -3.7 2
vertex -1.12798659301916e-015 -3.7 -2
endloop
endfacet
facet normal 1.0 0.0 -9.68402296999398e-033
outer loop
vertex -1.12798659301916e-015 -3.7 2
vertex -1.12798659301916e-015 -2.7 -2
vertex -1.12798659301916e-015 -2.7 2
endloop
endfacet
facet normal 0.0 1.0 -1.59859502717732e-032
outer loop
vertex -1.12798659301916e-015 -3.7 2
vertex 7.9 -3.7 -2
vertex -1.12798659301916e-015 -3.7 -2
endloop
endfacet
facet normal 0.0 1.0 -1.59859502717732e-032
outer loop
vertex 7.9 -3.7 -2
vertex -1.12798659301916e-015 -3.7 2
vertex 7.9 -3.7 2
endloop
endfacet
facet normal -1.0 0.0 9.68402296999398e-033
outer loop
vertex 7.9 -2.2 2
vertex 7.9 -3.7 -2
vertex 7.9 -3.7 2
endloop
endfacet
facet normal -1.0 0.0 9.68402296999398e-033
outer loop
vertex 7.9 -3.7 -2
vertex 7.9 -2.2 2
vertex 7.9 -2.2 -2
endloop
endfacet
facet normal 0.707106781186548 0.707106781186547 -1.81514121521308e-032
outer loop
vertex 7.9 -2.2 -2
vertex 8.9 -3.2 2
vertex 8.9 -3.2 -2
endloop
endfacet
facet normal 0.707106781186548 0.707106781186547 -1.81514121521308e-032
outer loop
vertex 8.9 -3.2 2
vertex 7.9 -2.2 -2
vertex 7.9 -2.2 2
endloop
endfacet
facet normal 1.0 0.0 -9.68402296999398e-033
outer loop
vertex 8.9 -3.2 -2
vertex 8.9 -4.7 2
vertex 8.9 -4.7 -2
endloop
endfacet
facet normal 1.0 0.0 -9.68402296999398e-033
outer loop
vertex 8.9 -4.7 2
vertex 8.9 -3.2 -2
vertex 8.9 -3.2 2
endloop
endfacet
facet normal 0.447213595499958 -0.894427190999916 9.96744186573123e-033
outer loop
vertex 8.9 -4.7 2
vertex 7.9 -5.2 -2
vertex 8.9 -4.7 -2
endloop
endfacet
facet normal 0.447213595499958 -0.894427190999916 9.96744186573123e-033
outer loop
vertex 7.9 -5.2 -2
vertex 8.9 -4.7 2
vertex 7.9 -5.2 2
endloop
endfacet
facet normal 0.0 -1.0 1.59859502717732e-032
outer loop
vertex 7.9 -5.2 2
vertex -6 -5.2 -2
vertex 7.9 -5.2 -2
endloop
endfacet
facet normal 0.0 -1.0 1.59859502717732e-032
outer loop
vertex -6 -5.2 -2
vertex 7.9 -5.2 2
vertex -6 -5.2 2
endloop
endfacet
facet normal -0.130526192220052 -0.99144486137381 1.71132068947716e-032
outer loop
vertex -6 -5.2 2
vertex -7.3458590345331 -5.02281429670315 -2
vertex -6 -5.2 -2
endloop
endfacet
facet normal -0.25881904510252 -0.965925826289068 1.79476518031232e-032
outer loop
vertex -7.3458590345331 -5.02281429670315 -2
vertex -6 -5.2 2
vertex -7.3458590345331 -5.02281429670315 2
endloop
endfacet
facet normal -0.25881904510252 -0.965925826289068 1.79476518031232e-032
outer loop
vertex -7.3458590345331 -5.02281429670315 2
vertex -8.6 -4.50333209967908 -2
vertex -7.3458590345331 -5.02281429670315 -2
endloop
endfacet
facet normal -0.499999999999998 -0.86602540378444 1.86862505239873e-032
outer loop
vertex -8.6 -4.50333209967908 -2
vertex -7.3458590345331 -5.02281429670315 2
vertex -8.6 -4.50333209967908 2
endloop
endfacet
facet normal -0.499999999999998 -0.86602540378444 1.86862505239873e-032
outer loop
vertex -8.6 -4.50333209967908 2
vertex -9.67695526217005 -3.67695526217005 -2
vertex -8.6 -4.50333209967908 -2
endloop
endfacet
facet normal -0.707106781186548 -0.707106781186547 1.81514121521308e-032
outer loop
vertex -9.67695526217005 -3.67695526217005 -2
vertex -8.6 -4.50333209967908 2
vertex -9.67695526217005 -3.67695526217005 2
endloop
endfacet
facet normal -0.86602540378444 -0.499999999999998 1.63795850387334e-032
outer loop
vertex -10.5033320996791 -2.6 2
vertex -9.67695526217005 -3.67695526217005 -2
vertex -9.67695526217005 -3.67695526217005 2
endloop
endfacet
facet normal -0.707106781186548 -0.707106781186547 1.81514121521308e-032
outer loop
vertex -9.67695526217005 -3.67695526217005 -2
vertex -10.5033320996791 -2.6 2
vertex -10.5033320996791 -2.6 -2
endloop
endfacet
facet normal -0.965925826289068 -0.258819045102522 1.34915162734905e-032
outer loop
vertex -11.0228142967031 -1.34585903453311 2
vertex -10.5033320996791 -2.6 -2
vertex -10.5033320996791 -2.6 2
endloop
endfacet
facet normal -0.86602540378444 -0.499999999999998 1.63795850387334e-032
outer loop
vertex -10.5033320996791 -2.6 -2
vertex -11.0228142967031 -1.34585903453311 2
vertex -11.0228142967031 -1.34585903453311 -2
endloop
endfacet
facet normal -1.0 -4.45555494782345e-017 9.68402296999398e-033
outer loop
vertex -11.2 -2.25597318603832e-015 2
vertex -11.0228142967031 -1.34585903453311 -2
vertex -11.0228142967031 -1.34585903453311 2
endloop
endfacet
facet normal -0.965925826289068 -0.258819045102522 1.34915162734905e-032
outer loop
vertex -11.0228142967031 -1.34585903453311 -2
vertex -11.2 -2.25597318603832e-015 2
vertex -11.2 -2.25597318603832e-015 -2
endloop
endfacet
facet normal -0.965925826289068 0.258819045102521 5.21657950469703e-033
outer loop
vertex -11.0228142967031 1.34585903453311 2
vertex -11.2 -2.25597318603832e-015 -2
vertex -11.2 -2.25597318603832e-015 2
endloop
endfacet
facet normal -1.0 -4.45555494782345e-017 9.68402296999398e-033
outer loop
vertex -11.2 -2.25597318603832e-015 -2
vertex -11.0228142967031 1.34585903453311 2
vertex -11.0228142967031 1.34585903453311 -2
endloop
endfacet
facet normal -0.86602540378444 0.499999999999997 3.93634766960283e-034
outer loop
vertex -10.5033320996791 2.6 2
vertex -11.0228142967031 1.34585903453311 -2
vertex -11.0228142967031 1.34585903453311 2
endloop
endfacet
facet normal -0.965925826289068 0.258819045102521 5.21657950469703e-033
outer loop
vertex -11.0228142967031 1.34585903453311 -2
vertex -10.5033320996791 2.6 2
vertex -10.5033320996791 2.6 -2
endloop
endfacet
facet normal -0.707106781186548 0.707106781186547 -4.45613552963269e-033
outer loop
vertex -9.67695526217005 3.67695526217004 2
vertex -10.5033320996791 2.6 -2
vertex -10.5033320996791 2.6 2
endloop
endfacet
facet normal -0.86602540378444 0.499999999999997 3.93634766960283e-034
outer loop
vertex -10.5033320996791 2.6 -2
vertex -9.67695526217005 3.67695526217004 2
vertex -9.67695526217005 3.67695526217004 -2
endloop
endfacet
facet normal -0.707106781186548 0.707106781186547 -4.45613552963269e-033
outer loop
vertex -9.67695526217005 3.67695526217004 2
vertex -8.6 4.50333209967908 -2
vertex -9.67695526217005 3.67695526217004 -2
endloop
endfacet
facet normal -0.499999999999999 0.866025403784439 -9.00222755399335e-033
outer loop
vertex -8.6 4.50333209967908 -2
vertex -9.67695526217005 3.67695526217004 2
vertex -8.6 4.50333209967908 2
endloop
endfacet
facet normal -0.499999999999999 0.866025403784439 -9.00222755399335e-033
outer loop
vertex -8.6 4.50333209967908 2
vertex -7.3458590345331 5.02281429670315 -2
vertex -8.6 4.50333209967908 -2
endloop
endfacet
facet normal -0.258819045102519 0.965925826289069 -1.29348326474338e-032
outer loop
vertex -7.3458590345331 5.02281429670315 -2
vertex -8.6 4.50333209967908 2
vertex -7.3458590345331 5.02281429670315 2
endloop
endfacet
endsolid CLIPS
