solid joint5
facet normal 1.0 0.0 0.0
outer loop
vertex -69.1448058094058 -124.62938457236 -6.43072468840029
vertex -69.1555111932128 -124.956400218511 -4.43072468840029
vertex -69.1555111932128 -124.956400218511 -6.43072468840029
endloop
endfacet
facet normal 0.997858923238604 -0.0654031292301414 0.0
outer loop
vertex -69.1555111932128 -124.956400218511 -4.43072468840029
vertex -69.1448058094058 -124.62938457236 -6.43072468840029
vertex -69.1448058094058 -124.62938457236 -4.43072468840029
endloop
endfacet
facet normal 0.99144486137381 -0.130526192220056 0.0
outer loop
vertex -69.1875815025367 -125.282015533461 -6.43072468840029
vertex -69.2408794073896 -125.604836182441 -4.43072468840029
vertex -69.2408794073896 -125.604836182441 -6.43072468840029
endloop
endfacet
facet normal 0.980785280403231 -0.195090322016127 0.0
outer loop
vertex -69.2408794073896 -125.604836182441 -4.43072468840029
vertex -69.1875815025367 -125.282015533461 -6.43072468840029
vertex -69.1875815025367 -125.282015533461 -4.43072468840029
endloop
endfacet
facet normal 0.896872741532691 -0.442288690218996 0.0
outer loop
vertex -69.6604421017424 -126.840828023455 -6.43072468840029
vertex -69.8146787904836 -127.12938457236 -4.43072468840029
vertex -69.8146787904836 -127.12938457236 -6.43072468840029
endloop
endfacet
facet normal 0.866025403784439 -0.5 0.0
outer loop
vertex -69.8146787904836 -127.12938457236 -4.43072468840029
vertex -69.6604421017424 -126.840828023455 -6.43072468840029
vertex -69.6604421017424 -126.840828023455 -4.43072468840029
endloop
endfacet
facet normal 0.866025403784439 -0.5 0.0
outer loop
vertex -69.8146787904836 -127.12938457236 -6.43072468840029
vertex -69.9874577478931 -127.407235737458 -4.43072468840029
vertex -69.9874577478931 -127.407235737458 -6.43072468840029
endloop
endfacet
facet normal 0.831469612302542 -0.555570233019607 0.0
outer loop
vertex -69.9874577478931 -127.407235737458 -4.43072468840029
vertex -69.8146787904836 -127.12938457236 -6.43072468840029
vertex -69.8146787904836 -127.12938457236 -4.43072468840029
endloop
endfacet
facet normal 0.707106781186555 0.70710678118654 0.0
outer loop
vertex -70.6092719034731 -121.093850666428 -6.43072468840029
vertex -70.3856067720109 -121.33265549686 -4.43072468840029
vertex -70.3856067720109 -121.33265549686 -6.43072468840029
endloop
endfacet
facet normal 0.751839807478975 0.659345815100071 0.0
outer loop
vertex -70.3856067720109 -121.33265549686 -4.43072468840029
vertex -70.6092719034731 -121.093850666428 -6.43072468840029
vertex -70.6092719034731 -121.093850666428 -4.43072468840029
endloop
endfacet
facet normal 0.997858923238604 0.0654031292301414 0.0
outer loop
vertex -69.1555111932128 -124.30236892621 -6.43072468840029
vertex -69.1448058094058 -124.62938457236 -4.43072468840029
vertex -69.1448058094058 -124.62938457236 -6.43072468840029
endloop
endfacet
facet normal 1.0 0.0 0.0
outer loop
vertex -69.1448058094058 -124.62938457236 -4.43072468840029
vertex -69.1555111932128 -124.30236892621 -6.43072468840029
vertex -69.1555111932128 -124.30236892621 -4.43072468840029
endloop
endfacet
facet normal 0.896872741532685 0.442288690219007 0.0
outer loop
vertex -69.6604421017424 -122.417941121265 -6.43072468840029
vertex -69.5254081468494 -122.715967410535 -4.43072468840029
vertex -69.5254081468494 -122.715967410535 -6.43072468840029
endloop
endfacet
facet normal 0.923879532511281 0.382683432365105 0.0
outer loop
vertex -69.5254081468494 -122.715967410535 -4.43072468840029
vertex -69.6604421017424 -122.417941121265 -6.43072468840029
vertex -69.6604421017424 -122.417941121265 -4.43072468840029
endloop
endfacet
facet normal 0.946930129495105 -0.321439465303162 0.0
outer loop
vertex -69.4101551619303 -126.236581898876 -6.43072468840029
vertex -69.5254081468494 -126.542801734186 -4.43072468840029
vertex -69.5254081468494 -126.542801734186 -6.43072468840029
endloop
endfacet
facet normal 0.923879532511285 -0.382683432365093 0.0
outer loop
vertex -69.5254081468494 -126.542801734186 -4.43072468840029
vertex -69.4101551619303 -126.236581898876 -6.43072468840029
vertex -69.4101551619303 -126.236581898876 -4.43072468840029
endloop
endfacet
facet normal 0.83146961230255 0.555570233019595 0.0
outer loop
vertex -69.9874577478931 -121.851533407262 -6.43072468840029
vertex -69.8146787904836 -122.12938457236 -4.43072468840029
vertex -69.8146787904836 -122.12938457236 -6.43072468840029
endloop
endfacet
facet normal 0.866025403784439 0.499999999999999 0.0
outer loop
vertex -69.8146787904836 -122.12938457236 -4.43072468840029
vertex -69.9874577478931 -121.851533407262 -6.43072468840029
vertex -69.9874577478931 -121.851533407262 -4.43072468840029
endloop
endfacet
facet normal 0.923879532511281 0.382683432365105 0.0
outer loop
vertex -69.5254081468494 -122.715967410535 -6.43072468840029
vertex -69.4101551619303 -123.022187245845 -4.43072468840029
vertex -69.4101551619303 -123.022187245845 -6.43072468840029
endloop
endfacet
facet normal 0.946930129495105 0.321439465303162 0.0
outer loop
vertex -69.4101551619303 -123.022187245845 -4.43072468840029
vertex -69.5254081468494 -122.715967410535 -6.43072468840029
vertex -69.5254081468494 -122.715967410535 -4.43072468840029
endloop
endfacet
facet normal 0.965925826289072 0.258819045102507 0.0
outer loop
vertex -69.3151766779605 -123.335289346848 -6.43072468840029
vertex -69.2408794073896 -123.65393296228 -4.43072468840029
vertex -69.2408794073896 -123.65393296228 -6.43072468840029
endloop
endfacet
facet normal 0.980785280403231 0.195090322016127 0.0
outer loop
vertex -69.2408794073896 -123.65393296228 -4.43072468840029
vertex -69.3151766779605 -123.335289346848 -6.43072468840029
vertex -69.3151766779605 -123.335289346848 -4.43072468840029
endloop
endfacet
facet normal 0.831469612302542 -0.555570233019607 0.0
outer loop
vertex -69.9874577478931 -127.407235737458 -6.43072468840029
vertex -70.1780391079496 -127.673191717404 -4.43072468840029
vertex -70.1780391079496 -127.673191717404 -6.43072468840029
endloop
endfacet
facet normal 0.793353340291239 -0.608761429008716 0.0
outer loop
vertex -70.1780391079496 -127.673191717404 -4.43072468840029
vertex -69.9874577478931 -127.407235737458 -6.43072468840029
vertex -69.9874577478931 -127.407235737458 -4.43072468840029
endloop
endfacet
facet normal 0.793353340291239 -0.608761429008716 0.0
outer loop
vertex -70.1780391079496 -127.673191717404 -6.43072468840029
vertex -70.3856067720109 -127.926113647861 -4.43072468840029
vertex -70.3856067720109 -127.926113647861 -6.43072468840029
endloop
endfacet
facet normal 0.751839807478975 -0.659345815100071 0.0
outer loop
vertex -70.3856067720109 -127.926113647861 -4.43072468840029
vertex -70.1780391079496 -127.673191717404 -6.43072468840029
vertex -70.1780391079496 -127.673191717404 -4.43072468840029
endloop
endfacet
facet normal 0.707106781186555 -0.70710678118654 0.0
outer loop
vertex -70.6092719034731 -128.164918478293 -4.43072468840029
vertex -70.8480767339054 -128.388583609755 -6.43072468840029
vertex -70.6092719034731 -128.164918478293 -6.43072468840029
endloop
endfacet
facet normal 0.659345815100063 -0.751839807478983 0.0
outer loop
vertex -70.8480767339054 -128.388583609755 -6.43072468840029
vertex -70.6092719034731 -128.164918478293 -4.43072468840029
vertex -70.8480767339054 -128.388583609755 -4.43072468840029
endloop
endfacet
facet normal 0.751839807478975 -0.659345815100071 0.0
outer loop
vertex -70.3856067720109 -127.926113647861 -6.43072468840029
vertex -70.6092719034731 -128.164918478293 -4.43072468840029
vertex -70.6092719034731 -128.164918478293 -6.43072468840029
endloop
endfacet
facet normal 0.707106781186555 -0.70710678118654 0.0
outer loop
vertex -70.6092719034731 -128.164918478293 -4.43072468840029
vertex -70.3856067720109 -127.926113647861 -6.43072468840029
vertex -70.3856067720109 -127.926113647861 -4.43072468840029
endloop
endfacet
facet normal 0.659345815100063 -0.751839807478983 0.0
outer loop
vertex -70.8480767339054 -128.388583609755 -4.43072468840029
vertex -71.1009986643622 -128.596151273817 -6.43072468840029
vertex -70.8480767339054 -128.388583609755 -6.43072468840029
endloop
endfacet
facet normal 0.608761429008723 -0.793353340291233 0.0
outer loop
vertex -71.1009986643622 -128.596151273817 -6.43072468840029
vertex -70.8480767339054 -128.388583609755 -4.43072468840029
vertex -71.1009986643622 -128.596151273817 -4.43072468840029
endloop
endfacet
facet normal 0.751839807478975 0.659345815100071 0.0
outer loop
vertex -70.3856067720109 -121.33265549686 -6.43072468840029
vertex -70.1780391079496 -121.585577427317 -4.43072468840029
vertex -70.1780391079496 -121.585577427317 -6.43072468840029
endloop
endfacet
facet normal 0.793353340291239 0.608761429008716 0.0
outer loop
vertex -70.1780391079496 -121.585577427317 -4.43072468840029
vertex -70.3856067720109 -121.33265549686 -6.43072468840029
vertex -70.3856067720109 -121.33265549686 -4.43072468840029
endloop
endfacet
facet normal 0.866025403784439 0.499999999999999 0.0
outer loop
vertex -69.8146787904836 -122.12938457236 -6.43072468840029
vertex -69.6604421017424 -122.417941121265 -4.43072468840029
vertex -69.6604421017424 -122.417941121265 -6.43072468840029
endloop
endfacet
facet normal 0.896872741532685 0.442288690219007 0.0
outer loop
vertex -69.6604421017424 -122.417941121265 -4.43072468840029
vertex -69.8146787904836 -122.12938457236 -6.43072468840029
vertex -69.8146787904836 -122.12938457236 -4.43072468840029
endloop
endfacet
facet normal 0.500000000000003 0.866025403784437 0.0
outer loop
vertex -71.6448058094058 -120.299257553438 -4.43072468840029
vertex -71.3669546443078 -120.472036510848 -6.43072468840029
vertex -71.6448058094058 -120.299257553438 -6.43072468840029
endloop
endfacet
facet normal 0.555570233019611 0.831469612302539 0.0
outer loop
vertex -71.3669546443078 -120.472036510848 -6.43072468840029
vertex -71.6448058094058 -120.299257553438 -4.43072468840029
vertex -71.3669546443078 -120.472036510848 -4.43072468840029
endloop
endfacet
facet normal 0.608761429008723 -0.793353340291233 0.0
outer loop
vertex -71.1009986643622 -128.596151273817 -4.43072468840029
vertex -71.3669546443078 -128.786732633873 -6.43072468840029
vertex -71.1009986643622 -128.596151273817 -6.43072468840029
endloop
endfacet
facet normal 0.555570233019611 -0.83146961230254 0.0
outer loop
vertex -71.3669546443078 -128.786732633873 -6.43072468840029
vertex -71.1009986643622 -128.596151273817 -4.43072468840029
vertex -71.3669546443078 -128.786732633873 -4.43072468840029
endloop
endfacet
facet normal 0.555570233019611 -0.83146961230254 0.0
outer loop
vertex -71.3669546443078 -128.786732633873 -4.43072468840029
vertex -71.6448058094058 -128.959511591283 -6.43072468840029
vertex -71.3669546443078 -128.786732633873 -6.43072468840029
endloop
endfacet
facet normal 0.499999999999983 -0.866025403784449 0.0
outer loop
vertex -71.6448058094058 -128.959511591283 -6.43072468840029
vertex -71.3669546443078 -128.786732633873 -4.43072468840029
vertex -71.6448058094058 -128.959511591283 -4.43072468840029
endloop
endfacet
facet normal 0.99144486137381 0.130526192220056 0.0
outer loop
vertex -69.1875815025367 -123.97675361126 -6.43072468840029
vertex -69.1555111932128 -124.30236892621 -4.43072468840029
vertex -69.1555111932128 -124.30236892621 -6.43072468840029
endloop
endfacet
facet normal 0.997858923238604 0.0654031292301414 0.0
outer loop
vertex -69.1555111932128 -124.30236892621 -4.43072468840029
vertex -69.1875815025367 -123.97675361126 -6.43072468840029
vertex -69.1875815025367 -123.97675361126 -4.43072468840029
endloop
endfacet
facet normal 0.608761429008705 0.793353340291247 0.0
outer loop
vertex -71.1009986643622 -120.662617870904 -4.43072468840029
vertex -70.8480767339054 -120.870185534966 -6.43072468840029
vertex -71.1009986643622 -120.662617870904 -6.43072468840029
endloop
endfacet
facet normal 0.659345815100063 0.751839807478983 0.0
outer loop
vertex -70.8480767339054 -120.870185534966 -6.43072468840029
vertex -71.1009986643622 -120.662617870904 -4.43072468840029
vertex -70.8480767339054 -120.870185534966 -4.43072468840029
endloop
endfacet
facet normal 0.555570233019611 0.831469612302539 0.0
outer loop
vertex -71.3669546443078 -120.472036510848 -4.43072468840029
vertex -71.1009986643622 -120.662617870904 -6.43072468840029
vertex -71.3669546443078 -120.472036510848 -6.43072468840029
endloop
endfacet
facet normal 0.608761429008705 0.793353340291247 0.0
outer loop
vertex -71.1009986643622 -120.662617870904 -6.43072468840029
vertex -71.3669546443078 -120.472036510848 -4.43072468840029
vertex -71.1009986643622 -120.662617870904 -4.43072468840029
endloop
endfacet
facet normal 0.946930129495105 0.321439465303162 0.0
outer loop
vertex -69.4101551619303 -123.022187245845 -6.43072468840029
vertex -69.3151766779605 -123.335289346848 -4.43072468840029
vertex -69.3151766779605 -123.335289346848 -6.43072468840029
endloop
endfacet
facet normal 0.965925826289072 0.258819045102507 0.0
outer loop
vertex -69.3151766779605 -123.335289346848 -4.43072468840029
vertex -69.4101551619303 -123.022187245845 -6.43072468840029
vertex -69.4101551619303 -123.022187245845 -4.43072468840029
endloop
endfacet
facet normal 0.965925826289068 -0.25881904510252 0.0
outer loop
vertex -69.3151766779605 -125.923479797873 -6.43072468840029
vertex -69.4101551619303 -126.236581898876 -4.43072468840029
vertex -69.4101551619303 -126.236581898876 -6.43072468840029
endloop
endfacet
facet normal 0.946930129495105 -0.321439465303162 0.0
outer loop
vertex -69.4101551619303 -126.236581898876 -4.43072468840029
vertex -69.3151766779605 -125.923479797873 -6.43072468840029
vertex -69.3151766779605 -125.923479797873 -4.43072468840029
endloop
endfacet
facet normal 0.659345815100063 0.751839807478983 0.0
outer loop
vertex -70.8480767339054 -120.870185534966 -4.43072468840029
vertex -70.6092719034731 -121.093850666428 -6.43072468840029
vertex -70.8480767339054 -120.870185534966 -6.43072468840029
endloop
endfacet
facet normal 0.707106781186555 0.70710678118654 0.0
outer loop
vertex -70.6092719034731 -121.093850666428 -6.43072468840029
vertex -70.8480767339054 -120.870185534966 -4.43072468840029
vertex -70.6092719034731 -121.093850666428 -4.43072468840029
endloop
endfacet
facet normal 0.997858923238604 -0.0654031292301414 0.0
outer loop
vertex -69.1555111932128 -124.956400218511 -6.43072468840029
vertex -69.1875815025367 -125.282015533461 -4.43072468840029
vertex -69.1875815025367 -125.282015533461 -6.43072468840029
endloop
endfacet
facet normal 0.99144486137381 -0.130526192220056 0.0
outer loop
vertex -69.1875815025367 -125.282015533461 -4.43072468840029
vertex -69.1555111932128 -124.956400218511 -6.43072468840029
vertex -69.1555111932128 -124.956400218511 -4.43072468840029
endloop
endfacet
facet normal 0.980785280403231 0.195090322016127 0.0
outer loop
vertex -69.2408794073896 -123.65393296228 -6.43072468840029
vertex -69.1875815025367 -123.97675361126 -4.43072468840029
vertex -69.1875815025367 -123.97675361126 -6.43072468840029
endloop
endfacet
facet normal 0.99144486137381 0.130526192220056 0.0
outer loop
vertex -69.1875815025367 -123.97675361126 -4.43072468840029
vertex -69.2408794073896 -123.65393296228 -6.43072468840029
vertex -69.2408794073896 -123.65393296228 -4.43072468840029
endloop
endfacet
facet normal 0.793353340291239 0.608761429008716 0.0
outer loop
vertex -70.1780391079496 -121.585577427317 -6.43072468840029
vertex -69.9874577478931 -121.851533407262 -4.43072468840029
vertex -69.9874577478931 -121.851533407262 -6.43072468840029
endloop
endfacet
facet normal 0.83146961230255 0.555570233019595 0.0
outer loop
vertex -69.9874577478931 -121.851533407262 -4.43072468840029
vertex -70.1780391079496 -121.585577427317 -6.43072468840029
vertex -70.1780391079496 -121.585577427317 -4.43072468840029
endloop
endfacet
facet normal 0.980785280403231 -0.195090322016127 0.0
outer loop
vertex -69.2408794073896 -125.604836182441 -6.43072468840029
vertex -69.3151766779605 -125.923479797873 -4.43072468840029
vertex -69.3151766779605 -125.923479797873 -6.43072468840029
endloop
endfacet
facet normal 0.965925826289068 -0.25881904510252 0.0
outer loop
vertex -69.3151766779605 -125.923479797873 -4.43072468840029
vertex -69.2408794073896 -125.604836182441 -6.43072468840029
vertex -69.2408794073896 -125.604836182441 -4.43072468840029
endloop
endfacet
facet normal 0.923879532511285 -0.382683432365093 0.0
outer loop
vertex -69.5254081468494 -126.542801734186 -6.43072468840029
vertex -69.6604421017424 -126.840828023455 -4.43072468840029
vertex -69.6604421017424 -126.840828023455 -6.43072468840029
endloop
endfacet
facet normal 0.896872741532691 -0.442288690218996 0.0
outer loop
vertex -69.6604421017424 -126.840828023455 -4.43072468840029
vertex -69.5254081468494 -126.542801734186 -6.43072468840029
vertex -69.5254081468494 -126.542801734186 -4.43072468840029
endloop
endfacet
facet normal 0.195090322016137 -0.980785280403229 0.0
outer loop
vertex -73.1693541993252 -129.533310974377 -4.43072468840029
vertex -73.4921748483055 -129.586608879229 -6.43072468840029
vertex -73.1693541993252 -129.533310974377 -6.43072468840029
endloop
endfacet
facet normal 0.130526192220028 -0.991444861373813 0.0
outer loop
vertex -73.4921748483055 -129.586608879229 -6.43072468840029
vertex -73.1693541993252 -129.533310974377 -4.43072468840029
vertex -73.4921748483055 -129.586608879229 -4.43072468840029
endloop
endfacet
facet normal 0.258819045102525 -0.965925826289067 0.0
outer loop
vertex -72.8507105838932 -129.459013703806 -4.43072468840029
vertex -73.1693541993252 -129.533310974377 -6.43072468840029
vertex -72.8507105838932 -129.459013703806 -6.43072468840029
endloop
endfacet
facet normal 0.195090322016137 -0.980785280403229 0.0
outer loop
vertex -73.1693541993252 -129.533310974377 -6.43072468840029
vertex -72.8507105838932 -129.459013703806 -4.43072468840029
vertex -73.1693541993252 -129.533310974377 -4.43072468840029
endloop
endfacet
facet normal -0.321439465303165 -0.946930129495105 0.0
outer loop
vertex -75.7520031359216 -129.364035219836 -4.43072468840029
vertex -76.0582229712312 -129.248782234917 -6.43072468840029
vertex -75.7520031359216 -129.364035219836 -6.43072468840029
endloop
endfacet
facet normal -0.382683432365101 -0.923879532511282 0.0
outer loop
vertex -76.0582229712312 -129.248782234917 -6.43072468840029
vertex -75.7520031359216 -129.364035219836 -4.43072468840029
vertex -76.0582229712312 -129.248782234917 -4.43072468840029
endloop
endfacet
facet normal 4.50819954523555e-016 -1.0 0.0
outer loop
vertex -74.1448058094058 -129.62938457236 -4.43072468840029
vertex -74.4718214555565 -129.618679188553 -6.43072468840029
vertex -74.1448058094058 -129.62938457236 -6.43072468840029
endloop
endfacet
facet normal -0.0654031292301415 -0.997858923238604 0.0
outer loop
vertex -74.4718214555565 -129.618679188553 -6.43072468840029
vertex -74.1448058094058 -129.62938457236 -4.43072468840029
vertex -74.4718214555565 -129.618679188553 -4.43072468840029
endloop
endfacet
facet normal -0.195090322016137 -0.980785280403229 0.0
outer loop
vertex -75.1202574194864 -129.533310974377 -4.43072468840029
vertex -75.4389010349184 -129.459013703806 -6.43072468840029
vertex -75.1202574194864 -129.533310974377 -6.43072468840029
endloop
endfacet
facet normal -0.258819045102525 -0.965925826289067 0.0
outer loop
vertex -75.4389010349184 -129.459013703806 -6.43072468840029
vertex -75.1202574194864 -129.533310974377 -4.43072468840029
vertex -75.4389010349184 -129.459013703806 -4.43072468840029
endloop
endfacet
facet normal 0.0654031292301406 -0.997858923238604 0.0
outer loop
vertex -73.8177901632551 -129.618679188553 -4.43072468840029
vertex -74.1448058094058 -129.62938457236 -6.43072468840029
vertex -73.8177901632551 -129.618679188553 -6.43072468840029
endloop
endfacet
facet normal 4.50819954523555e-016 -1.0 0.0
outer loop
vertex -74.1448058094058 -129.62938457236 -6.43072468840029
vertex -73.8177901632551 -129.618679188553 -4.43072468840029
vertex -74.1448058094058 -129.62938457236 -4.43072468840029
endloop
endfacet
facet normal -0.258819045102525 -0.965925826289067 0.0
outer loop
vertex -75.4389010349184 -129.459013703806 -4.43072468840029
vertex -75.7520031359216 -129.364035219836 -6.43072468840029
vertex -75.4389010349184 -129.459013703806 -6.43072468840029
endloop
endfacet
facet normal -0.321439465303165 -0.946930129495105 0.0
outer loop
vertex -75.7520031359216 -129.364035219836 -6.43072468840029
vertex -75.4389010349184 -129.459013703806 -4.43072468840029
vertex -75.7520031359216 -129.364035219836 -4.43072468840029
endloop
endfacet
facet normal -0.44228869021899 -0.896872741532694 0.0
outer loop
vertex -76.3562492605008 -129.113748280024 -4.43072468840029
vertex -76.6448058094058 -128.959511591283 -6.43072468840029
vertex -76.3562492605008 -129.113748280024 -6.43072468840029
endloop
endfacet
facet normal -0.500000000000003 -0.866025403784437 0.0
outer loop
vertex -76.6448058094058 -128.959511591283 -6.43072468840029
vertex -76.3562492605008 -129.113748280024 -4.43072468840029
vertex -76.6448058094058 -128.959511591283 -4.43072468840029
endloop
endfacet
facet normal -0.555570233019611 -0.831469612302539 0.0
outer loop
vertex -76.9226569745038 -128.786732633873 -4.43072468840029
vertex -77.1886129544494 -128.596151273817 -6.43072468840029
vertex -76.9226569745038 -128.786732633873 -6.43072468840029
endloop
endfacet
facet normal -0.608761429008705 -0.793353340291247 0.0
outer loop
vertex -77.1886129544494 -128.596151273817 -6.43072468840029
vertex -76.9226569745038 -128.786732633873 -4.43072468840029
vertex -77.1886129544494 -128.596151273817 -4.43072468840029
endloop
endfacet
facet normal 0.44228869021899 -0.896872741532694 0.0
outer loop
vertex -71.9333623583108 -129.113748280024 -4.43072468840029
vertex -72.2313886475803 -129.248782234917 -6.43072468840029
vertex -71.9333623583108 -129.113748280024 -6.43072468840029
endloop
endfacet
facet normal 0.382683432365101 -0.923879532511282 0.0
outer loop
vertex -72.2313886475803 -129.248782234917 -6.43072468840029
vertex -71.9333623583108 -129.113748280024 -4.43072468840029
vertex -72.2313886475803 -129.248782234917 -4.43072468840029
endloop
endfacet
facet normal -0.0654031292301415 -0.997858923238604 0.0
outer loop
vertex -74.4718214555565 -129.618679188553 -4.43072468840029
vertex -74.7974367705061 -129.586608879229 -6.43072468840029
vertex -74.4718214555565 -129.618679188553 -6.43072468840029
endloop
endfacet
facet normal -0.130526192220029 -0.991444861373813 0.0
outer loop
vertex -74.7974367705061 -129.586608879229 -6.43072468840029
vertex -74.4718214555565 -129.618679188553 -4.43072468840029
vertex -74.7974367705061 -129.586608879229 -4.43072468840029
endloop
endfacet
facet normal -0.382683432365101 -0.923879532511282 0.0
outer loop
vertex -76.0582229712312 -129.248782234917 -4.43072468840029
vertex -76.3562492605008 -129.113748280024 -6.43072468840029
vertex -76.0582229712312 -129.248782234917 -6.43072468840029
endloop
endfacet
facet normal -0.44228869021899 -0.896872741532694 0.0
outer loop
vertex -76.3562492605008 -129.113748280024 -6.43072468840029
vertex -76.0582229712312 -129.248782234917 -4.43072468840029
vertex -76.3562492605008 -129.113748280024 -4.43072468840029
endloop
endfacet
facet normal -0.608761429008705 -0.793353340291247 0.0
outer loop
vertex -77.1886129544494 -128.596151273817 -4.43072468840029
vertex -77.4415348849061 -128.388583609755 -6.43072468840029
vertex -77.1886129544494 -128.596151273817 -6.43072468840029
endloop
endfacet
facet normal -0.659345815100063 -0.751839807478983 0.0
outer loop
vertex -77.4415348849061 -128.388583609755 -6.43072468840029
vertex -77.1886129544494 -128.596151273817 -4.43072468840029
vertex -77.4415348849061 -128.388583609755 -4.43072468840029
endloop
endfacet
facet normal -0.659345815100063 -0.751839807478983 0.0
outer loop
vertex -77.4415348849061 -128.388583609755 -4.43072468840029
vertex -77.6803397153385 -128.164918478293 -6.43072468840029
vertex -77.4415348849061 -128.388583609755 -6.43072468840029
endloop
endfacet
facet normal -0.707106781186555 -0.70710678118654 0.0
outer loop
vertex -77.6803397153385 -128.164918478293 -6.43072468840029
vertex -77.4415348849061 -128.388583609755 -4.43072468840029
vertex -77.6803397153385 -128.164918478293 -4.43072468840029
endloop
endfacet
facet normal -0.751839807478975 -0.659345815100071 0.0
outer loop
vertex -77.9040048468007 -127.926113647861 -4.43072468840029
vertex -77.6803397153385 -128.164918478293 -6.43072468840029
vertex -77.6803397153385 -128.164918478293 -4.43072468840029
endloop
endfacet
facet normal -0.707106781186555 -0.70710678118654 0.0
outer loop
vertex -77.6803397153385 -128.164918478293 -6.43072468840029
vertex -77.9040048468007 -127.926113647861 -4.43072468840029
vertex -77.9040048468007 -127.926113647861 -6.43072468840029
endloop
endfacet
facet normal -0.793353340291239 -0.608761429008716 0.0
outer loop
vertex -78.111572510862 -127.673191717404 -4.43072468840029
vertex -77.9040048468007 -127.926113647861 -6.43072468840029
vertex -77.9040048468007 -127.926113647861 -4.43072468840029
endloop
endfacet
facet normal -0.751839807478975 -0.659345815100071 0.0
outer loop
vertex -77.9040048468007 -127.926113647861 -6.43072468840029
vertex -78.111572510862 -127.673191717404 -4.43072468840029
vertex -78.111572510862 -127.673191717404 -6.43072468840029
endloop
endfacet
facet normal -0.866025403784439 -0.499999999999999 0.0
outer loop
vertex -78.474932828328 -127.12938457236 -4.43072468840029
vertex -78.3021538709185 -127.407235737458 -6.43072468840029
vertex -78.3021538709185 -127.407235737458 -4.43072468840029
endloop
endfacet
facet normal -0.83146961230255 -0.555570233019595 0.0
outer loop
vertex -78.3021538709185 -127.407235737458 -6.43072468840029
vertex -78.474932828328 -127.12938457236 -4.43072468840029
vertex -78.474932828328 -127.12938457236 -6.43072468840029
endloop
endfacet
facet normal 0.499999999999983 -0.866025403784449 0.0
outer loop
vertex -71.6448058094058 -128.959511591283 -4.43072468840029
vertex -71.9333623583108 -129.113748280024 -6.43072468840029
vertex -71.6448058094058 -128.959511591283 -6.43072468840029
endloop
endfacet
facet normal 0.44228869021899 -0.896872741532694 0.0
outer loop
vertex -71.9333623583108 -129.113748280024 -6.43072468840029
vertex -71.6448058094058 -128.959511591283 -4.43072468840029
vertex -71.9333623583108 -129.113748280024 -4.43072468840029
endloop
endfacet
facet normal -0.500000000000003 -0.866025403784437 0.0
outer loop
vertex -76.6448058094058 -128.959511591283 -4.43072468840029
vertex -76.9226569745038 -128.786732633873 -6.43072468840029
vertex -76.6448058094058 -128.959511591283 -6.43072468840029
endloop
endfacet
facet normal -0.555570233019611 -0.831469612302539 0.0
outer loop
vertex -76.9226569745038 -128.786732633873 -6.43072468840029
vertex -76.6448058094058 -128.959511591283 -4.43072468840029
vertex -76.9226569745038 -128.786732633873 -4.43072468840029
endloop
endfacet
facet normal -0.923879532511285 -0.382683432365093 0.0
outer loop
vertex -78.7642034719622 -126.542801734186 -4.43072468840029
vertex -78.6291695170692 -126.840828023455 -6.43072468840029
vertex -78.6291695170692 -126.840828023455 -4.43072468840029
endloop
endfacet
facet normal -0.896872741532685 -0.442288690219007 0.0
outer loop
vertex -78.6291695170692 -126.840828023455 -6.43072468840029
vertex -78.7642034719622 -126.542801734186 -4.43072468840029
vertex -78.7642034719622 -126.542801734186 -6.43072468840029
endloop
endfacet
facet normal -0.946930129495105 -0.321439465303162 0.0
outer loop
vertex -78.8794564568813 -126.236581898876 -4.43072468840029
vertex -78.7642034719622 -126.542801734186 -6.43072468840029
vertex -78.7642034719622 -126.542801734186 -4.43072468840029
endloop
endfacet
facet normal -0.923879532511285 -0.382683432365093 0.0
outer loop
vertex -78.7642034719622 -126.542801734186 -6.43072468840029
vertex -78.8794564568813 -126.236581898876 -4.43072468840029
vertex -78.8794564568813 -126.236581898876 -6.43072468840029
endloop
endfacet
facet normal -0.965925826289068 -0.25881904510252 0.0
outer loop
vertex -78.9744349408511 -125.923479797873 -4.43072468840029
vertex -78.8794564568813 -126.236581898876 -6.43072468840029
vertex -78.8794564568813 -126.236581898876 -4.43072468840029
endloop
endfacet
facet normal -0.946930129495105 -0.321439465303162 0.0
outer loop
vertex -78.8794564568813 -126.236581898876 -6.43072468840029
vertex -78.9744349408511 -125.923479797873 -4.43072468840029
vertex -78.9744349408511 -125.923479797873 -6.43072468840029
endloop
endfacet
facet normal -0.896872741532685 -0.442288690219007 0.0
outer loop
vertex -78.6291695170692 -126.840828023455 -4.43072468840029
vertex -78.474932828328 -127.12938457236 -6.43072468840029
vertex -78.474932828328 -127.12938457236 -4.43072468840029
endloop
endfacet
facet normal -0.866025403784439 -0.499999999999999 0.0
outer loop
vertex -78.474932828328 -127.12938457236 -6.43072468840029
vertex -78.6291695170692 -126.840828023455 -4.43072468840029
vertex -78.6291695170692 -126.840828023455 -6.43072468840029
endloop
endfacet
facet normal -0.980785280403231 -0.195090322016127 0.0
outer loop
vertex -79.048732211422 -125.604836182441 -4.43072468840029
vertex -78.9744349408511 -125.923479797873 -6.43072468840029
vertex -78.9744349408511 -125.923479797873 -4.43072468840029
endloop
endfacet
facet normal -0.965925826289068 -0.25881904510252 0.0
outer loop
vertex -78.9744349408511 -125.923479797873 -6.43072468840029
vertex -79.048732211422 -125.604836182441 -4.43072468840029
vertex -79.048732211422 -125.604836182441 -6.43072468840029
endloop
endfacet
facet normal -0.99144486137381 -0.130526192220056 0.0
outer loop
vertex -79.1020301162748 -125.282015533461 -4.43072468840029
vertex -79.048732211422 -125.604836182441 -6.43072468840029
vertex -79.048732211422 -125.604836182441 -4.43072468840029
endloop
endfacet
facet normal -0.980785280403231 -0.195090322016127 0.0
outer loop
vertex -79.048732211422 -125.604836182441 -6.43072468840029
vertex -79.1020301162748 -125.282015533461 -4.43072468840029
vertex -79.1020301162748 -125.282015533461 -6.43072468840029
endloop
endfacet
facet normal -0.997858923238604 -0.0654031292301414 0.0
outer loop
vertex -79.1341004255988 -124.956400218511 -4.43072468840029
vertex -79.1020301162748 -125.282015533461 -6.43072468840029
vertex -79.1020301162748 -125.282015533461 -4.43072468840029
endloop
endfacet
facet normal -0.99144486137381 -0.130526192220056 0.0
outer loop
vertex -79.1020301162748 -125.282015533461 -6.43072468840029
vertex -79.1341004255988 -124.956400218511 -4.43072468840029
vertex -79.1341004255988 -124.956400218511 -6.43072468840029
endloop
endfacet
facet normal 0.130526192220028 -0.991444861373813 0.0
outer loop
vertex -73.4921748483055 -129.586608879229 -4.43072468840029
vertex -73.8177901632551 -129.618679188553 -6.43072468840029
vertex -73.4921748483055 -129.586608879229 -6.43072468840029
endloop
endfacet
facet normal 0.0654031292301406 -0.997858923238604 0.0
outer loop
vertex -73.8177901632551 -129.618679188553 -6.43072468840029
vertex -73.4921748483055 -129.586608879229 -4.43072468840029
vertex -73.8177901632551 -129.618679188553 -4.43072468840029
endloop
endfacet
facet normal -0.83146961230255 -0.555570233019595 0.0
outer loop
vertex -78.3021538709185 -127.407235737458 -4.43072468840029
vertex -78.111572510862 -127.673191717404 -6.43072468840029
vertex -78.111572510862 -127.673191717404 -4.43072468840029
endloop
endfacet
facet normal -0.793353340291239 -0.608761429008716 0.0
outer loop
vertex -78.111572510862 -127.673191717404 -6.43072468840029
vertex -78.3021538709185 -127.407235737458 -4.43072468840029
vertex -78.3021538709185 -127.407235737458 -6.43072468840029
endloop
endfacet
facet normal -0.130526192220029 -0.991444861373813 0.0
outer loop
vertex -74.7974367705061 -129.586608879229 -4.43072468840029
vertex -75.1202574194864 -129.533310974377 -6.43072468840029
vertex -74.7974367705061 -129.586608879229 -6.43072468840029
endloop
endfacet
facet normal -0.195090322016137 -0.980785280403229 0.0
outer loop
vertex -75.1202574194864 -129.533310974377 -6.43072468840029
vertex -74.7974367705061 -129.586608879229 -4.43072468840029
vertex -75.1202574194864 -129.533310974377 -4.43072468840029
endloop
endfacet
facet normal 0.321439465303165 -0.946930129495105 0.0
outer loop
vertex -72.53760848289 -129.364035219836 -4.43072468840029
vertex -72.8507105838932 -129.459013703806 -6.43072468840029
vertex -72.53760848289 -129.364035219836 -6.43072468840029
endloop
endfacet
facet normal 0.258819045102525 -0.965925826289067 0.0
outer loop
vertex -72.8507105838932 -129.459013703806 -6.43072468840029
vertex -72.53760848289 -129.364035219836 -4.43072468840029
vertex -72.8507105838932 -129.459013703806 -4.43072468840029
endloop
endfacet
facet normal 0.382683432365101 -0.923879532511282 0.0
outer loop
vertex -72.2313886475803 -129.248782234917 -4.43072468840029
vertex -72.53760848289 -129.364035219836 -6.43072468840029
vertex -72.2313886475803 -129.248782234917 -6.43072468840029
endloop
endfacet
facet normal 0.321439465303165 -0.946930129495105 0.0
outer loop
vertex -72.53760848289 -129.364035219836 -6.43072468840029
vertex -72.2313886475803 -129.248782234917 -4.43072468840029
vertex -72.53760848289 -129.364035219836 -4.43072468840029
endloop
endfacet
facet normal -0.0 -0.0 -1.0
outer loop
vertex -79.1341004255988 -124.30236892621 -6.43072468840029
vertex -79.1341004255988 -124.956400218511 -6.43072468840029
vertex -79.1448058094058 -124.62938457236 -6.43072468840029
endloop
endfacet
facet normal -0.0 -0.0 -1.0
outer loop
vertex -79.1341004255988 -124.956400218511 -6.43072468840029
vertex -79.1341004255988 -124.30236892621 -6.43072468840029
vertex -79.1020301162748 -123.97675361126 -6.43072468840029
endloop
endfacet
facet normal -0.0 -0.0 -1.0
outer loop
vertex -79.1341004255988 -124.956400218511 -6.43072468840029
vertex -79.1020301162748 -123.97675361126 -6.43072468840029
vertex -79.1020301162748 -125.282015533461 -6.43072468840029
endloop
endfacet
facet normal -0.0 -0.0 -1.0
outer loop
vertex -79.1020301162748 -125.282015533461 -6.43072468840029
vertex -79.1020301162748 -123.97675361126 -6.43072468840029
vertex -79.048732211422 -123.65393296228 -6.43072468840029
endloop
endfacet
facet normal -0.0 -0.0 -1.0
outer loop
vertex -79.1020301162748 -125.282015533461 -6.43072468840029
vertex -79.048732211422 -123.65393296228 -6.43072468840029
vertex -79.048732211422 -125.604836182441 -6.43072468840029
endloop
endfacet
facet normal -0.0 -0.0 -1.0
outer loop
vertex -79.048732211422 -125.604836182441 -6.43072468840029
vertex -79.048732211422 -123.65393296228 -6.43072468840029
vertex -78.9744349408511 -123.335289346848 -6.43072468840029
endloop
endfacet
facet normal -0.0 -0.0 -1.0
outer loop
vertex -79.048732211422 -125.604836182441 -6.43072468840029
vertex -78.9744349408511 -123.335289346848 -6.43072468840029
vertex -78.9744349408511 -125.923479797873 -6.43072468840029
endloop
endfacet
facet normal -0.0 -0.0 -1.0
outer loop
vertex -78.9744349408511 -125.923479797873 -6.43072468840029
vertex -78.9744349408511 -123.335289346848 -6.43072468840029
vertex -78.8794564568813 -126.236581898876 -6.43072468840029
endloop
endfacet
facet normal -0.0 -0.0 -1.0
outer loop
vertex -78.8794564568813 -126.236581898876 -6.43072468840029
vertex -78.9744349408511 -123.335289346848 -6.43072468840029
vertex -78.8794564568813 -123.022187245845 -6.43072468840029
endloop
endfacet
facet normal -0.0 -0.0 -1.0
outer loop
vertex -78.8794564568813 -126.236581898876 -6.43072468840029
vertex -78.8794564568813 -123.022187245845 -6.43072468840029
vertex -78.7642034719622 -122.715967410535 -6.43072468840029
endloop
endfacet
facet normal -0.0 -0.0 -1.0
outer loop
vertex -78.8794564568813 -126.236581898876 -6.43072468840029
vertex -78.7642034719622 -122.715967410535 -6.43072468840029
vertex -78.7642034719622 -126.542801734186 -6.43072468840029
endloop
endfacet
facet normal -0.0 -0.0 -1.0
outer loop
vertex -78.7642034719622 -126.542801734186 -6.43072468840029
vertex -78.7642034719622 -122.715967410535 -6.43072468840029
vertex -78.6291695170692 -122.417941121265 -6.43072468840029
endloop
endfacet
facet normal -0.0 -0.0 -1.0
outer loop
vertex -78.7642034719622 -126.542801734186 -6.43072468840029
vertex -78.6291695170692 -122.417941121265 -6.43072468840029
vertex -78.6291695170692 -126.840828023455 -6.43072468840029
endloop
endfacet
facet normal -0.0 -0.0 -1.0
outer loop
vertex -78.6291695170692 -126.840828023455 -6.43072468840029
vertex -78.6291695170692 -122.417941121265 -6.43072468840029
vertex -78.474932828328 -122.12938457236 -6.43072468840029
endloop
endfacet
facet normal -0.0 -0.0 -1.0
outer loop
vertex -78.6291695170692 -126.840828023455 -6.43072468840029
vertex -78.474932828328 -122.12938457236 -6.43072468840029
vertex -78.474932828328 -127.12938457236 -6.43072468840029
endloop
endfacet
facet normal -0.0 -0.0 -1.0
outer loop
vertex -78.474932828328 -127.12938457236 -6.43072468840029
vertex -78.474932828328 -122.12938457236 -6.43072468840029
vertex -78.3021538709185 -121.851533407262 -6.43072468840029
endloop
endfacet
facet normal -0.0 -0.0 -1.0
outer loop
vertex -78.474932828328 -127.12938457236 -6.43072468840029
vertex -78.3021538709185 -121.851533407262 -6.43072468840029
vertex -78.3021538709185 -127.407235737458 -6.43072468840029
endloop
endfacet
facet normal -0.0 -0.0 -1.0
outer loop
vertex -78.3021538709185 -127.407235737458 -6.43072468840029
vertex -78.3021538709185 -121.851533407262 -6.43072468840029
vertex -78.111572510862 -121.585577427317 -6.43072468840029
endloop
endfacet
facet normal -0.0 -0.0 -1.0
outer loop
vertex -78.3021538709185 -127.407235737458 -6.43072468840029
vertex -78.111572510862 -121.585577427317 -6.43072468840029
vertex -78.111572510862 -127.673191717404 -6.43072468840029
endloop
endfacet
facet normal -0.0 -0.0 -1.0
outer loop
vertex -78.111572510862 -127.673191717404 -6.43072468840029
vertex -78.111572510862 -121.585577427317 -6.43072468840029
vertex -77.9040048468007 -121.33265549686 -6.43072468840029
endloop
endfacet
facet normal -0.0 -0.0 -1.0
outer loop
vertex -78.111572510862 -127.673191717404 -6.43072468840029
vertex -77.9040048468007 -121.33265549686 -6.43072468840029
vertex -77.9040048468007 -127.926113647861 -6.43072468840029
endloop
endfacet
facet normal -0.0 -0.0 -1.0
outer loop
vertex -77.9040048468007 -127.926113647861 -6.43072468840029
vertex -77.9040048468007 -121.33265549686 -6.43072468840029
vertex -77.6803397153385 -121.093850666428 -6.43072468840029
endloop
endfacet
facet normal -0.0 -0.0 -1.0
outer loop
vertex -77.9040048468007 -127.926113647861 -6.43072468840029
vertex -77.6803397153385 -121.093850666428 -6.43072468840029
vertex -77.6803397153385 -128.164918478293 -6.43072468840029
endloop
endfacet
facet normal -0.0 -0.0 -1.0
outer loop
vertex -77.6803397153385 -128.164918478293 -6.43072468840029
vertex -77.6803397153385 -121.093850666428 -6.43072468840029
vertex -77.4415348849061 -120.870185534966 -6.43072468840029
endloop
endfacet
facet normal -0.0 -0.0 -1.0
outer loop
vertex -77.6803397153385 -128.164918478293 -6.43072468840029
vertex -77.4415348849061 -120.870185534966 -6.43072468840029
vertex -77.4415348849061 -128.388583609755 -6.43072468840029
endloop
endfacet
facet normal -0.0 -0.0 -1.0
outer loop
vertex -77.4415348849061 -128.388583609755 -6.43072468840029
vertex -77.4415348849061 -120.870185534966 -6.43072468840029
vertex -77.1886129544494 -120.662617870904 -6.43072468840029
endloop
endfacet
facet normal -0.0 -0.0 -1.0
outer loop
vertex -77.4415348849061 -128.388583609755 -6.43072468840029
vertex -77.1886129544494 -120.662617870904 -6.43072468840029
vertex -77.1886129544494 -128.596151273817 -6.43072468840029
endloop
endfacet
facet normal -0.0 -0.0 -1.0
outer loop
vertex -77.1886129544494 -128.596151273817 -6.43072468840029
vertex -77.1886129544494 -120.662617870904 -6.43072468840029
vertex -76.9226569745038 -120.472036510848 -6.43072468840029
endloop
endfacet
facet normal -0.0 -0.0 -1.0
outer loop
vertex -77.1886129544494 -128.596151273817 -6.43072468840029
vertex -76.9226569745038 -120.472036510848 -6.43072468840029
vertex -76.9226569745038 -128.786732633873 -6.43072468840029
endloop
endfacet
facet normal -0.0 -0.0 -1.0
outer loop
vertex -76.9226569745038 -128.786732633873 -6.43072468840029
vertex -76.9226569745038 -120.472036510848 -6.43072468840029
vertex -76.6448058094058 -120.299257553438 -6.43072468840029
endloop
endfacet
facet normal -0.0 -0.0 -1.0
outer loop
vertex -76.9226569745038 -128.786732633873 -6.43072468840029
vertex -76.6448058094058 -120.299257553438 -6.43072468840029
vertex -76.6448058094058 -128.959511591283 -6.43072468840029
endloop
endfacet
facet normal -0.0 -0.0 -1.0
outer loop
vertex -76.6448058094058 -128.959511591283 -6.43072468840029
vertex -76.6448058094058 -120.299257553438 -6.43072468840029
vertex -76.3562492605008 -120.145020864697 -6.43072468840029
endloop
endfacet
facet normal -0.0 -0.0 -1.0
outer loop
vertex -76.6448058094058 -128.959511591283 -6.43072468840029
vertex -76.3562492605008 -120.145020864697 -6.43072468840029
vertex -76.3562492605008 -129.113748280024 -6.43072468840029
endloop
endfacet
facet normal -0.0 -0.0 -1.0
outer loop
vertex -76.3562492605008 -129.113748280024 -6.43072468840029
vertex -76.3562492605008 -120.145020864697 -6.43072468840029
vertex -76.0582229712312 -120.009986909804 -6.43072468840029
endloop
endfacet
facet normal -0.0 -0.0 -1.0
outer loop
vertex -76.3562492605008 -129.113748280024 -6.43072468840029
vertex -76.0582229712312 -120.009986909804 -6.43072468840029
vertex -76.0582229712312 -129.248782234917 -6.43072468840029
endloop
endfacet
facet normal -0.0 -0.0 -1.0
outer loop
vertex -76.0582229712312 -129.248782234917 -6.43072468840029
vertex -76.0582229712312 -120.009986909804 -6.43072468840029
vertex -75.7520031359216 -129.364035219836 -6.43072468840029
endloop
endfacet
facet normal -0.0 -0.0 -1.0
outer loop
vertex -75.7520031359216 -129.364035219836 -6.43072468840029
vertex -76.0582229712312 -120.009986909804 -6.43072468840029
vertex -75.7520031359216 -119.894733924885 -6.43072468840029
endloop
endfacet
facet normal -0.0 -0.0 -1.0
outer loop
vertex -75.7520031359216 -129.364035219836 -6.43072468840029
vertex -75.7520031359216 -119.894733924885 -6.43072468840029
vertex -75.4389010349184 -119.799755440915 -6.43072468840029
endloop
endfacet
facet normal -0.0 -0.0 -1.0
outer loop
vertex -75.7520031359216 -129.364035219836 -6.43072468840029
vertex -75.4389010349184 -119.799755440915 -6.43072468840029
vertex -75.4389010349184 -129.459013703806 -6.43072468840029
endloop
endfacet
facet normal -0.0 -0.0 -1.0
outer loop
vertex -75.4389010349184 -129.459013703806 -6.43072468840029
vertex -75.4389010349184 -119.799755440915 -6.43072468840029
vertex -75.1202574194864 -129.533310974377 -6.43072468840029
endloop
endfacet
facet normal -0.0 -0.0 -1.0
outer loop
vertex -75.1202574194864 -129.533310974377 -6.43072468840029
vertex -75.4389010349184 -119.799755440915 -6.43072468840029
vertex -75.1202574194864 -119.725458170344 -6.43072468840029
endloop
endfacet
facet normal -0.0 -0.0 -1.0
outer loop
vertex -75.1202574194864 -129.533310974377 -6.43072468840029
vertex -75.1202574194864 -119.725458170344 -6.43072468840029
vertex -74.7974367705061 -119.672160265491 -6.43072468840029
endloop
endfacet
facet normal -0.0 -0.0 -1.0
outer loop
vertex -75.1202574194864 -129.533310974377 -6.43072468840029
vertex -74.7974367705061 -119.672160265491 -6.43072468840029
vertex -74.7974367705061 -129.586608879229 -6.43072468840029
endloop
endfacet
facet normal -0.0 -0.0 -1.0
outer loop
vertex -74.7974367705061 -129.586608879229 -6.43072468840029
vertex -74.7974367705061 -119.672160265491 -6.43072468840029
vertex -74.4718214555565 -119.640089956167 -6.43072468840029
endloop
endfacet
facet normal -0.0 -0.0 -1.0
outer loop
vertex -74.7974367705061 -129.586608879229 -6.43072468840029
vertex -74.4718214555565 -119.640089956167 -6.43072468840029
vertex -74.4718214555565 -129.618679188553 -6.43072468840029
endloop
endfacet
facet normal -0.0 -0.0 -1.0
outer loop
vertex -74.4718214555565 -129.618679188553 -6.43072468840029
vertex -74.4718214555565 -119.640089956167 -6.43072468840029
vertex -74.1448058094058 -129.62938457236 -6.43072468840029
endloop
endfacet
facet normal -0.0 -0.0 -1.0
outer loop
vertex -74.1448058094058 -129.62938457236 -6.43072468840029
vertex -74.4718214555565 -119.640089956167 -6.43072468840029
vertex -74.1448058094058 -119.62938457236 -6.43072468840029
endloop
endfacet
facet normal -0.0 -0.0 -1.0
outer loop
vertex -74.1448058094058 -129.62938457236 -6.43072468840029
vertex -74.1448058094058 -119.62938457236 -6.43072468840029
vertex -73.8177901632551 -119.640089956167 -6.43072468840029
endloop
endfacet
facet normal -0.0 -0.0 -1.0
outer loop
vertex -74.1448058094058 -129.62938457236 -6.43072468840029
vertex -73.8177901632551 -119.640089956167 -6.43072468840029
vertex -73.8177901632551 -129.618679188553 -6.43072468840029
endloop
endfacet
facet normal -0.0 -0.0 -1.0
outer loop
vertex -73.8177901632551 -129.618679188553 -6.43072468840029
vertex -73.8177901632551 -119.640089956167 -6.43072468840029
vertex -73.4921748483055 -129.586608879229 -6.43072468840029
endloop
endfacet
facet normal -0.0 -0.0 -1.0
outer loop
vertex -73.4921748483055 -129.586608879229 -6.43072468840029
vertex -73.8177901632551 -119.640089956167 -6.43072468840029
vertex -73.4921748483055 -119.672160265491 -6.43072468840029
endloop
endfacet
facet normal -0.0 -0.0 -1.0
outer loop
vertex -73.4921748483055 -129.586608879229 -6.43072468840029
vertex -73.4921748483055 -119.672160265491 -6.43072468840029
vertex -73.1693541993252 -129.533310974377 -6.43072468840029
endloop
endfacet
facet normal -0.0 -0.0 -1.0
outer loop
vertex -73.1693541993252 -129.533310974377 -6.43072468840029
vertex -73.4921748483055 -119.672160265491 -6.43072468840029
vertex -73.1693541993251 -119.725458170344 -6.43072468840029
endloop
endfacet
facet normal -0.0 -0.0 -1.0
outer loop
vertex -73.1693541993252 -129.533310974377 -6.43072468840029
vertex -73.1693541993251 -119.725458170344 -6.43072468840029
vertex -72.8507105838932 -129.459013703806 -6.43072468840029
endloop
endfacet
facet normal -0.0 -0.0 -1.0
outer loop
vertex -72.8507105838932 -129.459013703806 -6.43072468840029
vertex -73.1693541993251 -119.725458170344 -6.43072468840029
vertex -72.8507105838932 -119.799755440915 -6.43072468840029
endloop
endfacet
facet normal -0.0 -0.0 -1.0
outer loop
vertex -72.8507105838932 -129.459013703806 -6.43072468840029
vertex -72.8507105838932 -119.799755440915 -6.43072468840029
vertex -72.53760848289 -119.894733924885 -6.43072468840029
endloop
endfacet
facet normal -0.0 -0.0 -1.0
outer loop
vertex -72.8507105838932 -129.459013703806 -6.43072468840029
vertex -72.53760848289 -119.894733924885 -6.43072468840029
vertex -72.53760848289 -129.364035219836 -6.43072468840029
endloop
endfacet
facet normal -0.0 -0.0 -1.0
outer loop
vertex -72.53760848289 -129.364035219836 -6.43072468840029
vertex -72.53760848289 -119.894733924885 -6.43072468840029
vertex -72.2313886475803 -120.009986909804 -6.43072468840029
endloop
endfacet
facet normal -0.0 -0.0 -1.0
outer loop
vertex -72.53760848289 -129.364035219836 -6.43072468840029
vertex -72.2313886475803 -120.009986909804 -6.43072468840029
vertex -72.2313886475803 -129.248782234917 -6.43072468840029
endloop
endfacet
facet normal -0.0 -0.0 -1.0
outer loop
vertex -72.2313886475803 -129.248782234917 -6.43072468840029
vertex -72.2313886475803 -120.009986909804 -6.43072468840029
vertex -71.9333623583108 -120.145020864697 -6.43072468840029
endloop
endfacet
facet normal -0.0 -0.0 -1.0
outer loop
vertex -72.2313886475803 -129.248782234917 -6.43072468840029
vertex -71.9333623583108 -120.145020864697 -6.43072468840029
vertex -71.9333623583108 -129.113748280024 -6.43072468840029
endloop
endfacet
facet normal -0.0 -0.0 -1.0
outer loop
vertex -71.9333623583108 -129.113748280024 -6.43072468840029
vertex -71.9333623583108 -120.145020864697 -6.43072468840029
vertex -71.6448058094058 -120.299257553438 -6.43072468840029
endloop
endfacet
facet normal -0.0 -0.0 -1.0
outer loop
vertex -71.9333623583108 -129.113748280024 -6.43072468840029
vertex -71.6448058094058 -120.299257553438 -6.43072468840029
vertex -71.6448058094058 -128.959511591283 -6.43072468840029
endloop
endfacet
facet normal -0.0 -0.0 -1.0
outer loop
vertex -71.6448058094058 -128.959511591283 -6.43072468840029
vertex -71.6448058094058 -120.299257553438 -6.43072468840029
vertex -71.3669546443078 -120.472036510848 -6.43072468840029
endloop
endfacet
facet normal -0.0 -0.0 -1.0
outer loop
vertex -71.6448058094058 -128.959511591283 -6.43072468840029
vertex -71.3669546443078 -120.472036510848 -6.43072468840029
vertex -71.3669546443078 -128.786732633873 -6.43072468840029
endloop
endfacet
facet normal -0.0 -0.0 -1.0
outer loop
vertex -71.3669546443078 -128.786732633873 -6.43072468840029
vertex -71.3669546443078 -120.472036510848 -6.43072468840029
vertex -71.1009986643622 -120.662617870904 -6.43072468840029
endloop
endfacet
facet normal -0.0 -0.0 -1.0
outer loop
vertex -71.3669546443078 -128.786732633873 -6.43072468840029
vertex -71.1009986643622 -120.662617870904 -6.43072468840029
vertex -71.1009986643622 -128.596151273817 -6.43072468840029
endloop
endfacet
facet normal -0.0 -0.0 -1.0
outer loop
vertex -71.1009986643622 -128.596151273817 -6.43072468840029
vertex -71.1009986643622 -120.662617870904 -6.43072468840029
vertex -70.8480767339054 -120.870185534966 -6.43072468840029
endloop
endfacet
facet normal -0.0 -0.0 -1.0
outer loop
vertex -71.1009986643622 -128.596151273817 -6.43072468840029
vertex -70.8480767339054 -120.870185534966 -6.43072468840029
vertex -70.8480767339054 -128.388583609755 -6.43072468840029
endloop
endfacet
facet normal -0.0 -0.0 -1.0
outer loop
vertex -70.8480767339054 -128.388583609755 -6.43072468840029
vertex -70.8480767339054 -120.870185534966 -6.43072468840029
vertex -70.6092719034731 -121.093850666428 -6.43072468840029
endloop
endfacet
facet normal -0.0 -0.0 -1.0
outer loop
vertex -70.8480767339054 -128.388583609755 -6.43072468840029
vertex -70.6092719034731 -121.093850666428 -6.43072468840029
vertex -70.6092719034731 -128.164918478293 -6.43072468840029
endloop
endfacet
facet normal -0.0 -0.0 -1.0
outer loop
vertex -70.6092719034731 -128.164918478293 -6.43072468840029
vertex -70.6092719034731 -121.093850666428 -6.43072468840029
vertex -70.3856067720109 -121.33265549686 -6.43072468840029
endloop
endfacet
facet normal -0.0 -0.0 -1.0
outer loop
vertex -70.6092719034731 -128.164918478293 -6.43072468840029
vertex -70.3856067720109 -121.33265549686 -6.43072468840029
vertex -70.3856067720109 -127.926113647861 -6.43072468840029
endloop
endfacet
facet normal -0.0 -0.0 -1.0
outer loop
vertex -70.3856067720109 -127.926113647861 -6.43072468840029
vertex -70.3856067720109 -121.33265549686 -6.43072468840029
vertex -70.1780391079496 -121.585577427317 -6.43072468840029
endloop
endfacet
facet normal -0.0 -0.0 -1.0
outer loop
vertex -70.3856067720109 -127.926113647861 -6.43072468840029
vertex -70.1780391079496 -121.585577427317 -6.43072468840029
vertex -70.1780391079496 -127.673191717404 -6.43072468840029
endloop
endfacet
facet normal -0.0 -0.0 -1.0
outer loop
vertex -70.1780391079496 -127.673191717404 -6.43072468840029
vertex -70.1780391079496 -121.585577427317 -6.43072468840029
vertex -69.9874577478931 -121.851533407262 -6.43072468840029
endloop
endfacet
facet normal -0.0 -0.0 -1.0
outer loop
vertex -70.1780391079496 -127.673191717404 -6.43072468840029
vertex -69.9874577478931 -121.851533407262 -6.43072468840029
vertex -69.9874577478931 -127.407235737458 -6.43072468840029
endloop
endfacet
facet normal -0.0 -0.0 -1.0
outer loop
vertex -69.9874577478931 -127.407235737458 -6.43072468840029
vertex -69.9874577478931 -121.851533407262 -6.43072468840029
vertex -69.8146787904836 -122.12938457236 -6.43072468840029
endloop
endfacet
facet normal -0.0 -0.0 -1.0
outer loop
vertex -69.9874577478931 -127.407235737458 -6.43072468840029
vertex -69.8146787904836 -122.12938457236 -6.43072468840029
vertex -69.8146787904836 -127.12938457236 -6.43072468840029
endloop
endfacet
facet normal -0.0 -0.0 -1.0
outer loop
vertex -69.8146787904836 -127.12938457236 -6.43072468840029
vertex -69.8146787904836 -122.12938457236 -6.43072468840029
vertex -69.6604421017424 -122.417941121265 -6.43072468840029
endloop
endfacet
facet normal -0.0 -0.0 -1.0
outer loop
vertex -69.8146787904836 -127.12938457236 -6.43072468840029
vertex -69.6604421017424 -122.417941121265 -6.43072468840029
vertex -69.6604421017424 -126.840828023455 -6.43072468840029
endloop
endfacet
facet normal -0.0 -0.0 -1.0
outer loop
vertex -69.6604421017424 -126.840828023455 -6.43072468840029
vertex -69.6604421017424 -122.417941121265 -6.43072468840029
vertex -69.5254081468494 -122.715967410535 -6.43072468840029
endloop
endfacet
facet normal -0.0 -0.0 -1.0
outer loop
vertex -69.6604421017424 -126.840828023455 -6.43072468840029
vertex -69.5254081468494 -122.715967410535 -6.43072468840029
vertex -69.5254081468494 -126.542801734186 -6.43072468840029
endloop
endfacet
facet normal -0.0 -0.0 -1.0
outer loop
vertex -69.5254081468494 -126.542801734186 -6.43072468840029
vertex -69.5254081468494 -122.715967410535 -6.43072468840029
vertex -69.4101551619303 -123.022187245845 -6.43072468840029
endloop
endfacet
facet normal -0.0 -0.0 -1.0
outer loop
vertex -69.5254081468494 -126.542801734186 -6.43072468840029
vertex -69.4101551619303 -123.022187245845 -6.43072468840029
vertex -69.4101551619303 -126.236581898876 -6.43072468840029
endloop
endfacet
facet normal -0.0 -0.0 -1.0
outer loop
vertex -69.4101551619303 -126.236581898876 -6.43072468840029
vertex -69.4101551619303 -123.022187245845 -6.43072468840029
vertex -69.3151766779605 -125.923479797873 -6.43072468840029
endloop
endfacet
facet normal -0.0 -0.0 -1.0
outer loop
vertex -69.3151766779605 -125.923479797873 -6.43072468840029
vertex -69.4101551619303 -123.022187245845 -6.43072468840029
vertex -69.3151766779605 -123.335289346848 -6.43072468840029
endloop
endfacet
facet normal -0.0 -0.0 -1.0
outer loop
vertex -69.3151766779605 -125.923479797873 -6.43072468840029
vertex -69.3151766779605 -123.335289346848 -6.43072468840029
vertex -69.2408794073896 -123.65393296228 -6.43072468840029
endloop
endfacet
facet normal -0.0 -0.0 -1.0
outer loop
vertex -69.3151766779605 -125.923479797873 -6.43072468840029
vertex -69.2408794073896 -123.65393296228 -6.43072468840029
vertex -69.2408794073896 -125.604836182441 -6.43072468840029
endloop
endfacet
facet normal -0.0 -0.0 -1.0
outer loop
vertex -69.2408794073896 -125.604836182441 -6.43072468840029
vertex -69.2408794073896 -123.65393296228 -6.43072468840029
vertex -69.1875815025367 -123.97675361126 -6.43072468840029
endloop
endfacet
facet normal -0.0 -0.0 -1.0
outer loop
vertex -69.2408794073896 -125.604836182441 -6.43072468840029
vertex -69.1875815025367 -123.97675361126 -6.43072468840029
vertex -69.1875815025367 -125.282015533461 -6.43072468840029
endloop
endfacet
facet normal -0.0 -0.0 -1.0
outer loop
vertex -69.1875815025367 -125.282015533461 -6.43072468840029
vertex -69.1875815025367 -123.97675361126 -6.43072468840029
vertex -69.1555111932128 -124.30236892621 -6.43072468840029
endloop
endfacet
facet normal -0.0 -0.0 -1.0
outer loop
vertex -69.1875815025367 -125.282015533461 -6.43072468840029
vertex -69.1555111932128 -124.30236892621 -6.43072468840029
vertex -69.1555111932128 -124.956400218511 -6.43072468840029
endloop
endfacet
facet normal -0.0 -0.0 -1.0
outer loop
vertex -69.1555111932128 -124.956400218511 -6.43072468840029
vertex -69.1555111932128 -124.30236892621 -6.43072468840029
vertex -69.1448058094058 -124.62938457236 -6.43072468840029
endloop
endfacet
facet normal -0.896872741532691 0.442288690218996 0.0
outer loop
vertex -78.6291695170692 -122.417941121265 -4.43072468840029
vertex -78.7642034719622 -122.715967410535 -6.43072468840029
vertex -78.7642034719622 -122.715967410535 -4.43072468840029
endloop
endfacet
facet normal -0.923879532511285 0.382683432365093 0.0
outer loop
vertex -78.7642034719622 -122.715967410535 -6.43072468840029
vertex -78.6291695170692 -122.417941121265 -4.43072468840029
vertex -78.6291695170692 -122.417941121265 -6.43072468840029
endloop
endfacet
facet normal -1.0 0.0 0.0
outer loop
vertex -79.1448058094058 -124.62938457236 -4.43072468840029
vertex -79.1341004255988 -124.956400218511 -6.43072468840029
vertex -79.1341004255988 -124.956400218511 -4.43072468840029
endloop
endfacet
facet normal -0.997858923238604 -0.0654031292301414 0.0
outer loop
vertex -79.1341004255988 -124.956400218511 -6.43072468840029
vertex -79.1448058094058 -124.62938457236 -4.43072468840029
vertex -79.1448058094058 -124.62938457236 -6.43072468840029
endloop
endfacet
facet normal -0.659345815100079 0.751839807478969 0.0
outer loop
vertex -77.4415348849061 -120.870185534966 -4.43072468840029
vertex -77.1886129544494 -120.662617870904 -6.43072468840029
vertex -77.4415348849061 -120.870185534966 -6.43072468840029
endloop
endfacet
facet normal -0.608761429008722 0.793353340291234 0.0
outer loop
vertex -77.1886129544494 -120.662617870904 -6.43072468840029
vertex -77.4415348849061 -120.870185534966 -4.43072468840029
vertex -77.1886129544494 -120.662617870904 -4.43072468840029
endloop
endfacet
facet normal -0.3826834323651 0.923879532511283 0.0
outer loop
vertex -76.0582229712312 -120.009986909804 -4.43072468840029
vertex -75.7520031359216 -119.894733924885 -6.43072468840029
vertex -76.0582229712312 -120.009986909804 -6.43072468840029
endloop
endfacet
facet normal -0.321439465303141 0.946930129495113 0.0
outer loop
vertex -75.7520031359216 -119.894733924885 -6.43072468840029
vertex -76.0582229712312 -120.009986909804 -4.43072468840029
vertex -75.7520031359216 -119.894733924885 -4.43072468840029
endloop
endfacet
facet normal -0.608761429008722 0.793353340291234 0.0
outer loop
vertex -77.1886129544494 -120.662617870904 -4.43072468840029
vertex -76.9226569745038 -120.472036510848 -6.43072468840029
vertex -77.1886129544494 -120.662617870904 -6.43072468840029
endloop
endfacet
facet normal -0.555570233019592 0.831469612302552 0.0
outer loop
vertex -76.9226569745038 -120.472036510848 -6.43072468840029
vertex -77.1886129544494 -120.662617870904 -4.43072468840029
vertex -76.9226569745038 -120.472036510848 -4.43072468840029
endloop
endfacet
facet normal 0.0 0.0 1.0
outer loop
vertex -79.1341004255988 -124.956400218511 -4.43072468840029
vertex -79.1341004255988 -124.30236892621 -4.43072468840029
vertex -79.1448058094058 -124.62938457236 -4.43072468840029
endloop
endfacet
facet normal 0.0 0.0 1.0
outer loop
vertex -79.1341004255988 -124.30236892621 -4.43072468840029
vertex -79.1341004255988 -124.956400218511 -4.43072468840029
vertex -79.1020301162748 -125.282015533461 -4.43072468840029
endloop
endfacet
facet normal 0.0 0.0 1.0
outer loop
vertex -79.1341004255988 -124.30236892621 -4.43072468840029
vertex -79.1020301162748 -125.282015533461 -4.43072468840029
vertex -79.1020301162748 -123.97675361126 -4.43072468840029
endloop
endfacet
facet normal 0.0 0.0 1.0
outer loop
vertex -79.1020301162748 -123.97675361126 -4.43072468840029
vertex -79.1020301162748 -125.282015533461 -4.43072468840029
vertex -79.048732211422 -125.604836182441 -4.43072468840029
endloop
endfacet
facet normal 0.0 0.0 1.0
outer loop
vertex -79.1020301162748 -123.97675361126 -4.43072468840029
vertex -79.048732211422 -125.604836182441 -4.43072468840029
vertex -79.048732211422 -123.65393296228 -4.43072468840029
endloop
endfacet
facet normal 0.0 0.0 1.0
outer loop
vertex -79.048732211422 -123.65393296228 -4.43072468840029
vertex -79.048732211422 -125.604836182441 -4.43072468840029
vertex -78.9744349408511 -125.923479797873 -4.43072468840029
endloop
endfacet
facet normal 0.0 0.0 1.0
outer loop
vertex -79.048732211422 -123.65393296228 -4.43072468840029
vertex -78.9744349408511 -125.923479797873 -4.43072468840029
vertex -78.9744349408511 -123.335289346848 -4.43072468840029
endloop
endfacet
facet normal 0.0 0.0 1.0
outer loop
vertex -78.9744349408511 -123.335289346848 -4.43072468840029
vertex -78.9744349408511 -125.923479797873 -4.43072468840029
vertex -78.8794564568813 -126.236581898876 -4.43072468840029
endloop
endfacet
facet normal 0.0 0.0 1.0
outer loop
vertex -78.9744349408511 -123.335289346848 -4.43072468840029
vertex -78.8794564568813 -126.236581898876 -4.43072468840029
vertex -78.8794564568813 -123.022187245845 -4.43072468840029
endloop
endfacet
facet normal 0.0 0.0 1.0
outer loop
vertex -78.8794564568813 -123.022187245845 -4.43072468840029
vertex -78.8794564568813 -126.236581898876 -4.43072468840029
vertex -78.7642034719622 -126.542801734186 -4.43072468840029
endloop
endfacet
facet normal 0.0 0.0 1.0
outer loop
vertex -78.8794564568813 -123.022187245845 -4.43072468840029
vertex -78.7642034719622 -126.542801734186 -4.43072468840029
vertex -78.7642034719622 -122.715967410535 -4.43072468840029
endloop
endfacet
facet normal 0.0 0.0 1.0
outer loop
vertex -78.7642034719622 -122.715967410535 -4.43072468840029
vertex -78.7642034719622 -126.542801734186 -4.43072468840029
vertex -78.6291695170692 -126.840828023455 -4.43072468840029
endloop
endfacet
facet normal 0.0 0.0 1.0
outer loop
vertex -78.7642034719622 -122.715967410535 -4.43072468840029
vertex -78.6291695170692 -126.840828023455 -4.43072468840029
vertex -78.6291695170692 -122.417941121265 -4.43072468840029
endloop
endfacet
facet normal 0.0 0.0 1.0
outer loop
vertex -78.6291695170692 -122.417941121265 -4.43072468840029
vertex -78.6291695170692 -126.840828023455 -4.43072468840029
vertex -78.474932828328 -127.12938457236 -4.43072468840029
endloop
endfacet
facet normal 0.0 0.0 1.0
outer loop
vertex -78.6291695170692 -122.417941121265 -4.43072468840029
vertex -78.474932828328 -127.12938457236 -4.43072468840029
vertex -78.474932828328 -122.12938457236 -4.43072468840029
endloop
endfacet
facet normal 0.0 0.0 1.0
outer loop
vertex -78.474932828328 -122.12938457236 -4.43072468840029
vertex -78.474932828328 -127.12938457236 -4.43072468840029
vertex -78.3021538709185 -127.407235737458 -4.43072468840029
endloop
endfacet
facet normal 0.0 0.0 1.0
outer loop
vertex -78.474932828328 -122.12938457236 -4.43072468840029
vertex -78.3021538709185 -127.407235737458 -4.43072468840029
vertex -78.3021538709185 -121.851533407262 -4.43072468840029
endloop
endfacet
facet normal 0.0 0.0 1.0
outer loop
vertex -78.3021538709185 -121.851533407262 -4.43072468840029
vertex -78.3021538709185 -127.407235737458 -4.43072468840029
vertex -78.111572510862 -127.673191717404 -4.43072468840029
endloop
endfacet
facet normal 0.0 0.0 1.0
outer loop
vertex -78.3021538709185 -121.851533407262 -4.43072468840029
vertex -78.111572510862 -127.673191717404 -4.43072468840029
vertex -78.111572510862 -121.585577427317 -4.43072468840029
endloop
endfacet
facet normal 0.0 0.0 1.0
outer loop
vertex -78.111572510862 -121.585577427317 -4.43072468840029
vertex -78.111572510862 -127.673191717404 -4.43072468840029
vertex -77.9040048468007 -127.926113647861 -4.43072468840029
endloop
endfacet
facet normal 0.0 0.0 1.0
outer loop
vertex -78.111572510862 -121.585577427317 -4.43072468840029
vertex -77.9040048468007 -127.926113647861 -4.43072468840029
vertex -77.9040048468007 -121.33265549686 -4.43072468840029
endloop
endfacet
facet normal 0.0 0.0 1.0
outer loop
vertex -77.9040048468007 -121.33265549686 -4.43072468840029
vertex -77.9040048468007 -127.926113647861 -4.43072468840029
vertex -77.6803397153385 -128.164918478293 -4.43072468840029
endloop
endfacet
facet normal 0.0 0.0 1.0
outer loop
vertex -77.9040048468007 -121.33265549686 -4.43072468840029
vertex -77.6803397153385 -128.164918478293 -4.43072468840029
vertex -77.6803397153385 -121.093850666428 -4.43072468840029
endloop
endfacet
facet normal 0.0 0.0 1.0
outer loop
vertex -77.6803397153385 -121.093850666428 -4.43072468840029
vertex -77.6803397153385 -128.164918478293 -4.43072468840029
vertex -77.4415348849061 -128.388583609755 -4.43072468840029
endloop
endfacet
facet normal 0.0 0.0 1.0
outer loop
vertex -77.6803397153385 -121.093850666428 -4.43072468840029
vertex -77.4415348849061 -128.388583609755 -4.43072468840029
vertex -77.4415348849061 -120.870185534966 -4.43072468840029
endloop
endfacet
facet normal 0.0 0.0 1.0
outer loop
vertex -77.4415348849061 -120.870185534966 -4.43072468840029
vertex -77.4415348849061 -128.388583609755 -4.43072468840029
vertex -77.1886129544494 -128.596151273817 -4.43072468840029
endloop
endfacet
facet normal 0.0 0.0 1.0
outer loop
vertex -77.4415348849061 -120.870185534966 -4.43072468840029
vertex -77.1886129544494 -128.596151273817 -4.43072468840029
vertex -77.1886129544494 -120.662617870904 -4.43072468840029
endloop
endfacet
facet normal 0.0 0.0 1.0
outer loop
vertex -77.1886129544494 -120.662617870904 -4.43072468840029
vertex -77.1886129544494 -128.596151273817 -4.43072468840029
vertex -76.9226569745038 -128.786732633873 -4.43072468840029
endloop
endfacet
facet normal 0.0 0.0 1.0
outer loop
vertex -77.1886129544494 -120.662617870904 -4.43072468840029
vertex -76.9226569745038 -128.786732633873 -4.43072468840029
vertex -76.9226569745038 -120.472036510848 -4.43072468840029
endloop
endfacet
facet normal 0.0 0.0 1.0
outer loop
vertex -76.9226569745038 -120.472036510848 -4.43072468840029
vertex -76.9226569745038 -128.786732633873 -4.43072468840029
vertex -76.6448058094058 -128.959511591283 -4.43072468840029
endloop
endfacet
facet normal 0.0 0.0 1.0
outer loop
vertex -76.9226569745038 -120.472036510848 -4.43072468840029
vertex -76.6448058094058 -128.959511591283 -4.43072468840029
vertex -76.6448058094058 -120.299257553438 -4.43072468840029
endloop
endfacet
facet normal 0.0 0.0 1.0
outer loop
vertex -76.6448058094058 -120.299257553438 -4.43072468840029
vertex -76.6448058094058 -128.959511591283 -4.43072468840029
vertex -76.3562492605008 -129.113748280024 -4.43072468840029
endloop
endfacet
facet normal 0.0 0.0 1.0
outer loop
vertex -76.6448058094058 -120.299257553438 -4.43072468840029
vertex -76.3562492605008 -129.113748280024 -4.43072468840029
vertex -76.3562492605008 -120.145020864697 -4.43072468840029
endloop
endfacet
facet normal 0.0 0.0 1.0
outer loop
vertex -76.3562492605008 -120.145020864697 -4.43072468840029
vertex -76.3562492605008 -129.113748280024 -4.43072468840029
vertex -76.0582229712312 -129.248782234917 -4.43072468840029
endloop
endfacet
facet normal 0.0 0.0 1.0
outer loop
vertex -76.3562492605008 -120.145020864697 -4.43072468840029
vertex -76.0582229712312 -129.248782234917 -4.43072468840029
vertex -76.0582229712312 -120.009986909804 -4.43072468840029
endloop
endfacet
facet normal 0.0 0.0 1.0
outer loop
vertex -76.0582229712312 -120.009986909804 -4.43072468840029
vertex -76.0582229712312 -129.248782234917 -4.43072468840029
vertex -75.7520031359216 -129.364035219836 -4.43072468840029
endloop
endfacet
facet normal 0.0 0.0 1.0
outer loop
vertex -76.0582229712312 -120.009986909804 -4.43072468840029
vertex -75.7520031359216 -129.364035219836 -4.43072468840029
vertex -75.7520031359216 -119.894733924885 -4.43072468840029
endloop
endfacet
facet normal 0.0 0.0 1.0
outer loop
vertex -75.7520031359216 -119.894733924885 -4.43072468840029
vertex -75.7520031359216 -129.364035219836 -4.43072468840029
vertex -75.4389010349184 -129.459013703806 -4.43072468840029
endloop
endfacet
facet normal 0.0 0.0 1.0
outer loop
vertex -75.7520031359216 -119.894733924885 -4.43072468840029
vertex -75.4389010349184 -129.459013703806 -4.43072468840029
vertex -75.4389010349184 -119.799755440915 -4.43072468840029
endloop
endfacet
facet normal 0.0 0.0 1.0
outer loop
vertex -75.4389010349184 -119.799755440915 -4.43072468840029
vertex -75.4389010349184 -129.459013703806 -4.43072468840029
vertex -75.1202574194864 -129.533310974377 -4.43072468840029
endloop
endfacet
facet normal 0.0 0.0 1.0
outer loop
vertex -75.4389010349184 -119.799755440915 -4.43072468840029
vertex -75.1202574194864 -129.533310974377 -4.43072468840029
vertex -75.1202574194864 -119.725458170344 -4.43072468840029
endloop
endfacet
facet normal 0.0 0.0 1.0
outer loop
vertex -75.1202574194864 -119.725458170344 -4.43072468840029
vertex -75.1202574194864 -129.533310974377 -4.43072468840029
vertex -74.7974367705061 -129.586608879229 -4.43072468840029
endloop
endfacet
facet normal 0.0 0.0 1.0
outer loop
vertex -75.1202574194864 -119.725458170344 -4.43072468840029
vertex -74.7974367705061 -129.586608879229 -4.43072468840029
vertex -74.7974367705061 -119.672160265491 -4.43072468840029
endloop
endfacet
facet normal 0.0 0.0 1.0
outer loop
vertex -74.7974367705061 -119.672160265491 -4.43072468840029
vertex -74.7974367705061 -129.586608879229 -4.43072468840029
vertex -74.4718214555565 -129.618679188553 -4.43072468840029
endloop
endfacet
facet normal 0.0 0.0 1.0
outer loop
vertex -74.7974367705061 -119.672160265491 -4.43072468840029
vertex -74.4718214555565 -129.618679188553 -4.43072468840029
vertex -74.4718214555565 -119.640089956167 -4.43072468840029
endloop
endfacet
facet normal 0.0 0.0 1.0
outer loop
vertex -74.4718214555565 -119.640089956167 -4.43072468840029
vertex -74.4718214555565 -129.618679188553 -4.43072468840029
vertex -74.1448058094058 -129.62938457236 -4.43072468840029
endloop
endfacet
facet normal 0.0 0.0 1.0
outer loop
vertex -74.4718214555565 -119.640089956167 -4.43072468840029
vertex -74.1448058094058 -129.62938457236 -4.43072468840029
vertex -74.1448058094058 -119.62938457236 -4.43072468840029
endloop
endfacet
facet normal 0.0 0.0 1.0
outer loop
vertex -74.1448058094058 -119.62938457236 -4.43072468840029
vertex -74.1448058094058 -129.62938457236 -4.43072468840029
vertex -73.8177901632551 -129.618679188553 -4.43072468840029
endloop
endfacet
facet normal 0.0 0.0 1.0
outer loop
vertex -74.1448058094058 -119.62938457236 -4.43072468840029
vertex -73.8177901632551 -129.618679188553 -4.43072468840029
vertex -73.8177901632551 -119.640089956167 -4.43072468840029
endloop
endfacet
facet normal 0.0 0.0 1.0
outer loop
vertex -73.8177901632551 -119.640089956167 -4.43072468840029
vertex -73.8177901632551 -129.618679188553 -4.43072468840029
vertex -73.4921748483055 -129.586608879229 -4.43072468840029
endloop
endfacet
facet normal 0.0 0.0 1.0
outer loop
vertex -73.8177901632551 -119.640089956167 -4.43072468840029
vertex -73.4921748483055 -129.586608879229 -4.43072468840029
vertex -73.4921748483055 -119.672160265491 -4.43072468840029
endloop
endfacet
facet normal 0.0 0.0 1.0
outer loop
vertex -73.4921748483055 -119.672160265491 -4.43072468840029
vertex -73.4921748483055 -129.586608879229 -4.43072468840029
vertex -73.1693541993252 -129.533310974377 -4.43072468840029
endloop
endfacet
facet normal 0.0 0.0 1.0
outer loop
vertex -73.4921748483055 -119.672160265491 -4.43072468840029
vertex -73.1693541993252 -129.533310974377 -4.43072468840029
vertex -73.1693541993251 -119.725458170344 -4.43072468840029
endloop
endfacet
facet normal 0.0 0.0 1.0
outer loop
vertex -73.1693541993251 -119.725458170344 -4.43072468840029
vertex -73.1693541993252 -129.533310974377 -4.43072468840029
vertex -72.8507105838932 -129.459013703806 -4.43072468840029
endloop
endfacet
facet normal 0.0 0.0 1.0
outer loop
vertex -73.1693541993251 -119.725458170344 -4.43072468840029
vertex -72.8507105838932 -129.459013703806 -4.43072468840029
vertex -72.8507105838932 -119.799755440915 -4.43072468840029
endloop
endfacet
facet normal 0.0 0.0 1.0
outer loop
vertex -72.8507105838932 -119.799755440915 -4.43072468840029
vertex -72.8507105838932 -129.459013703806 -4.43072468840029
vertex -72.53760848289 -129.364035219836 -4.43072468840029
endloop
endfacet
facet normal 0.0 0.0 1.0
outer loop
vertex -72.8507105838932 -119.799755440915 -4.43072468840029
vertex -72.53760848289 -129.364035219836 -4.43072468840029
vertex -72.53760848289 -119.894733924885 -4.43072468840029
endloop
endfacet
facet normal 0.0 0.0 1.0
outer loop
vertex -72.53760848289 -119.894733924885 -4.43072468840029
vertex -72.53760848289 -129.364035219836 -4.43072468840029
vertex -72.2313886475803 -129.248782234917 -4.43072468840029
endloop
endfacet
facet normal 0.0 0.0 1.0
outer loop
vertex -72.53760848289 -119.894733924885 -4.43072468840029
vertex -72.2313886475803 -129.248782234917 -4.43072468840029
vertex -72.2313886475803 -120.009986909804 -4.43072468840029
endloop
endfacet
facet normal 0.0 0.0 1.0
outer loop
vertex -72.2313886475803 -120.009986909804 -4.43072468840029
vertex -72.2313886475803 -129.248782234917 -4.43072468840029
vertex -71.9333623583108 -129.113748280024 -4.43072468840029
endloop
endfacet
facet normal 0.0 0.0 1.0
outer loop
vertex -72.2313886475803 -120.009986909804 -4.43072468840029
vertex -71.9333623583108 -129.113748280024 -4.43072468840029
vertex -71.9333623583108 -120.145020864697 -4.43072468840029
endloop
endfacet
facet normal 0.0 0.0 1.0
outer loop
vertex -71.9333623583108 -120.145020864697 -4.43072468840029
vertex -71.9333623583108 -129.113748280024 -4.43072468840029
vertex -71.6448058094058 -128.959511591283 -4.43072468840029
endloop
endfacet
facet normal 0.0 0.0 1.0
outer loop
vertex -71.9333623583108 -120.145020864697 -4.43072468840029
vertex -71.6448058094058 -128.959511591283 -4.43072468840029
vertex -71.6448058094058 -120.299257553438 -4.43072468840029
endloop
endfacet
facet normal 0.0 0.0 1.0
outer loop
vertex -71.6448058094058 -120.299257553438 -4.43072468840029
vertex -71.6448058094058 -128.959511591283 -4.43072468840029
vertex -71.3669546443078 -128.786732633873 -4.43072468840029
endloop
endfacet
facet normal 0.0 0.0 1.0
outer loop
vertex -71.6448058094058 -120.299257553438 -4.43072468840029
vertex -71.3669546443078 -128.786732633873 -4.43072468840029
vertex -71.3669546443078 -120.472036510848 -4.43072468840029
endloop
endfacet
facet normal 0.0 0.0 1.0
outer loop
vertex -71.3669546443078 -120.472036510848 -4.43072468840029
vertex -71.3669546443078 -128.786732633873 -4.43072468840029
vertex -71.1009986643622 -128.596151273817 -4.43072468840029
endloop
endfacet
facet normal 0.0 0.0 1.0
outer loop
vertex -71.3669546443078 -120.472036510848 -4.43072468840029
vertex -71.1009986643622 -128.596151273817 -4.43072468840029
vertex -71.1009986643622 -120.662617870904 -4.43072468840029
endloop
endfacet
facet normal 0.0 0.0 1.0
outer loop
vertex -71.1009986643622 -120.662617870904 -4.43072468840029
vertex -71.1009986643622 -128.596151273817 -4.43072468840029
vertex -70.8480767339054 -128.388583609755 -4.43072468840029
endloop
endfacet
facet normal 0.0 0.0 1.0
outer loop
vertex -71.1009986643622 -120.662617870904 -4.43072468840029
vertex -70.8480767339054 -128.388583609755 -4.43072468840029
vertex -70.8480767339054 -120.870185534966 -4.43072468840029
endloop
endfacet
facet normal 0.0 0.0 1.0
outer loop
vertex -70.8480767339054 -120.870185534966 -4.43072468840029
vertex -70.8480767339054 -128.388583609755 -4.43072468840029
vertex -70.6092719034731 -128.164918478293 -4.43072468840029
endloop
endfacet
facet normal 0.0 0.0 1.0
outer loop
vertex -70.8480767339054 -120.870185534966 -4.43072468840029
vertex -70.6092719034731 -128.164918478293 -4.43072468840029
vertex -70.6092719034731 -121.093850666428 -4.43072468840029
endloop
endfacet
facet normal 0.0 0.0 1.0
outer loop
vertex -70.6092719034731 -121.093850666428 -4.43072468840029
vertex -70.6092719034731 -128.164918478293 -4.43072468840029
vertex -70.3856067720109 -127.926113647861 -4.43072468840029
endloop
endfacet
facet normal 0.0 0.0 1.0
outer loop
vertex -70.6092719034731 -121.093850666428 -4.43072468840029
vertex -70.3856067720109 -127.926113647861 -4.43072468840029
vertex -70.3856067720109 -121.33265549686 -4.43072468840029
endloop
endfacet
facet normal 0.0 0.0 1.0
outer loop
vertex -70.3856067720109 -121.33265549686 -4.43072468840029
vertex -70.3856067720109 -127.926113647861 -4.43072468840029
vertex -70.1780391079496 -127.673191717404 -4.43072468840029
endloop
endfacet
facet normal 0.0 0.0 1.0
outer loop
vertex -70.3856067720109 -121.33265549686 -4.43072468840029
vertex -70.1780391079496 -127.673191717404 -4.43072468840029
vertex -70.1780391079496 -121.585577427317 -4.43072468840029
endloop
endfacet
facet normal 0.0 0.0 1.0
outer loop
vertex -70.1780391079496 -121.585577427317 -4.43072468840029
vertex -70.1780391079496 -127.673191717404 -4.43072468840029
vertex -69.9874577478931 -127.407235737458 -4.43072468840029
endloop
endfacet
facet normal 0.0 0.0 1.0
outer loop
vertex -70.1780391079496 -121.585577427317 -4.43072468840029
vertex -69.9874577478931 -127.407235737458 -4.43072468840029
vertex -69.9874577478931 -121.851533407262 -4.43072468840029
endloop
endfacet
facet normal 0.0 0.0 1.0
outer loop
vertex -69.9874577478931 -121.851533407262 -4.43072468840029
vertex -69.9874577478931 -127.407235737458 -4.43072468840029
vertex -69.8146787904836 -127.12938457236 -4.43072468840029
endloop
endfacet
facet normal 0.0 0.0 1.0
outer loop
vertex -69.9874577478931 -121.851533407262 -4.43072468840029
vertex -69.8146787904836 -127.12938457236 -4.43072468840029
vertex -69.8146787904836 -122.12938457236 -4.43072468840029
endloop
endfacet
facet normal 0.0 0.0 1.0
outer loop
vertex -69.8146787904836 -122.12938457236 -4.43072468840029
vertex -69.8146787904836 -127.12938457236 -4.43072468840029
vertex -69.6604421017424 -126.840828023455 -4.43072468840029
endloop
endfacet
facet normal 0.0 0.0 1.0
outer loop
vertex -69.8146787904836 -122.12938457236 -4.43072468840029
vertex -69.6604421017424 -126.840828023455 -4.43072468840029
vertex -69.6604421017424 -122.417941121265 -4.43072468840029
endloop
endfacet
facet normal 0.0 0.0 1.0
outer loop
vertex -69.6604421017424 -122.417941121265 -4.43072468840029
vertex -69.6604421017424 -126.840828023455 -4.43072468840029
vertex -69.5254081468494 -126.542801734186 -4.43072468840029
endloop
endfacet
facet normal 0.0 0.0 1.0
outer loop
vertex -69.6604421017424 -122.417941121265 -4.43072468840029
vertex -69.5254081468494 -126.542801734186 -4.43072468840029
vertex -69.5254081468494 -122.715967410535 -4.43072468840029
endloop
endfacet
facet normal 0.0 0.0 1.0
outer loop
vertex -69.5254081468494 -122.715967410535 -4.43072468840029
vertex -69.5254081468494 -126.542801734186 -4.43072468840029
vertex -69.4101551619303 -126.236581898876 -4.43072468840029
endloop
endfacet
facet normal 0.0 0.0 1.0
outer loop
vertex -69.5254081468494 -122.715967410535 -4.43072468840029
vertex -69.4101551619303 -126.236581898876 -4.43072468840029
vertex -69.4101551619303 -123.022187245845 -4.43072468840029
endloop
endfacet
facet normal 0.0 0.0 1.0
outer loop
vertex -69.4101551619303 -123.022187245845 -4.43072468840029
vertex -69.4101551619303 -126.236581898876 -4.43072468840029
vertex -69.3151766779605 -125.923479797873 -4.43072468840029
endloop
endfacet
facet normal 0.0 0.0 1.0
outer loop
vertex -69.4101551619303 -123.022187245845 -4.43072468840029
vertex -69.3151766779605 -125.923479797873 -4.43072468840029
vertex -69.3151766779605 -123.335289346848 -4.43072468840029
endloop
endfacet
facet normal 0.0 0.0 1.0
outer loop
vertex -69.3151766779605 -123.335289346848 -4.43072468840029
vertex -69.3151766779605 -125.923479797873 -4.43072468840029
vertex -69.2408794073896 -125.604836182441 -4.43072468840029
endloop
endfacet
facet normal 0.0 0.0 1.0
outer loop
vertex -69.3151766779605 -123.335289346848 -4.43072468840029
vertex -69.2408794073896 -125.604836182441 -4.43072468840029
vertex -69.2408794073896 -123.65393296228 -4.43072468840029
endloop
endfacet
facet normal 0.0 0.0 1.0
outer loop
vertex -69.2408794073896 -123.65393296228 -4.43072468840029
vertex -69.2408794073896 -125.604836182441 -4.43072468840029
vertex -69.1875815025367 -125.282015533461 -4.43072468840029
endloop
endfacet
facet normal 0.0 0.0 1.0
outer loop
vertex -69.2408794073896 -123.65393296228 -4.43072468840029
vertex -69.1875815025367 -125.282015533461 -4.43072468840029
vertex -69.1875815025367 -123.97675361126 -4.43072468840029
endloop
endfacet
facet normal 0.0 0.0 1.0
outer loop
vertex -69.1875815025367 -123.97675361126 -4.43072468840029
vertex -69.1875815025367 -125.282015533461 -4.43072468840029
vertex -69.1555111932128 -124.956400218511 -4.43072468840029
endloop
endfacet
facet normal 0.0 0.0 1.0
outer loop
vertex -69.1875815025367 -123.97675361126 -4.43072468840029
vertex -69.1555111932128 -124.956400218511 -4.43072468840029
vertex -69.1555111932128 -124.30236892621 -4.43072468840029
endloop
endfacet
facet normal 0.0 0.0 1.0
outer loop
vertex -69.1555111932128 -124.30236892621 -4.43072468840029
vertex -69.1555111932128 -124.956400218511 -4.43072468840029
vertex -69.1448058094058 -124.62938457236 -4.43072468840029
endloop
endfacet
facet normal -0.923879532511285 0.382683432365093 0.0
outer loop
vertex -78.7642034719622 -122.715967410535 -4.43072468840029
vertex -78.8794564568813 -123.022187245845 -6.43072468840029
vertex -78.8794564568813 -123.022187245845 -4.43072468840029
endloop
endfacet
facet normal -0.946930129495107 0.321439465303157 0.0
outer loop
vertex -78.8794564568813 -123.022187245845 -6.43072468840029
vertex -78.7642034719622 -122.715967410535 -4.43072468840029
vertex -78.7642034719622 -122.715967410535 -6.43072468840029
endloop
endfacet
facet normal -0.965925826289068 0.258819045102522 0.0
outer loop
vertex -78.9744349408511 -123.335289346848 -4.43072468840029
vertex -79.048732211422 -123.65393296228 -6.43072468840029
vertex -79.048732211422 -123.65393296228 -4.43072468840029
endloop
endfacet
facet normal -0.980785280403229 0.195090322016134 0.0
outer loop
vertex -79.048732211422 -123.65393296228 -6.43072468840029
vertex -78.9744349408511 -123.335289346848 -4.43072468840029
vertex -78.9744349408511 -123.335289346848 -6.43072468840029
endloop
endfacet
facet normal -0.258819045102524 0.965925826289067 0.0
outer loop
vertex -75.4389010349184 -119.799755440915 -4.43072468840029
vertex -75.1202574194864 -119.725458170344 -6.43072468840029
vertex -75.4389010349184 -119.799755440915 -6.43072468840029
endloop
endfacet
facet normal -0.19509032201614 0.980785280403228 0.0
outer loop
vertex -75.1202574194864 -119.725458170344 -6.43072468840029
vertex -75.4389010349184 -119.799755440915 -4.43072468840029
vertex -75.1202574194864 -119.725458170344 -4.43072468840029
endloop
endfacet
facet normal 0.0654031292301401 0.997858923238604 0.0
outer loop
vertex -73.8177901632551 -119.640089956167 -4.43072468840029
vertex -73.4921748483055 -119.672160265491 -6.43072468840029
vertex -73.8177901632551 -119.640089956167 -6.43072468840029
endloop
endfacet
facet normal 0.130526192220028 0.991444861373813 0.0
outer loop
vertex -73.4921748483055 -119.672160265491 -6.43072468840029
vertex -73.8177901632551 -119.640089956167 -4.43072468840029
vertex -73.4921748483055 -119.672160265491 -4.43072468840029
endloop
endfacet
facet normal 0.130526192220028 0.991444861373813 0.0
outer loop
vertex -73.4921748483055 -119.672160265491 -4.43072468840029
vertex -73.1693541993251 -119.725458170344 -6.43072468840029
vertex -73.4921748483055 -119.672160265491 -6.43072468840029
endloop
endfacet
facet normal 0.19509032201614 0.980785280403228 0.0
outer loop
vertex -73.1693541993251 -119.725458170344 -6.43072468840029
vertex -73.4921748483055 -119.672160265491 -4.43072468840029
vertex -73.1693541993251 -119.725458170344 -4.43072468840029
endloop
endfacet
facet normal 0.19509032201614 0.980785280403228 0.0
outer loop
vertex -73.1693541993251 -119.725458170344 -4.43072468840029
vertex -72.8507105838932 -119.799755440915 -6.43072468840029
vertex -73.1693541993251 -119.725458170344 -6.43072468840029
endloop
endfacet
facet normal 0.258819045102528 0.965925826289066 0.0
outer loop
vertex -72.8507105838932 -119.799755440915 -6.43072468840029
vertex -73.1693541993251 -119.725458170344 -4.43072468840029
vertex -72.8507105838932 -119.799755440915 -4.43072468840029
endloop
endfacet
facet normal -0.946930129495107 0.321439465303157 0.0
outer loop
vertex -78.8794564568813 -123.022187245845 -4.43072468840029
vertex -78.9744349408511 -123.335289346848 -6.43072468840029
vertex -78.9744349408511 -123.335289346848 -4.43072468840029
endloop
endfacet
facet normal -0.965925826289068 0.258819045102522 0.0
outer loop
vertex -78.9744349408511 -123.335289346848 -6.43072468840029
vertex -78.8794564568813 -123.022187245845 -4.43072468840029
vertex -78.8794564568813 -123.022187245845 -6.43072468840029
endloop
endfacet
facet normal -0.707106781186555 0.70710678118654 0.0
outer loop
vertex -77.6803397153385 -121.093850666428 -4.43072468840029
vertex -77.9040048468007 -121.33265549686 -6.43072468840029
vertex -77.9040048468007 -121.33265549686 -4.43072468840029
endloop
endfacet
facet normal -0.751839807478975 0.659345815100071 0.0
outer loop
vertex -77.9040048468007 -121.33265549686 -6.43072468840029
vertex -77.6803397153385 -121.093850666428 -4.43072468840029
vertex -77.6803397153385 -121.093850666428 -6.43072468840029
endloop
endfacet
facet normal -0.555570233019592 0.831469612302552 0.0
outer loop
vertex -76.9226569745038 -120.472036510848 -4.43072468840029
vertex -76.6448058094058 -120.299257553438 -6.43072468840029
vertex -76.9226569745038 -120.472036510848 -6.43072468840029
endloop
endfacet
facet normal -0.499999999999983 0.866025403784449 0.0
outer loop
vertex -76.6448058094058 -120.299257553438 -6.43072468840029
vertex -76.9226569745038 -120.472036510848 -4.43072468840029
vertex -76.6448058094058 -120.299257553438 -4.43072468840029
endloop
endfacet
facet normal 0.258819045102528 0.965925826289066 0.0
outer loop
vertex -72.8507105838932 -119.799755440915 -4.43072468840029
vertex -72.53760848289 -119.894733924885 -6.43072468840029
vertex -72.8507105838932 -119.799755440915 -6.43072468840029
endloop
endfacet
facet normal 0.321439465303165 0.946930129495105 0.0
outer loop
vertex -72.53760848289 -119.894733924885 -6.43072468840029
vertex -72.8507105838932 -119.799755440915 -4.43072468840029
vertex -72.53760848289 -119.894733924885 -4.43072468840029
endloop
endfacet
facet normal -0.831469612302541 0.555570233019609 0.0
outer loop
vertex -78.3021538709185 -121.851533407262 -4.43072468840029
vertex -78.474932828328 -122.12938457236 -6.43072468840029
vertex -78.474932828328 -122.12938457236 -4.43072468840029
endloop
endfacet
facet normal -0.866025403784446 0.499999999999987 0.0
outer loop
vertex -78.474932828328 -122.12938457236 -6.43072468840029
vertex -78.3021538709185 -121.851533407262 -4.43072468840029
vertex -78.3021538709185 -121.851533407262 -6.43072468840029
endloop
endfacet
facet normal -0.997858923238604 0.0654031292301414 0.0
outer loop
vertex -79.1341004255988 -124.30236892621 -4.43072468840029
vertex -79.1448058094058 -124.62938457236 -6.43072468840029
vertex -79.1448058094058 -124.62938457236 -4.43072468840029
endloop
endfacet
facet normal -1.0 0.0 0.0
outer loop
vertex -79.1448058094058 -124.62938457236 -6.43072468840029
vertex -79.1341004255988 -124.30236892621 -4.43072468840029
vertex -79.1341004255988 -124.30236892621 -6.43072468840029
endloop
endfacet
facet normal -0.0654031292301406 0.997858923238604 0.0
outer loop
vertex -74.4718214555565 -119.640089956167 -4.43072468840029
vertex -74.1448058094058 -119.62938457236 -6.43072468840029
vertex -74.4718214555565 -119.640089956167 -6.43072468840029
endloop
endfacet
facet normal -4.50819954523555e-016 1.0 0.0
outer loop
vertex -74.1448058094058 -119.62938457236 -6.43072468840029
vertex -74.4718214555565 -119.640089956167 -4.43072468840029
vertex -74.1448058094058 -119.62938457236 -4.43072468840029
endloop
endfacet
facet normal -0.99144486137381 0.130526192220056 0.0
outer loop
vertex -79.1020301162748 -123.97675361126 -4.43072468840029
vertex -79.1341004255988 -124.30236892621 -6.43072468840029
vertex -79.1341004255988 -124.30236892621 -4.43072468840029
endloop
endfacet
facet normal -0.997858923238604 0.0654031292301414 0.0
outer loop
vertex -79.1341004255988 -124.30236892621 -6.43072468840029
vertex -79.1020301162748 -123.97675361126 -4.43072468840029
vertex -79.1020301162748 -123.97675361126 -6.43072468840029
endloop
endfacet
facet normal -0.793353340291229 0.608761429008729 0.0
outer loop
vertex -78.111572510862 -121.585577427317 -4.43072468840029
vertex -78.3021538709185 -121.851533407262 -6.43072468840029
vertex -78.3021538709185 -121.851533407262 -4.43072468840029
endloop
endfacet
facet normal -0.831469612302541 0.555570233019609 0.0
outer loop
vertex -78.3021538709185 -121.851533407262 -6.43072468840029
vertex -78.111572510862 -121.585577427317 -4.43072468840029
vertex -78.111572510862 -121.585577427317 -6.43072468840029
endloop
endfacet
facet normal -0.751839807478975 0.659345815100071 0.0
outer loop
vertex -77.9040048468007 -121.33265549686 -4.43072468840029
vertex -78.111572510862 -121.585577427317 -6.43072468840029
vertex -78.111572510862 -121.585577427317 -4.43072468840029
endloop
endfacet
facet normal -0.793353340291229 0.608761429008729 0.0
outer loop
vertex -78.111572510862 -121.585577427317 -6.43072468840029
vertex -77.9040048468007 -121.33265549686 -4.43072468840029
vertex -77.9040048468007 -121.33265549686 -6.43072468840029
endloop
endfacet
facet normal -0.499999999999983 0.866025403784449 0.0
outer loop
vertex -76.6448058094058 -120.299257553438 -4.43072468840029
vertex -76.3562492605008 -120.145020864697 -6.43072468840029
vertex -76.6448058094058 -120.299257553438 -6.43072468840029
endloop
endfacet
facet normal -0.442288690219008 0.896872741532685 0.0
outer loop
vertex -76.3562492605008 -120.145020864697 -6.43072468840029
vertex -76.6448058094058 -120.299257553438 -4.43072468840029
vertex -76.3562492605008 -120.145020864697 -4.43072468840029
endloop
endfacet
facet normal -0.707106781186555 0.70710678118654 0.0
outer loop
vertex -77.6803397153385 -121.093850666428 -4.43072468840029
vertex -77.4415348849061 -120.870185534966 -6.43072468840029
vertex -77.6803397153385 -121.093850666428 -6.43072468840029
endloop
endfacet
facet normal -0.659345815100079 0.751839807478969 0.0
outer loop
vertex -77.4415348849061 -120.870185534966 -6.43072468840029
vertex -77.6803397153385 -121.093850666428 -4.43072468840029
vertex -77.4415348849061 -120.870185534966 -4.43072468840029
endloop
endfacet
facet normal -0.980785280403229 0.195090322016134 0.0
outer loop
vertex -79.048732211422 -123.65393296228 -4.43072468840029
vertex -79.1020301162748 -123.97675361126 -6.43072468840029
vertex -79.1020301162748 -123.97675361126 -4.43072468840029
endloop
endfacet
facet normal -0.99144486137381 0.130526192220056 0.0
outer loop
vertex -79.1020301162748 -123.97675361126 -6.43072468840029
vertex -79.048732211422 -123.65393296228 -4.43072468840029
vertex -79.048732211422 -123.65393296228 -6.43072468840029
endloop
endfacet
facet normal -0.866025403784446 0.499999999999987 0.0
outer loop
vertex -78.474932828328 -122.12938457236 -4.43072468840029
vertex -78.6291695170692 -122.417941121265 -6.43072468840029
vertex -78.6291695170692 -122.417941121265 -4.43072468840029
endloop
endfacet
facet normal -0.896872741532691 0.442288690218996 0.0
outer loop
vertex -78.6291695170692 -122.417941121265 -6.43072468840029
vertex -78.474932828328 -122.12938457236 -4.43072468840029
vertex -78.474932828328 -122.12938457236 -6.43072468840029
endloop
endfacet
facet normal -0.442288690219008 0.896872741532685 0.0
outer loop
vertex -76.3562492605008 -120.145020864697 -4.43072468840029
vertex -76.0582229712312 -120.009986909804 -6.43072468840029
vertex -76.3562492605008 -120.145020864697 -6.43072468840029
endloop
endfacet
facet normal -0.3826834323651 0.923879532511283 0.0
outer loop
vertex -76.0582229712312 -120.009986909804 -6.43072468840029
vertex -76.3562492605008 -120.145020864697 -4.43072468840029
vertex -76.0582229712312 -120.009986909804 -4.43072468840029
endloop
endfacet
facet normal -0.130526192220028 0.991444861373813 0.0
outer loop
vertex -74.7974367705061 -119.672160265491 -4.43072468840029
vertex -74.4718214555565 -119.640089956167 -6.43072468840029
vertex -74.7974367705061 -119.672160265491 -6.43072468840029
endloop
endfacet
facet normal -0.0654031292301406 0.997858923238604 0.0
outer loop
vertex -74.4718214555565 -119.640089956167 -6.43072468840029
vertex -74.7974367705061 -119.672160265491 -4.43072468840029
vertex -74.4718214555565 -119.640089956167 -4.43072468840029
endloop
endfacet
facet normal -4.50819954523555e-016 1.0 0.0
outer loop
vertex -74.1448058094058 -119.62938457236 -4.43072468840029
vertex -73.8177901632551 -119.640089956167 -6.43072468840029
vertex -74.1448058094058 -119.62938457236 -6.43072468840029
endloop
endfacet
facet normal 0.0654031292301401 0.997858923238604 0.0
outer loop
vertex -73.8177901632551 -119.640089956167 -6.43072468840029
vertex -74.1448058094058 -119.62938457236 -4.43072468840029
vertex -73.8177901632551 -119.640089956167 -4.43072468840029
endloop
endfacet
facet normal -0.321439465303141 0.946930129495113 0.0
outer loop
vertex -75.7520031359216 -119.894733924885 -4.43072468840029
vertex -75.4389010349184 -119.799755440915 -6.43072468840029
vertex -75.7520031359216 -119.894733924885 -6.43072468840029
endloop
endfacet
facet normal -0.258819045102524 0.965925826289067 0.0
outer loop
vertex -75.4389010349184 -119.799755440915 -6.43072468840029
vertex -75.7520031359216 -119.894733924885 -4.43072468840029
vertex -75.4389010349184 -119.799755440915 -4.43072468840029
endloop
endfacet
facet normal -0.19509032201614 0.980785280403228 0.0
outer loop
vertex -75.1202574194864 -119.725458170344 -4.43072468840029
vertex -74.7974367705061 -119.672160265491 -6.43072468840029
vertex -75.1202574194864 -119.725458170344 -6.43072468840029
endloop
endfacet
facet normal -0.130526192220028 0.991444861373813 0.0
outer loop
vertex -74.7974367705061 -119.672160265491 -6.43072468840029
vertex -75.1202574194864 -119.725458170344 -4.43072468840029
vertex -74.7974367705061 -119.672160265491 -4.43072468840029
endloop
endfacet
facet normal 0.321439465303165 0.946930129495105 0.0
outer loop
vertex -72.53760848289 -119.894733924885 -4.43072468840029
vertex -72.2313886475803 -120.009986909804 -6.43072468840029
vertex -72.53760848289 -119.894733924885 -6.43072468840029
endloop
endfacet
facet normal 0.382683432365101 0.923879532511282 0.0
outer loop
vertex -72.2313886475803 -120.009986909804 -6.43072468840029
vertex -72.53760848289 -119.894733924885 -4.43072468840029
vertex -72.2313886475803 -120.009986909804 -4.43072468840029
endloop
endfacet
facet normal 0.382683432365101 0.923879532511282 0.0
outer loop
vertex -72.2313886475803 -120.009986909804 -4.43072468840029
vertex -71.9333623583108 -120.145020864697 -6.43072468840029
vertex -72.2313886475803 -120.009986909804 -6.43072468840029
endloop
endfacet
facet normal 0.44228869021899 0.896872741532694 0.0
outer loop
vertex -71.9333623583108 -120.145020864697 -6.43072468840029
vertex -72.2313886475803 -120.009986909804 -4.43072468840029
vertex -71.9333623583108 -120.145020864697 -4.43072468840029
endloop
endfacet
facet normal 0.44228869021899 0.896872741532694 0.0
outer loop
vertex -71.9333623583108 -120.145020864697 -4.43072468840029
vertex -71.6448058094058 -120.299257553438 -6.43072468840029
vertex -71.9333623583108 -120.145020864697 -6.43072468840029
endloop
endfacet
facet normal 0.500000000000003 0.866025403784437 0.0
outer loop
vertex -71.6448058094058 -120.299257553438 -6.43072468840029
vertex -71.9333623583108 -120.145020864697 -4.43072468840029
vertex -71.6448058094058 -120.299257553438 -4.43072468840029
endloop
endfacet
endsolid joint5
