solid socket_enkoder
facet normal -6.01592849610218e-016 1 0.0
outer loop
vertex -4.12500000000001 7.14470958122162 14.3
vertex 4.12499999999998 7.14470958122162 0.0
vertex -4.12500000000001 7.14470958122162 0.0
endloop
endfacet
facet normal -6.01592849610218e-016 1 0.0
outer loop
vertex 4.12499999999998 7.14470958122162 0.0
vertex -4.12500000000001 7.14470958122162 14.3
vertex 4.12499999999998 7.14470958122162 14.3
endloop
endfacet
facet normal 0.866025403784438 0.5 0.0
outer loop
vertex 4.12499999999998 7.14470958122162 0.0
vertex 8.24999999999999 -1.12798659301916e-015 14.3
vertex 8.24999999999999 -1.12798659301916e-015 0.0
endloop
endfacet
facet normal 0.866025403784438 0.5 0.0
outer loop
vertex 8.24999999999999 -1.12798659301916e-015 14.3
vertex 4.12499999999998 7.14470958122162 0.0
vertex 4.12499999999998 7.14470958122162 14.3
endloop
endfacet
facet normal -0.866025403784439 0.5 0.0
outer loop
vertex -4.12500000000001 7.14470958122162 14.3
vertex -8.25000000000001 -2.25597318603832e-015 0.0
vertex -8.25000000000001 -2.25597318603832e-015 14.3
endloop
endfacet
facet normal -0.866025403784439 0.5 0.0
outer loop
vertex -8.25000000000001 -2.25597318603832e-015 0.0
vertex -4.12500000000001 7.14470958122162 14.3
vertex -4.12500000000001 7.14470958122162 0.0
endloop
endfacet
facet normal -0.866025403784438 -0.5 0.0
outer loop
vertex -8.25000000000001 -2.25597318603832e-015 14.3
vertex -4.125 -7.14470958122162 0.0
vertex -4.125 -7.14470958122162 14.3
endloop
endfacet
facet normal -0.866025403784438 -0.5 0.0
outer loop
vertex -4.125 -7.14470958122162 0.0
vertex -8.25000000000001 -2.25597318603832e-015 14.3
vertex -8.25000000000001 -2.25597318603832e-015 0.0
endloop
endfacet
facet normal 1.50398212402555e-016 -1 0.0
outer loop
vertex 4.12499999999999 -7.14470958122162 14.3
vertex -4.125 -7.14470958122162 0.0
vertex 4.12499999999999 -7.14470958122162 0.0
endloop
endfacet
facet normal 1.50398212402555e-016 -1 0.0
outer loop
vertex -4.125 -7.14470958122162 0.0
vertex 4.12499999999999 -7.14470958122162 14.3
vertex -4.125 -7.14470958122162 14.3
endloop
endfacet
facet normal 0.866025403784439 -0.5 0.0
outer loop
vertex 8.24999999999999 -1.12798659301916e-015 0.0
vertex 4.12499999999999 -7.14470958122162 14.3
vertex 4.12499999999999 -7.14470958122162 0.0
endloop
endfacet
facet normal 0.866025403784439 -0.5 0.0
outer loop
vertex 4.12499999999999 -7.14470958122162 14.3
vertex 8.24999999999999 -1.12798659301916e-015 0.0
vertex 8.24999999999999 -1.12798659301916e-015 14.3
endloop
endfacet
facet normal 0.0 0.0 -1
outer loop
vertex -4.12500000000001 7.14470958122162 0.0
vertex -6.60000000000001 -2.25597318603832e-015 0.0
vertex -8.25000000000001 -2.25597318603832e-015 0.0
endloop
endfacet
facet normal 0.0 0.0 -1
outer loop
vertex -6.60000000000001 -2.25597318603832e-015 0.0
vertex -4.12500000000001 7.14470958122162 0.0
vertex -3.30000000000001 5.71576766497729 0.0
endloop
endfacet
facet normal 0.0 0.0 -1
outer loop
vertex -3.30000000000001 5.71576766497729 0.0
vertex -4.12500000000001 7.14470958122162 0.0
vertex 4.12499999999998 7.14470958122162 0.0
endloop
endfacet
facet normal 0.0 0.0 -1
outer loop
vertex -3.30000000000001 5.71576766497729 0.0
vertex 4.12499999999998 7.14470958122162 0.0
vertex 3.29999999999999 5.7157676649773 0.0
endloop
endfacet
facet normal 0.0 0.0 -1
outer loop
vertex 3.29999999999999 5.7157676649773 0.0
vertex 4.12499999999998 7.14470958122162 0.0
vertex 6.6 -1.12798659301916e-015 0.0
endloop
endfacet
facet normal 0.0 0.0 -1
outer loop
vertex 6.6 -1.12798659301916e-015 0.0
vertex 4.12499999999998 7.14470958122162 0.0
vertex 8.24999999999999 -1.12798659301916e-015 0.0
endloop
endfacet
facet normal 0.0 0.0 -1
outer loop
vertex -6.60000000000001 -2.25597318603832e-015 0.0
vertex -4.125 -7.14470958122162 0.0
vertex -8.25000000000001 -2.25597318603832e-015 0.0
endloop
endfacet
facet normal 0.0 0.0 -1
outer loop
vertex -4.125 -7.14470958122162 0.0
vertex -6.60000000000001 -2.25597318603832e-015 0.0
vertex -3.30000000000001 -5.7157676649773 0.0
endloop
endfacet
facet normal 0.0 0.0 -1
outer loop
vertex -4.125 -7.14470958122162 0.0
vertex -3.30000000000001 -5.7157676649773 0.0
vertex 4.12499999999999 -7.14470958122162 0.0
endloop
endfacet
facet normal 0.0 0.0 -1
outer loop
vertex 4.12499999999999 -7.14470958122162 0.0
vertex -3.30000000000001 -5.7157676649773 0.0
vertex 3.29999999999999 -5.7157676649773 0.0
endloop
endfacet
facet normal 0.0 0.0 -1
outer loop
vertex 4.12499999999999 -7.14470958122162 0.0
vertex 3.29999999999999 -5.7157676649773 0.0
vertex 6.6 -1.12798659301916e-015 0.0
endloop
endfacet
facet normal 0.0 0.0 -1
outer loop
vertex 4.12499999999999 -7.14470958122162 0.0
vertex 6.6 -1.12798659301916e-015 0.0
vertex 8.24999999999999 -1.12798659301916e-015 0.0
endloop
endfacet
facet normal -0.866025403784439 0.5 0.0
outer loop
vertex 6.6 -1.12798659301916e-015 5.50000000000004
vertex 3.29999999999999 -5.7157676649773 0.0
vertex 3.29999999999999 -5.7157676649773 5.50000000000004
endloop
endfacet
facet normal -0.866025403784439 0.5 0.0
outer loop
vertex 3.29999999999999 -5.7157676649773 0.0
vertex 6.6 -1.12798659301916e-015 5.50000000000004
vertex 6.6 -1.12798659301916e-015 0.0
endloop
endfacet
facet normal 0.0 0.0 1
outer loop
vertex -4.125 -7.14470958122162 14.3
vertex -4.95000000000001 -1.12798659301916e-015 14.3
vertex -8.25000000000001 -2.25597318603832e-015 14.3
endloop
endfacet
facet normal 0.0 0.0 1
outer loop
vertex -4.95000000000001 -1.12798659301916e-015 14.3
vertex -4.125 -7.14470958122162 14.3
vertex -2.47500000000001 -4.28682574873297 14.3
endloop
endfacet
facet normal 0.0 0.0 1
outer loop
vertex -2.47500000000001 -4.28682574873297 14.3
vertex -4.125 -7.14470958122162 14.3
vertex 4.12499999999999 -7.14470958122162 14.3
endloop
endfacet
facet normal 0.0 0.0 1
outer loop
vertex -2.47500000000001 -4.28682574873297 14.3
vertex 4.12499999999999 -7.14470958122162 14.3
vertex 2.47499999999999 -4.28682574873297 14.3
endloop
endfacet
facet normal 0.0 0.0 1
outer loop
vertex 2.47499999999999 -4.28682574873297 14.3
vertex 4.12499999999999 -7.14470958122162 14.3
vertex 4.94999999999999 -1.12798659301916e-015 14.3
endloop
endfacet
facet normal 0.0 0.0 1
outer loop
vertex 4.94999999999999 -1.12798659301916e-015 14.3
vertex 4.12499999999999 -7.14470958122162 14.3
vertex 8.24999999999999 -1.12798659301916e-015 14.3
endloop
endfacet
facet normal 0.0 0.0 1
outer loop
vertex -4.95000000000001 -1.12798659301916e-015 14.3
vertex -4.12500000000001 7.14470958122162 14.3
vertex -8.25000000000001 -2.25597318603832e-015 14.3
endloop
endfacet
facet normal 0.0 0.0 1
outer loop
vertex -4.12500000000001 7.14470958122162 14.3
vertex -4.95000000000001 -1.12798659301916e-015 14.3
vertex -2.475 4.28682574873297 14.3
endloop
endfacet
facet normal 0.0 0.0 1
outer loop
vertex -4.12500000000001 7.14470958122162 14.3
vertex -2.475 4.28682574873297 14.3
vertex 4.12499999999998 7.14470958122162 14.3
endloop
endfacet
facet normal 0.0 0.0 1
outer loop
vertex 4.12499999999998 7.14470958122162 14.3
vertex -2.475 4.28682574873297 14.3
vertex 2.47499999999999 4.28682574873297 14.3
endloop
endfacet
facet normal 0.0 0.0 1
outer loop
vertex 4.12499999999998 7.14470958122162 14.3
vertex 2.47499999999999 4.28682574873297 14.3
vertex 4.94999999999999 -1.12798659301916e-015 14.3
endloop
endfacet
facet normal 0.0 0.0 1
outer loop
vertex 4.12499999999998 7.14470958122162 14.3
vertex 4.94999999999999 -1.12798659301916e-015 14.3
vertex 8.24999999999999 -1.12798659301916e-015 14.3
endloop
endfacet
facet normal 0.0 0.0 -1
outer loop
vertex -3.30000000000001 5.71576766497729 5.50000000000004
vertex -3.52000000000001 -2.25597318603832e-015 5.50000000000004
vertex -6.60000000000001 -2.25597318603832e-015 5.50000000000004
endloop
endfacet
facet normal 0.0 0.0 -1
outer loop
vertex -3.52000000000001 -2.25597318603832e-015 5.50000000000004
vertex -3.30000000000001 5.71576766497729 5.50000000000004
vertex -3.40005890853753 0.91104303876087 5.50000000000004
endloop
endfacet
facet normal 0.0 0.0 -1
outer loop
vertex -3.40005890853753 0.91104303876087 5.50000000000004
vertex -3.30000000000001 5.71576766497729 5.50000000000004
vertex -3.04840942132123 1.76 5.50000000000004
endloop
endfacet
facet normal 0.0 0.0 -1
outer loop
vertex -3.04840942132123 1.76 5.50000000000004
vertex -3.30000000000001 5.71576766497729 5.50000000000004
vertex -2.48901586977666 2.48901586977665 5.50000000000004
endloop
endfacet
facet normal 0.0 0.0 -1
outer loop
vertex -2.48901586977666 2.48901586977665 5.50000000000004
vertex -3.30000000000001 5.71576766497729 5.50000000000004
vertex -1.76000000000001 3.04840942132122 5.50000000000004
endloop
endfacet
facet normal 0.0 0.0 -1
outer loop
vertex -1.76000000000001 3.04840942132122 5.50000000000004
vertex -3.30000000000001 5.71576766497729 5.50000000000004
vertex 3.29999999999999 5.7157676649773 5.50000000000004
endloop
endfacet
facet normal 0.0 0.0 -1
outer loop
vertex -1.76000000000001 3.04840942132122 5.50000000000004
vertex 3.29999999999999 5.7157676649773 5.50000000000004
vertex -0.911043038760883 3.40005890853752 5.50000000000004
endloop
endfacet
facet normal 0.0 0.0 -1
outer loop
vertex -0.911043038760883 3.40005890853752 5.50000000000004
vertex 3.29999999999999 5.7157676649773 5.50000000000004
vertex -6.76791955811495e-015 3.52 5.50000000000004
endloop
endfacet
facet normal 0.0 0.0 -1
outer loop
vertex -6.76791955811495e-015 3.52 5.50000000000004
vertex 3.29999999999999 5.7157676649773 5.50000000000004
vertex 0.911043038760866 3.40005890853752 5.50000000000004
endloop
endfacet
facet normal 0.0 0.0 -1
outer loop
vertex 0.911043038760866 3.40005890853752 5.50000000000004
vertex 3.29999999999999 5.7157676649773 5.50000000000004
vertex 1.75999999999999 3.04840942132122 5.50000000000004
endloop
endfacet
facet normal 0.0 0.0 -1
outer loop
vertex 1.75999999999999 3.04840942132122 5.50000000000004
vertex 3.29999999999999 5.7157676649773 5.50000000000004
vertex 2.48901586977664 2.48901586977665 5.50000000000004
endloop
endfacet
facet normal 0.0 0.0 -1
outer loop
vertex 2.48901586977664 2.48901586977665 5.50000000000004
vertex 3.29999999999999 5.7157676649773 5.50000000000004
vertex 3.04840942132122 1.76 5.50000000000004
endloop
endfacet
facet normal 0.0 0.0 -1
outer loop
vertex 3.04840942132122 1.76 5.50000000000004
vertex 3.29999999999999 5.7157676649773 5.50000000000004
vertex 3.40005890853752 0.911043038760873 5.50000000000004
endloop
endfacet
facet normal 0.0 0.0 -1
outer loop
vertex 3.40005890853752 0.911043038760873 5.50000000000004
vertex 3.29999999999999 5.7157676649773 5.50000000000004
vertex 6.6 -1.12798659301916e-015 5.50000000000004
endloop
endfacet
facet normal 0.0 0.0 -1
outer loop
vertex 3.40005890853752 0.911043038760873 5.50000000000004
vertex 6.6 -1.12798659301916e-015 5.50000000000004
vertex 3.51999999999999 -1.12798659301916e-015 5.50000000000004
endloop
endfacet
facet normal 0.0 0.0 -1
outer loop
vertex -3.52000000000001 -2.25597318603832e-015 5.50000000000004
vertex -3.30000000000001 -5.7157676649773 5.50000000000004
vertex -6.60000000000001 -2.25597318603832e-015 5.50000000000004
endloop
endfacet
facet normal 0.0 0.0 -1
outer loop
vertex -3.30000000000001 -5.7157676649773 5.50000000000004
vertex -3.52000000000001 -2.25597318603832e-015 5.50000000000004
vertex -3.40005890853753 -0.911043038760877 5.50000000000004
endloop
endfacet
facet normal 0.0 0.0 -1
outer loop
vertex -3.30000000000001 -5.7157676649773 5.50000000000004
vertex -3.40005890853753 -0.911043038760877 5.50000000000004
vertex -3.04840942132123 -1.76 5.50000000000004
endloop
endfacet
facet normal 0.0 0.0 -1
outer loop
vertex -3.30000000000001 -5.7157676649773 5.50000000000004
vertex -3.04840942132123 -1.76 5.50000000000004
vertex -2.48901586977665 -2.48901586977665 5.50000000000004
endloop
endfacet
facet normal 0.0 0.0 -1
outer loop
vertex -3.30000000000001 -5.7157676649773 5.50000000000004
vertex -2.48901586977665 -2.48901586977665 5.50000000000004
vertex -1.76000000000001 -3.04840942132123 5.50000000000004
endloop
endfacet
facet normal 0.0 0.0 -1
outer loop
vertex -3.30000000000001 -5.7157676649773 5.50000000000004
vertex -1.76000000000001 -3.04840942132123 5.50000000000004
vertex 3.29999999999999 -5.7157676649773 5.50000000000004
endloop
endfacet
facet normal 0.0 0.0 -1
outer loop
vertex 3.29999999999999 -5.7157676649773 5.50000000000004
vertex -1.76000000000001 -3.04840942132123 5.50000000000004
vertex -0.911043038760879 -3.40005890853752 5.50000000000004
endloop
endfacet
facet normal 0.0 0.0 -1
outer loop
vertex 3.29999999999999 -5.7157676649773 5.50000000000004
vertex -0.911043038760879 -3.40005890853752 5.50000000000004
vertex -6.76791955811495e-015 -3.52 5.50000000000004
endloop
endfacet
facet normal 0.0 0.0 -1
outer loop
vertex 3.29999999999999 -5.7157676649773 5.50000000000004
vertex -6.76791955811495e-015 -3.52 5.50000000000004
vertex 0.911043038760867 -3.40005890853752 5.50000000000004
endloop
endfacet
facet normal 0.0 0.0 -1
outer loop
vertex 3.29999999999999 -5.7157676649773 5.50000000000004
vertex 0.911043038760867 -3.40005890853752 5.50000000000004
vertex 1.75999999999999 -3.04840942132122 5.50000000000004
endloop
endfacet
facet normal 0.0 0.0 -1
outer loop
vertex 3.29999999999999 -5.7157676649773 5.50000000000004
vertex 1.75999999999999 -3.04840942132122 5.50000000000004
vertex 2.48901586977664 -2.48901586977665 5.50000000000004
endloop
endfacet
facet normal 0.0 0.0 -1
outer loop
vertex 3.29999999999999 -5.7157676649773 5.50000000000004
vertex 2.48901586977664 -2.48901586977665 5.50000000000004
vertex 3.04840942132122 -1.76 5.50000000000004
endloop
endfacet
facet normal 0.0 0.0 -1
outer loop
vertex 3.29999999999999 -5.7157676649773 5.50000000000004
vertex 3.04840942132122 -1.76 5.50000000000004
vertex 3.40005890853752 -0.911043038760874 5.50000000000004
endloop
endfacet
facet normal 0.0 0.0 -1
outer loop
vertex 3.29999999999999 -5.7157676649773 5.50000000000004
vertex 3.40005890853752 -0.911043038760874 5.50000000000004
vertex 6.6 -1.12798659301916e-015 5.50000000000004
endloop
endfacet
facet normal 0.0 0.0 -1
outer loop
vertex 6.6 -1.12798659301916e-015 5.50000000000004
vertex 3.40005890853752 -0.911043038760874 5.50000000000004
vertex 3.51999999999999 -1.12798659301916e-015 5.50000000000004
endloop
endfacet
facet normal -0.866025403784438 -0.5 0.0
outer loop
vertex 3.29999999999999 5.7157676649773 5.50000000000004
vertex 6.6 -1.12798659301916e-015 0.0
vertex 6.6 -1.12798659301916e-015 5.50000000000004
endloop
endfacet
facet normal -0.866025403784438 -0.5 0.0
outer loop
vertex 6.6 -1.12798659301916e-015 0.0
vertex 3.29999999999999 5.7157676649773 5.50000000000004
vertex 3.29999999999999 5.7157676649773 0.0
endloop
endfacet
facet normal 0.866025403784438 0.5 0.0
outer loop
vertex -6.60000000000001 -2.25597318603832e-015 0.0
vertex -3.30000000000001 -5.7157676649773 5.50000000000004
vertex -3.30000000000001 -5.7157676649773 0.0
endloop
endfacet
facet normal 0.866025403784438 0.5 0.0
outer loop
vertex -3.30000000000001 -5.7157676649773 5.50000000000004
vertex -6.60000000000001 -2.25597318603832e-015 0.0
vertex -6.60000000000001 -2.25597318603832e-015 5.50000000000004
endloop
endfacet
facet normal 7.51991062012773e-016 -1 0.0
outer loop
vertex 3.29999999999999 5.7157676649773 5.50000000000004
vertex -3.30000000000001 5.71576766497729 0.0
vertex 3.29999999999999 5.7157676649773 0.0
endloop
endfacet
facet normal 7.51991062012773e-016 -1 0.0
outer loop
vertex -3.30000000000001 5.71576766497729 0.0
vertex 3.29999999999999 5.7157676649773 5.50000000000004
vertex -3.30000000000001 5.71576766497729 5.50000000000004
endloop
endfacet
facet normal 0.866025403784439 -0.5 0.0
outer loop
vertex -3.30000000000001 5.71576766497729 0.0
vertex -6.60000000000001 -2.25597318603832e-015 5.50000000000004
vertex -6.60000000000001 -2.25597318603832e-015 0.0
endloop
endfacet
facet normal 0.866025403784439 -0.5 0.0
outer loop
vertex -6.60000000000001 -2.25597318603832e-015 5.50000000000004
vertex -3.30000000000001 5.71576766497729 0.0
vertex -3.30000000000001 5.71576766497729 5.50000000000004
endloop
endfacet
facet normal -1.87997765503193e-016 1 0.0
outer loop
vertex -3.30000000000001 -5.7157676649773 5.50000000000004
vertex 3.29999999999999 -5.7157676649773 0.0
vertex -3.30000000000001 -5.7157676649773 0.0
endloop
endfacet
facet normal -1.87997765503193e-016 1 0.0
outer loop
vertex 3.29999999999999 -5.7157676649773 0.0
vertex -3.30000000000001 -5.7157676649773 5.50000000000004
vertex 3.29999999999999 -5.7157676649773 5.50000000000004
endloop
endfacet
facet normal 0.0 0.0 1
outer loop
vertex -4.95000000000001 -1.12798659301916e-015 19.8
vertex -3.18755522675393 -0.854102848838321 19.8
vertex -3.30000000000001 -1.12798659301916e-015 19.8
endloop
endfacet
facet normal 0.0 0.0 1
outer loop
vertex -3.18755522675393 -0.854102848838321 19.8
vertex -4.95000000000001 -1.12798659301916e-015 19.8
vertex -2.47500000000001 -4.28682574873297 19.8
endloop
endfacet
facet normal 0.0 0.0 1
outer loop
vertex -3.18755522675393 -0.854102848838321 19.8
vertex -2.47500000000001 -4.28682574873297 19.8
vertex -2.85788383248865 -1.65 19.8
endloop
endfacet
facet normal 0.0 0.0 1
outer loop
vertex -2.85788383248865 -1.65 19.8
vertex -2.47500000000001 -4.28682574873297 19.8
vertex -2.43585398910023 -2.2 19.8
endloop
endfacet
facet normal 0.0 0.0 1
outer loop
vertex -2.43585398910023 -2.2 19.8
vertex -2.47500000000001 -4.28682574873297 19.8
vertex 2.47499999999999 -4.28682574873297 19.8
endloop
endfacet
facet normal 0.0 0.0 1
outer loop
vertex -2.43585398910023 -2.2 19.8
vertex 2.47499999999999 -4.28682574873297 19.8
vertex 2.43585398910021 -2.2 19.8
endloop
endfacet
facet normal 0.0 0.0 1
outer loop
vertex 2.43585398910021 -2.2 19.8
vertex 2.47499999999999 -4.28682574873297 19.8
vertex 2.85788383248864 -1.65 19.8
endloop
endfacet
facet normal 0.0 0.0 1
outer loop
vertex 2.85788383248864 -1.65 19.8
vertex 2.47499999999999 -4.28682574873297 19.8
vertex 4.94999999999999 -1.12798659301916e-015 19.8
endloop
endfacet
facet normal 0.0 0.0 1
outer loop
vertex 2.85788383248864 -1.65 19.8
vertex 4.94999999999999 -1.12798659301916e-015 19.8
vertex 3.18755522675392 -0.854102848838321 19.8
endloop
endfacet
facet normal 0.0 0.0 1
outer loop
vertex 3.18755522675392 -0.854102848838321 19.8
vertex 4.94999999999999 -1.12798659301916e-015 19.8
vertex 3.29999999999999 -1.12798659301916e-015 19.8
endloop
endfacet
facet normal 0.0 0.0 1
outer loop
vertex -4.95000000000001 -1.12798659301916e-015 19.8
vertex -3.18755522675393 0.854102848838321 19.8
vertex -2.475 4.28682574873297 19.8
endloop
endfacet
facet normal 0.0 0.0 1
outer loop
vertex -3.18755522675393 0.854102848838321 19.8
vertex -4.95000000000001 -1.12798659301916e-015 19.8
vertex -3.30000000000001 -1.12798659301916e-015 19.8
endloop
endfacet
facet normal 0.0 0.0 1
outer loop
vertex -2.475 4.28682574873297 19.8
vertex -3.18755522675393 0.854102848838321 19.8
vertex -2.85788383248865 1.65 19.8
endloop
endfacet
facet normal 0.0 0.0 1
outer loop
vertex -2.475 4.28682574873297 19.8
vertex -2.85788383248865 1.65 19.8
vertex -2.33345237791561 2.3334523779156 19.8
endloop
endfacet
facet normal 0.0 0.0 1
outer loop
vertex -2.475 4.28682574873297 19.8
vertex -2.33345237791561 2.3334523779156 19.8
vertex -1.65000000000001 2.85788383248865 19.8
endloop
endfacet
facet normal 0.0 0.0 1
outer loop
vertex -2.475 4.28682574873297 19.8
vertex -1.65000000000001 2.85788383248865 19.8
vertex -0.854102848838324 3.18755522675393 19.8
endloop
endfacet
facet normal 0.0 0.0 1
outer loop
vertex -2.475 4.28682574873297 19.8
vertex -0.854102848838324 3.18755522675393 19.8
vertex 2.47499999999999 4.28682574873297 19.8
endloop
endfacet
facet normal 0.0 0.0 1
outer loop
vertex 2.47499999999999 4.28682574873297 19.8
vertex -0.854102848838324 3.18755522675393 19.8
vertex -6.76791955811495e-015 3.3 19.8
endloop
endfacet
facet normal 0.0 0.0 1
outer loop
vertex 2.47499999999999 4.28682574873297 19.8
vertex -6.76791955811495e-015 3.3 19.8
vertex 0.854102848838313 3.18755522675392 19.8
endloop
endfacet
facet normal 0.0 0.0 1
outer loop
vertex 2.47499999999999 4.28682574873297 19.8
vertex 0.854102848838313 3.18755522675392 19.8
vertex 1.64999999999999 2.85788383248865 19.8
endloop
endfacet
facet normal 0.0 0.0 1
outer loop
vertex 2.47499999999999 4.28682574873297 19.8
vertex 1.64999999999999 2.85788383248865 19.8
vertex 2.3334523779156 2.3334523779156 19.8
endloop
endfacet
facet normal 0.0 0.0 1
outer loop
vertex 2.47499999999999 4.28682574873297 19.8
vertex 2.3334523779156 2.3334523779156 19.8
vertex 2.85788383248864 1.65 19.8
endloop
endfacet
facet normal 0.0 0.0 1
outer loop
vertex 2.47499999999999 4.28682574873297 19.8
vertex 2.85788383248864 1.65 19.8
vertex 4.94999999999999 -1.12798659301916e-015 19.8
endloop
endfacet
facet normal 0.0 0.0 1
outer loop
vertex 4.94999999999999 -1.12798659301916e-015 19.8
vertex 2.85788383248864 1.65 19.8
vertex 3.18755522675392 0.854102848838315 19.8
endloop
endfacet
facet normal 0.0 0.0 1
outer loop
vertex 4.94999999999999 -1.12798659301916e-015 19.8
vertex 3.18755522675392 0.854102848838315 19.8
vertex 3.29999999999999 -1.12798659301916e-015 19.8
endloop
endfacet
facet normal 0.866025403784438 -0.5 0.0
outer loop
vertex 4.94999999999999 -1.12798659301916e-015 14.3
vertex 2.47499999999999 -4.28682574873297 19.8
vertex 2.47499999999999 -4.28682574873297 14.3
endloop
endfacet
facet normal 0.866025403784438 -0.5 0.0
outer loop
vertex 2.47499999999999 -4.28682574873297 19.8
vertex 4.94999999999999 -1.12798659301916e-015 14.3
vertex 4.94999999999999 -1.12798659301916e-015 19.8
endloop
endfacet
facet normal 0.866025403784439 0.5 0.0
outer loop
vertex 2.47499999999999 4.28682574873297 14.3
vertex 4.94999999999999 -1.12798659301916e-015 19.8
vertex 4.94999999999999 -1.12798659301916e-015 14.3
endloop
endfacet
facet normal 0.866025403784439 0.5 0.0
outer loop
vertex 4.94999999999999 -1.12798659301916e-015 19.8
vertex 2.47499999999999 4.28682574873297 14.3
vertex 2.47499999999999 4.28682574873297 19.8
endloop
endfacet
facet normal -0.866025403784439 -0.5 0.0
outer loop
vertex -4.95000000000001 -1.12798659301916e-015 19.8
vertex -2.47500000000001 -4.28682574873297 14.3
vertex -2.47500000000001 -4.28682574873297 19.8
endloop
endfacet
facet normal -0.866025403784439 -0.5 0.0
outer loop
vertex -2.47500000000001 -4.28682574873297 14.3
vertex -4.95000000000001 -1.12798659301916e-015 19.8
vertex -4.95000000000001 -1.12798659301916e-015 14.3
endloop
endfacet
facet normal -1.25331843668795e-016 -1 0.0
outer loop
vertex 2.47499999999999 -4.28682574873297 19.8
vertex -2.47500000000001 -4.28682574873297 14.3
vertex 2.47499999999999 -4.28682574873297 14.3
endloop
endfacet
facet normal -1.25331843668795e-016 -1 0.0
outer loop
vertex -2.47500000000001 -4.28682574873297 14.3
vertex 2.47499999999999 -4.28682574873297 19.8
vertex -2.47500000000001 -4.28682574873297 19.8
endloop
endfacet
facet normal -4.9011104426058e-016 -1 0.0
outer loop
vertex -6.76791955811495e-015 3.3 19.8
vertex -0.854102848838324 3.18755522675393 14.3
vertex -6.76791955811495e-015 3.3 14.3
endloop
endfacet
facet normal 0.25881904510252 -0.965925826289068 0.0
outer loop
vertex -0.854102848838324 3.18755522675393 14.3
vertex -6.76791955811495e-015 3.3 19.8
vertex -0.854102848838324 3.18755522675393 19.8
endloop
endfacet
facet normal 0.25881904510252 -0.965925826289068 0.0
outer loop
vertex -0.854102848838324 3.18755522675393 19.8
vertex -1.65000000000001 2.85788383248865 14.3
vertex -0.854102848838324 3.18755522675393 14.3
endloop
endfacet
facet normal 0.499999999999999 -0.866025403784439 0.0
outer loop
vertex -1.65000000000001 2.85788383248865 14.3
vertex -0.854102848838324 3.18755522675393 19.8
vertex -1.65000000000001 2.85788383248865 19.8
endloop
endfacet
facet normal 0.499999999999999 -0.866025403784439 0.0
outer loop
vertex -1.65000000000001 2.85788383248865 19.8
vertex -2.33345237791561 2.3334523779156 14.3
vertex -1.65000000000001 2.85788383248865 14.3
endloop
endfacet
facet normal 0.707106781186547 -0.707106781186548 0.0
outer loop
vertex -2.33345237791561 2.3334523779156 14.3
vertex -1.65000000000001 2.85788383248865 19.8
vertex -2.33345237791561 2.3334523779156 19.8
endloop
endfacet
facet normal 6.26659218343978e-016 1 0.0
outer loop
vertex -2.475 4.28682574873297 19.8
vertex 2.47499999999999 4.28682574873297 14.3
vertex -2.475 4.28682574873297 14.3
endloop
endfacet
facet normal 6.26659218343978e-016 1 0.0
outer loop
vertex 2.47499999999999 4.28682574873297 14.3
vertex -2.475 4.28682574873297 19.8
vertex 2.47499999999999 4.28682574873297 19.8
endloop
endfacet
facet normal -0.866025403784438 0.5 0.0
outer loop
vertex -2.475 4.28682574873297 19.8
vertex -4.95000000000001 -1.12798659301916e-015 14.3
vertex -4.95000000000001 -1.12798659301916e-015 19.8
endloop
endfacet
facet normal -0.866025403784438 0.5 0.0
outer loop
vertex -4.95000000000001 -1.12798659301916e-015 14.3
vertex -2.475 4.28682574873297 19.8
vertex -2.475 4.28682574873297 14.3
endloop
endfacet
facet normal 0.707106781186547 -0.707106781186548 0.0
outer loop
vertex -2.33345237791561 2.3334523779156 14.3
vertex -2.85788383248865 1.65 19.8
vertex -2.85788383248865 1.65 14.3
endloop
endfacet
facet normal 0.866025403784438 -0.5 0.0
outer loop
vertex -2.85788383248865 1.65 19.8
vertex -2.33345237791561 2.3334523779156 14.3
vertex -2.33345237791561 2.3334523779156 19.8
endloop
endfacet
facet normal 0.866025403784438 -0.5 0.0
outer loop
vertex -2.85788383248865 1.65 14.3
vertex -3.18755522675393 0.854102848838321 19.8
vertex -3.18755522675393 0.854102848838321 14.3
endloop
endfacet
facet normal 0.965925826289068 -0.258819045102521 0.0
outer loop
vertex -3.18755522675393 0.854102848838321 19.8
vertex -2.85788383248865 1.65 14.3
vertex -2.85788383248865 1.65 19.8
endloop
endfacet
facet normal 0.965925826289068 -0.258819045102521 0.0
outer loop
vertex -3.18755522675393 0.854102848838321 14.3
vertex -3.30000000000001 -1.12798659301916e-015 19.8
vertex -3.30000000000001 -1.12798659301916e-015 14.3
endloop
endfacet
facet normal 1 -1.51488868225997e-016 0.0
outer loop
vertex -3.30000000000001 -1.12798659301916e-015 19.8
vertex -3.18755522675393 0.854102848838321 14.3
vertex -3.18755522675393 0.854102848838321 19.8
endloop
endfacet
facet normal 1 -1.51488868225997e-016 0.0
outer loop
vertex -3.30000000000001 -1.12798659301916e-015 14.3
vertex -3.18755522675393 -0.854102848838321 19.8
vertex -3.18755522675393 -0.854102848838321 14.3
endloop
endfacet
facet normal 0.965925826289068 0.258819045102521 0.0
outer loop
vertex -3.18755522675393 -0.854102848838321 19.8
vertex -3.30000000000001 -1.12798659301916e-015 14.3
vertex -3.30000000000001 -1.12798659301916e-015 19.8
endloop
endfacet
facet normal 0.866025403784439 0.5 0.0
outer loop
vertex -2.85788383248865 -1.65 14.3
vertex -2.43585398910023 -2.2 19.8
vertex -2.43585398910023 -2.2 14.3
endloop
endfacet
facet normal 0.793353340291236 0.60876142900872 0.0
outer loop
vertex -2.43585398910023 -2.2 19.8
vertex -2.85788383248865 -1.65 14.3
vertex -2.85788383248865 -1.65 19.8
endloop
endfacet
facet normal 0.965925826289068 0.258819045102521 0.0
outer loop
vertex -3.18755522675393 -0.854102848838321 14.3
vertex -2.85788383248865 -1.65 19.8
vertex -2.85788383248865 -1.65 14.3
endloop
endfacet
facet normal 0.866025403784439 0.5 0.0
outer loop
vertex -2.85788383248865 -1.65 19.8
vertex -3.18755522675393 -0.854102848838321 14.3
vertex -3.18755522675393 -0.854102848838321 19.8
endloop
endfacet
facet normal -0.707106781186548 -0.707106781186547 0.0
outer loop
vertex 2.3334523779156 2.3334523779156 19.8
vertex 1.64999999999999 2.85788383248865 14.3
vertex 2.3334523779156 2.3334523779156 14.3
endloop
endfacet
facet normal -0.5 -0.866025403784438 0.0
outer loop
vertex 1.64999999999999 2.85788383248865 14.3
vertex 2.3334523779156 2.3334523779156 19.8
vertex 1.64999999999999 2.85788383248865 19.8
endloop
endfacet
facet normal -0.866025403784438 0.5 0.0
outer loop
vertex 2.85788383248864 -1.65 19.8
vertex 2.43585398910021 -2.2 14.3
vertex 2.43585398910021 -2.2 19.8
endloop
endfacet
facet normal -0.793353340291235 0.608761429008721 0.0
outer loop
vertex 2.43585398910021 -2.2 14.3
vertex 2.85788383248864 -1.65 19.8
vertex 2.85788383248864 -1.65 14.3
endloop
endfacet
facet normal -0.965925826289068 -0.258819045102521 0.0
outer loop
vertex 3.18755522675392 0.854102848838315 19.8
vertex 3.29999999999999 -1.12798659301916e-015 14.3
vertex 3.29999999999999 -1.12798659301916e-015 19.8
endloop
endfacet
facet normal -1 2.5842218697376e-016 0.0
outer loop
vertex 3.29999999999999 -1.12798659301916e-015 14.3
vertex 3.18755522675392 0.854102848838315 19.8
vertex 3.18755522675392 0.854102848838315 14.3
endloop
endfacet
facet normal 0.0 1 0.0
outer loop
vertex -2.43585398910023 -2.2 19.8
vertex 2.43585398910021 -2.2 14.3
vertex -2.43585398910023 -2.2 14.3
endloop
endfacet
facet normal 0.0 1 0.0
outer loop
vertex 2.43585398910021 -2.2 14.3
vertex -2.43585398910023 -2.2 19.8
vertex 2.43585398910021 -2.2 19.8
endloop
endfacet
facet normal -0.965925826289068 0.258819045102521 0.0
outer loop
vertex 3.18755522675392 -0.854102848838321 19.8
vertex 2.85788383248864 -1.65 14.3
vertex 2.85788383248864 -1.65 19.8
endloop
endfacet
facet normal -0.866025403784438 0.5 0.0
outer loop
vertex 2.85788383248864 -1.65 14.3
vertex 3.18755522675392 -0.854102848838321 19.8
vertex 3.18755522675392 -0.854102848838321 14.3
endloop
endfacet
facet normal -0.866025403784439 -0.5 0.0
outer loop
vertex 2.85788383248864 1.65 19.8
vertex 3.18755522675392 0.854102848838315 14.3
vertex 3.18755522675392 0.854102848838315 19.8
endloop
endfacet
facet normal -0.965925826289068 -0.258819045102521 0.0
outer loop
vertex 3.18755522675392 0.854102848838315 14.3
vertex 2.85788383248864 1.65 19.8
vertex 2.85788383248864 1.65 14.3
endloop
endfacet
facet normal 0.0 0.0 1
outer loop
vertex -3.18755522675393 -0.854102848838321 14.3
vertex -3.18755522675393 0.854102848838321 14.3
vertex -3.30000000000001 -1.12798659301916e-015 14.3
endloop
endfacet
facet normal 0.0 0.0 1
outer loop
vertex -3.18755522675393 0.854102848838321 14.3
vertex -3.18755522675393 -0.854102848838321 14.3
vertex -2.85788383248865 -1.65 14.3
endloop
endfacet
facet normal 0.0 0.0 1
outer loop
vertex -3.18755522675393 0.854102848838321 14.3
vertex -2.85788383248865 -1.65 14.3
vertex -2.85788383248865 1.65 14.3
endloop
endfacet
facet normal 0.0 0.0 1
outer loop
vertex -2.85788383248865 1.65 14.3
vertex -2.85788383248865 -1.65 14.3
vertex -2.43585398910023 -2.2 14.3
endloop
endfacet
facet normal 0.0 0.0 1
outer loop
vertex -2.85788383248865 1.65 14.3
vertex -2.43585398910023 -2.2 14.3
vertex -2.33345237791561 2.3334523779156 14.3
endloop
endfacet
facet normal 0.0 0.0 1
outer loop
vertex -2.33345237791561 2.3334523779156 14.3
vertex -2.43585398910023 -2.2 14.3
vertex 2.43585398910021 -2.2 14.3
endloop
endfacet
facet normal 0.0 0.0 1
outer loop
vertex -2.33345237791561 2.3334523779156 14.3
vertex 2.43585398910021 -2.2 14.3
vertex -1.65000000000001 2.85788383248865 14.3
endloop
endfacet
facet normal 0.0 0.0 1
outer loop
vertex -1.65000000000001 2.85788383248865 14.3
vertex 2.43585398910021 -2.2 14.3
vertex -0.854102848838324 3.18755522675393 14.3
endloop
endfacet
facet normal 0.0 0.0 1
outer loop
vertex -0.854102848838324 3.18755522675393 14.3
vertex 2.43585398910021 -2.2 14.3
vertex -6.76791955811495e-015 3.3 14.3
endloop
endfacet
facet normal 0.0 0.0 1
outer loop
vertex -6.76791955811495e-015 3.3 14.3
vertex 2.43585398910021 -2.2 14.3
vertex 0.854102848838313 3.18755522675392 14.3
endloop
endfacet
facet normal 0.0 0.0 1
outer loop
vertex 0.854102848838313 3.18755522675392 14.3
vertex 2.43585398910021 -2.2 14.3
vertex 1.64999999999999 2.85788383248865 14.3
endloop
endfacet
facet normal 0.0 0.0 1
outer loop
vertex 1.64999999999999 2.85788383248865 14.3
vertex 2.43585398910021 -2.2 14.3
vertex 2.3334523779156 2.3334523779156 14.3
endloop
endfacet
facet normal 0.0 0.0 1
outer loop
vertex 2.3334523779156 2.3334523779156 14.3
vertex 2.43585398910021 -2.2 14.3
vertex 2.85788383248864 1.65 14.3
endloop
endfacet
facet normal 0.0 0.0 1
outer loop
vertex 2.85788383248864 1.65 14.3
vertex 2.43585398910021 -2.2 14.3
vertex 2.85788383248864 -1.65 14.3
endloop
endfacet
facet normal 0.0 0.0 1
outer loop
vertex 2.85788383248864 1.65 14.3
vertex 2.85788383248864 -1.65 14.3
vertex 3.18755522675392 -0.854102848838321 14.3
endloop
endfacet
facet normal 0.0 0.0 1
outer loop
vertex 2.85788383248864 1.65 14.3
vertex 3.18755522675392 -0.854102848838321 14.3
vertex 3.18755522675392 0.854102848838315 14.3
endloop
endfacet
facet normal 0.0 0.0 1
outer loop
vertex 3.18755522675392 0.854102848838315 14.3
vertex 3.18755522675392 -0.854102848838321 14.3
vertex 3.29999999999999 -1.12798659301916e-015 14.3
endloop
endfacet
facet normal -0.707106781186548 -0.707106781186547 0.0
outer loop
vertex 2.3334523779156 2.3334523779156 19.8
vertex 2.85788383248864 1.65 14.3
vertex 2.85788383248864 1.65 19.8
endloop
endfacet
facet normal -0.866025403784439 -0.5 0.0
outer loop
vertex 2.85788383248864 1.65 14.3
vertex 2.3334523779156 2.3334523779156 19.8
vertex 2.3334523779156 2.3334523779156 14.3
endloop
endfacet
facet normal -0.258819045102521 -0.965925826289068 0.0
outer loop
vertex 0.854102848838313 3.18755522675392 19.8
vertex -6.76791955811495e-015 3.3 14.3
vertex 0.854102848838313 3.18755522675392 14.3
endloop
endfacet
facet normal -4.9011104426058e-016 -1 0.0
outer loop
vertex -6.76791955811495e-015 3.3 14.3
vertex 0.854102848838313 3.18755522675392 19.8
vertex -6.76791955811495e-015 3.3 19.8
endloop
endfacet
facet normal -1 2.5842218697376e-016 0.0
outer loop
vertex 3.29999999999999 -1.12798659301916e-015 19.8
vertex 3.18755522675392 -0.854102848838321 14.3
vertex 3.18755522675392 -0.854102848838321 19.8
endloop
endfacet
facet normal -0.965925826289068 0.258819045102521 0.0
outer loop
vertex 3.18755522675392 -0.854102848838321 14.3
vertex 3.29999999999999 -1.12798659301916e-015 19.8
vertex 3.29999999999999 -1.12798659301916e-015 14.3
endloop
endfacet
facet normal -0.5 -0.866025403784438 0.0
outer loop
vertex 1.64999999999999 2.85788383248865 19.8
vertex 0.854102848838313 3.18755522675392 14.3
vertex 1.64999999999999 2.85788383248865 14.3
endloop
endfacet
facet normal -0.258819045102521 -0.965925826289068 0.0
outer loop
vertex 0.854102848838313 3.18755522675392 14.3
vertex 1.64999999999999 2.85788383248865 19.8
vertex 0.854102848838313 3.18755522675392 19.8
endloop
endfacet
facet normal 0.0 0.0 -1
outer loop
vertex -3.40005890853753 0.91104303876087 11.55
vertex -3.40005890853753 -0.911043038760877 11.55
vertex -3.52000000000001 -2.25597318603832e-015 11.55
endloop
endfacet
facet normal 0.0 0.0 -1
outer loop
vertex -3.40005890853753 -0.911043038760877 11.55
vertex -3.40005890853753 0.91104303876087 11.55
vertex -3.04840942132123 1.76 11.55
endloop
endfacet
facet normal 0.0 0.0 -1
outer loop
vertex -3.40005890853753 -0.911043038760877 11.55
vertex -3.04840942132123 1.76 11.55
vertex -3.04840942132123 -1.76 11.55
endloop
endfacet
facet normal 0.0 0.0 -1
outer loop
vertex -3.04840942132123 -1.76 11.55
vertex -3.04840942132123 1.76 11.55
vertex -2.48901586977666 2.48901586977665 11.55
endloop
endfacet
facet normal 0.0 0.0 -1
outer loop
vertex -3.04840942132123 -1.76 11.55
vertex -2.48901586977666 2.48901586977665 11.55
vertex -2.48901586977665 -2.48901586977665 11.55
endloop
endfacet
facet normal 0.0 0.0 -1
outer loop
vertex -2.48901586977665 -2.48901586977665 11.55
vertex -2.48901586977666 2.48901586977665 11.55
vertex -1.76000000000001 3.04840942132122 11.55
endloop
endfacet
facet normal 0.0 0.0 -1
outer loop
vertex -2.48901586977665 -2.48901586977665 11.55
vertex -1.76000000000001 3.04840942132122 11.55
vertex -1.76000000000001 -3.04840942132123 11.55
endloop
endfacet
facet normal 0.0 0.0 -1
outer loop
vertex -1.76000000000001 -3.04840942132123 11.55
vertex -1.76000000000001 3.04840942132122 11.55
vertex -0.911043038760883 3.40005890853752 11.55
endloop
endfacet
facet normal 0.0 0.0 -1
outer loop
vertex -1.76000000000001 -3.04840942132123 11.55
vertex -0.911043038760883 3.40005890853752 11.55
vertex -0.911043038760879 -3.40005890853752 11.55
endloop
endfacet
facet normal 0.0 0.0 -1
outer loop
vertex -0.911043038760879 -3.40005890853752 11.55
vertex -0.911043038760883 3.40005890853752 11.55
vertex -6.76791955811495e-015 3.52 11.55
endloop
endfacet
facet normal 0.0 0.0 -1
outer loop
vertex -0.911043038760879 -3.40005890853752 11.55
vertex -6.76791955811495e-015 3.52 11.55
vertex -6.76791955811495e-015 -3.52 11.55
endloop
endfacet
facet normal 0.0 0.0 -1
outer loop
vertex -6.76791955811495e-015 -3.52 11.55
vertex -6.76791955811495e-015 3.52 11.55
vertex 0.911043038760866 3.40005890853752 11.55
endloop
endfacet
facet normal 0.0 0.0 -1
outer loop
vertex -6.76791955811495e-015 -3.52 11.55
vertex 0.911043038760866 3.40005890853752 11.55
vertex 0.911043038760867 -3.40005890853752 11.55
endloop
endfacet
facet normal 0.0 0.0 -1
outer loop
vertex 0.911043038760867 -3.40005890853752 11.55
vertex 0.911043038760866 3.40005890853752 11.55
vertex 1.75999999999999 3.04840942132122 11.55
endloop
endfacet
facet normal 0.0 0.0 -1
outer loop
vertex 0.911043038760867 -3.40005890853752 11.55
vertex 1.75999999999999 3.04840942132122 11.55
vertex 1.75999999999999 -3.04840942132122 11.55
endloop
endfacet
facet normal 0.0 0.0 -1
outer loop
vertex 1.75999999999999 -3.04840942132122 11.55
vertex 1.75999999999999 3.04840942132122 11.55
vertex 2.48901586977664 2.48901586977665 11.55
endloop
endfacet
facet normal 0.0 0.0 -1
outer loop
vertex 1.75999999999999 -3.04840942132122 11.55
vertex 2.48901586977664 2.48901586977665 11.55
vertex 2.48901586977664 -2.48901586977665 11.55
endloop
endfacet
facet normal 0.0 0.0 -1
outer loop
vertex 2.48901586977664 -2.48901586977665 11.55
vertex 2.48901586977664 2.48901586977665 11.55
vertex 3.04840942132122 1.76 11.55
endloop
endfacet
facet normal 0.0 0.0 -1
outer loop
vertex 2.48901586977664 -2.48901586977665 11.55
vertex 3.04840942132122 1.76 11.55
vertex 3.04840942132122 -1.76 11.55
endloop
endfacet
facet normal 0.0 0.0 -1
outer loop
vertex 3.04840942132122 -1.76 11.55
vertex 3.04840942132122 1.76 11.55
vertex 3.40005890853752 0.911043038760873 11.55
endloop
endfacet
facet normal 0.0 0.0 -1
outer loop
vertex 3.04840942132122 -1.76 11.55
vertex 3.40005890853752 0.911043038760873 11.55
vertex 3.40005890853752 -0.911043038760874 11.55
endloop
endfacet
facet normal 0.0 0.0 -1
outer loop
vertex 3.40005890853752 -0.911043038760874 11.55
vertex 3.40005890853752 0.911043038760873 11.55
vertex 3.51999999999999 -1.12798659301916e-015 11.55
endloop
endfacet
facet normal -0.258819045102521 -0.965925826289068 0.0
outer loop
vertex 0.911043038760866 3.40005890853752 11.55
vertex -6.76791955811495e-015 3.52 5.50000000000004
vertex 0.911043038760866 3.40005890853752 5.50000000000004
endloop
endfacet
facet normal 1.24755538539057e-016 -1 0.0
outer loop
vertex -6.76791955811495e-015 3.52 5.50000000000004
vertex 0.911043038760866 3.40005890853752 11.55
vertex -6.76791955811495e-015 3.52 11.55
endloop
endfacet
facet normal -0.5 -0.866025403784439 0.0
outer loop
vertex 1.75999999999999 3.04840942132122 11.55
vertex 0.911043038760866 3.40005890853752 5.50000000000004
vertex 1.75999999999999 3.04840942132122 5.50000000000004
endloop
endfacet
facet normal -0.258819045102521 -0.965925826289068 0.0
outer loop
vertex 0.911043038760866 3.40005890853752 5.50000000000004
vertex 1.75999999999999 3.04840942132122 11.55
vertex 0.911043038760866 3.40005890853752 11.55
endloop
endfacet
facet normal -0.707106781186547 -0.707106781186548 0.0
outer loop
vertex 2.48901586977664 2.48901586977665 11.55
vertex 1.75999999999999 3.04840942132122 5.50000000000004
vertex 2.48901586977664 2.48901586977665 5.50000000000004
endloop
endfacet
facet normal -0.5 -0.866025403784439 0.0
outer loop
vertex 1.75999999999999 3.04840942132122 5.50000000000004
vertex 2.48901586977664 2.48901586977665 11.55
vertex 1.75999999999999 3.04840942132122 11.55
endloop
endfacet
facet normal -0.707106781186547 -0.707106781186548 0.0
outer loop
vertex 2.48901586977664 2.48901586977665 11.55
vertex 3.04840942132122 1.76 5.50000000000004
vertex 3.04840942132122 1.76 11.55
endloop
endfacet
facet normal -0.866025403784438 -0.5 0.0
outer loop
vertex 3.04840942132122 1.76 5.50000000000004
vertex 2.48901586977664 2.48901586977665 11.55
vertex 2.48901586977664 2.48901586977665 5.50000000000004
endloop
endfacet
facet normal -0.866025403784438 -0.5 0.0
outer loop
vertex 3.04840942132122 1.76 11.55
vertex 3.40005890853752 0.911043038760873 5.50000000000004
vertex 3.40005890853752 0.911043038760873 11.55
endloop
endfacet
facet normal -0.965925826289068 -0.258819045102521 0.0
outer loop
vertex 3.40005890853752 0.911043038760873 5.50000000000004
vertex 3.04840942132122 1.76 11.55
vertex 3.04840942132122 1.76 5.50000000000004
endloop
endfacet
facet normal -0.965925826289068 -0.258819045102521 0.0
outer loop
vertex 3.40005890853752 0.911043038760873 11.55
vertex 3.51999999999999 -1.12798659301916e-015 5.50000000000004
vertex 3.51999999999999 -1.12798659301916e-015 11.55
endloop
endfacet
facet normal -1 4.45555494782345e-017 0.0
outer loop
vertex 3.51999999999999 -1.12798659301916e-015 5.50000000000004
vertex 3.40005890853752 0.911043038760873 11.55
vertex 3.40005890853752 0.911043038760873 5.50000000000004
endloop
endfacet
facet normal -1 4.45555494782345e-017 0.0
outer loop
vertex 3.51999999999999 -1.12798659301916e-015 11.55
vertex 3.40005890853752 -0.911043038760874 5.50000000000004
vertex 3.40005890853752 -0.911043038760874 11.55
endloop
endfacet
facet normal -0.965925826289068 0.258819045102521 0.0
outer loop
vertex 3.40005890853752 -0.911043038760874 5.50000000000004
vertex 3.51999999999999 -1.12798659301916e-015 11.55
vertex 3.51999999999999 -1.12798659301916e-015 5.50000000000004
endloop
endfacet
facet normal -0.965925826289068 0.258819045102521 0.0
outer loop
vertex 3.40005890853752 -0.911043038760874 11.55
vertex 3.04840942132122 -1.76 5.50000000000004
vertex 3.04840942132122 -1.76 11.55
endloop
endfacet
facet normal -0.866025403784439 0.5 0.0
outer loop
vertex 3.04840942132122 -1.76 5.50000000000004
vertex 3.40005890853752 -0.911043038760874 11.55
vertex 3.40005890853752 -0.911043038760874 5.50000000000004
endloop
endfacet
facet normal -0.866025403784439 0.5 0.0
outer loop
vertex 3.04840942132122 -1.76 11.55
vertex 2.48901586977664 -2.48901586977665 5.50000000000004
vertex 2.48901586977664 -2.48901586977665 11.55
endloop
endfacet
facet normal -0.707106781186548 0.707106781186547 0.0
outer loop
vertex 2.48901586977664 -2.48901586977665 5.50000000000004
vertex 3.04840942132122 -1.76 11.55
vertex 3.04840942132122 -1.76 5.50000000000004
endloop
endfacet
facet normal -0.5 0.866025403784438 0.0
outer loop
vertex 1.75999999999999 -3.04840942132122 11.55
vertex 2.48901586977664 -2.48901586977665 5.50000000000004
vertex 1.75999999999999 -3.04840942132122 5.50000000000004
endloop
endfacet
facet normal -0.707106781186548 0.707106781186547 0.0
outer loop
vertex 2.48901586977664 -2.48901586977665 5.50000000000004
vertex 1.75999999999999 -3.04840942132122 11.55
vertex 2.48901586977664 -2.48901586977665 11.55
endloop
endfacet
facet normal -0.258819045102521 0.965925826289068 0.0
outer loop
vertex 0.911043038760867 -3.40005890853752 11.55
vertex 1.75999999999999 -3.04840942132122 5.50000000000004
vertex 0.911043038760867 -3.40005890853752 5.50000000000004
endloop
endfacet
facet normal -0.5 0.866025403784438 0.0
outer loop
vertex 1.75999999999999 -3.04840942132122 5.50000000000004
vertex 0.911043038760867 -3.40005890853752 11.55
vertex 1.75999999999999 -3.04840942132122 11.55
endloop
endfacet
facet normal -2.22777747391173e-016 1 0.0
outer loop
vertex -6.76791955811495e-015 -3.52 11.55
vertex 0.911043038760867 -3.40005890853752 5.50000000000004
vertex -6.76791955811495e-015 -3.52 5.50000000000004
endloop
endfacet
facet normal -0.258819045102521 0.965925826289068 0.0
outer loop
vertex 0.911043038760867 -3.40005890853752 5.50000000000004
vertex -6.76791955811495e-015 -3.52 11.55
vertex 0.911043038760867 -3.40005890853752 11.55
endloop
endfacet
facet normal 0.25881904510252 0.965925826289068 0.0
outer loop
vertex -0.911043038760879 -3.40005890853752 11.55
vertex -6.76791955811495e-015 -3.52 5.50000000000004
vertex -0.911043038760879 -3.40005890853752 5.50000000000004
endloop
endfacet
facet normal -2.22777747391173e-016 1 0.0
outer loop
vertex -6.76791955811495e-015 -3.52 5.50000000000004
vertex -0.911043038760879 -3.40005890853752 11.55
vertex -6.76791955811495e-015 -3.52 11.55
endloop
endfacet
facet normal 0.5 0.866025403784439 0.0
outer loop
vertex -1.76000000000001 -3.04840942132123 11.55
vertex -0.911043038760879 -3.40005890853752 5.50000000000004
vertex -1.76000000000001 -3.04840942132123 5.50000000000004
endloop
endfacet
facet normal 0.25881904510252 0.965925826289068 0.0
outer loop
vertex -0.911043038760879 -3.40005890853752 5.50000000000004
vertex -1.76000000000001 -3.04840942132123 11.55
vertex -0.911043038760879 -3.40005890853752 11.55
endloop
endfacet
facet normal 0.707106781186547 0.707106781186548 0.0
outer loop
vertex -2.48901586977665 -2.48901586977665 11.55
vertex -1.76000000000001 -3.04840942132123 5.50000000000004
vertex -2.48901586977665 -2.48901586977665 5.50000000000004
endloop
endfacet
facet normal 0.5 0.866025403784439 0.0
outer loop
vertex -1.76000000000001 -3.04840942132123 5.50000000000004
vertex -2.48901586977665 -2.48901586977665 11.55
vertex -1.76000000000001 -3.04840942132123 11.55
endloop
endfacet
facet normal 0.866025403784438 0.5 0.0
outer loop
vertex -3.04840942132123 -1.76 5.50000000000004
vertex -2.48901586977665 -2.48901586977665 11.55
vertex -2.48901586977665 -2.48901586977665 5.50000000000004
endloop
endfacet
facet normal 0.707106781186547 0.707106781186548 0.0
outer loop
vertex -2.48901586977665 -2.48901586977665 11.55
vertex -3.04840942132123 -1.76 5.50000000000004
vertex -3.04840942132123 -1.76 11.55
endloop
endfacet
facet normal 0.965925826289068 0.258819045102521 0.0
outer loop
vertex -3.40005890853753 -0.911043038760877 5.50000000000004
vertex -3.04840942132123 -1.76 11.55
vertex -3.04840942132123 -1.76 5.50000000000004
endloop
endfacet
facet normal 0.866025403784438 0.5 0.0
outer loop
vertex -3.04840942132123 -1.76 11.55
vertex -3.40005890853753 -0.911043038760877 5.50000000000004
vertex -3.40005890853753 -0.911043038760877 11.55
endloop
endfacet
facet normal 1 4.54466604677992e-016 0.0
outer loop
vertex -3.52000000000001 -2.25597318603832e-015 5.50000000000004
vertex -3.40005890853753 -0.911043038760877 11.55
vertex -3.40005890853753 -0.911043038760877 5.50000000000004
endloop
endfacet
facet normal 0.965925826289068 0.258819045102521 0.0
outer loop
vertex -3.40005890853753 -0.911043038760877 11.55
vertex -3.52000000000001 -2.25597318603832e-015 5.50000000000004
vertex -3.52000000000001 -2.25597318603832e-015 11.55
endloop
endfacet
facet normal 0.965925826289068 -0.25881904510252 0.0
outer loop
vertex -3.40005890853753 0.91104303876087 5.50000000000004
vertex -3.52000000000001 -2.25597318603832e-015 11.55
vertex -3.52000000000001 -2.25597318603832e-015 5.50000000000004
endloop
endfacet
facet normal 1 4.54466604677992e-016 0.0
outer loop
vertex -3.52000000000001 -2.25597318603832e-015 11.55
vertex -3.40005890853753 0.91104303876087 5.50000000000004
vertex -3.40005890853753 0.91104303876087 11.55
endloop
endfacet
facet normal 0.866025403784439 -0.5 0.0
outer loop
vertex -3.04840942132123 1.76 5.50000000000004
vertex -3.40005890853753 0.91104303876087 11.55
vertex -3.40005890853753 0.91104303876087 5.50000000000004
endloop
endfacet
facet normal 0.965925826289068 -0.25881904510252 0.0
outer loop
vertex -3.40005890853753 0.91104303876087 11.55
vertex -3.04840942132123 1.76 5.50000000000004
vertex -3.04840942132123 1.76 11.55
endloop
endfacet
facet normal 0.707106781186548 -0.707106781186547 0.0
outer loop
vertex -2.48901586977666 2.48901586977665 5.50000000000004
vertex -3.04840942132123 1.76 11.55
vertex -3.04840942132123 1.76 5.50000000000004
endloop
endfacet
facet normal 0.866025403784439 -0.5 0.0
outer loop
vertex -3.04840942132123 1.76 11.55
vertex -2.48901586977666 2.48901586977665 5.50000000000004
vertex -2.48901586977666 2.48901586977665 11.55
endloop
endfacet
facet normal 0.5 -0.866025403784438 0.0
outer loop
vertex -1.76000000000001 3.04840942132122 11.55
vertex -2.48901586977666 2.48901586977665 5.50000000000004
vertex -1.76000000000001 3.04840942132122 5.50000000000004
endloop
endfacet
facet normal 0.707106781186548 -0.707106781186547 0.0
outer loop
vertex -2.48901586977666 2.48901586977665 5.50000000000004
vertex -1.76000000000001 3.04840942132122 11.55
vertex -2.48901586977666 2.48901586977665 11.55
endloop
endfacet
facet normal 0.258819045102521 -0.965925826289068 0.0
outer loop
vertex -0.911043038760883 3.40005890853752 11.55
vertex -1.76000000000001 3.04840942132122 5.50000000000004
vertex -0.911043038760883 3.40005890853752 5.50000000000004
endloop
endfacet
facet normal 0.5 -0.866025403784438 0.0
outer loop
vertex -1.76000000000001 3.04840942132122 5.50000000000004
vertex -0.911043038760883 3.40005890853752 11.55
vertex -1.76000000000001 3.04840942132122 11.55
endloop
endfacet
facet normal 1.24755538539057e-016 -1 0.0
outer loop
vertex -6.76791955811495e-015 3.52 11.55
vertex -0.911043038760883 3.40005890853752 5.50000000000004
vertex -6.76791955811495e-015 3.52 5.50000000000004
endloop
endfacet
facet normal 0.258819045102521 -0.965925826289068 0.0
outer loop
vertex -0.911043038760883 3.40005890853752 5.50000000000004
vertex -6.76791955811495e-015 3.52 11.55
vertex -0.911043038760883 3.40005890853752 11.55
endloop
endfacet
endsolid socket_enkoder
